<svg width="24" height="24" viewBox="0 0 24 24" fill="none" xmlns="http://www.w3.org/2000/svg">
<rect width="24" height="24" rx="6" fill="#0A66C2"/>
<path d="M12.6833 19C11.4648 19 10.38 18.8345 9.4289 18.5036C8.47781 18.1765 7.67377 17.6953 7.01678 17.0601C6.3598 16.4287 5.85942 15.6565 5.51565 14.7436C5.17188 13.8307 5 12.7923 5 11.6284C5 10.4797 5.17188 9.43743 5.51565 8.50171C5.86324 7.56599 6.36935 6.76341 7.03397 6.09395C7.69859 5.42069 8.51027 4.90339 9.46901 4.54203C10.4316 4.18068 11.5278 4 12.7577 4C13.896 4 14.912 4.16546 15.8058 4.49639C16.7035 4.82731 17.4636 5.29897 18.0862 5.91137C18.7126 6.51997 19.1882 7.24458 19.5128 8.0852C19.8413 8.92202 20.0036 9.84823 19.9998 10.8638C20.0036 11.5637 19.9425 12.2065 19.8165 12.7923C19.6904 13.3781 19.4918 13.8897 19.2206 14.3271C18.9532 14.7607 18.6018 15.105 18.1664 15.3598C17.7309 15.6109 17.2038 15.7535 16.585 15.7878C16.142 15.822 15.7829 15.7897 15.5079 15.6908C15.2329 15.5919 15.0228 15.4454 14.8777 15.2514C14.7363 15.0536 14.6447 14.8235 14.6026 14.5611H14.5339C14.4422 14.7893 14.2627 14.9966 13.9953 15.183C13.7279 15.3655 13.4014 15.5082 13.0156 15.6109C12.6336 15.7098 12.2268 15.7459 11.7952 15.7193C11.3445 15.6927 10.9167 15.5881 10.5118 15.4055C10.1107 15.2229 9.75358 14.9585 9.44036 14.6124C9.13097 14.2663 8.88651 13.8383 8.70699 13.3286C8.53128 12.8189 8.44152 12.2294 8.4377 11.5599C8.44152 10.8981 8.5351 10.3218 8.71845 9.83111C8.90561 9.34043 9.15198 8.92773 9.45755 8.593C9.76694 8.25827 10.1107 7.99582 10.4889 7.80563C10.867 7.61544 11.2471 7.49372 11.629 7.44047C12.0607 7.37581 12.4694 7.37581 12.8551 7.44047C13.2409 7.50514 13.5656 7.60974 13.8292 7.75428C14.0965 7.89882 14.2627 8.05477 14.3276 8.22214H14.4078V7.58311H16.2012V13.1518C16.205 13.4142 16.2642 13.6177 16.3788 13.7623C16.4934 13.9068 16.6481 13.9791 16.8429 13.9791C17.1064 13.9791 17.3261 13.8631 17.5018 13.631C17.6813 13.399 17.815 13.0434 17.9028 12.5641C17.9945 12.0848 18.0403 11.4743 18.0403 10.7326C18.0403 10.0175 17.9448 9.38988 17.7539 8.84975C17.5667 8.30582 17.3031 7.84367 16.9632 7.46329C16.6271 7.07912 16.2355 6.76721 15.7886 6.52758C15.3417 6.28794 14.8566 6.11297 14.3334 6.00266C13.8139 5.89235 13.2791 5.8372 12.7291 5.8372C11.778 5.8372 10.9472 5.98174 10.2368 6.27083C9.5263 6.5561 8.93426 6.9574 8.46062 7.47471C7.98698 7.99201 7.63175 8.59871 7.39493 9.29479C7.16193 9.98707 7.04352 10.7421 7.0397 11.5599C7.04352 12.4614 7.16957 13.2602 7.41785 13.9563C7.66995 14.6485 8.04045 15.2305 8.52937 15.7022C9.01829 16.1738 9.6218 16.5314 10.3399 16.7748C11.058 17.0183 11.883 17.14 12.815 17.14C13.2543 17.14 13.684 17.1076 14.1042 17.043C14.5243 16.9821 14.9044 16.906 15.2443 16.8148C15.5843 16.7273 15.8574 16.6417 16.0637 16.558L16.6309 18.2126C16.3902 18.3496 16.0637 18.477 15.6511 18.5949C15.2424 18.7166 14.7803 18.8136 14.2646 18.8859C13.7528 18.962 13.2257 19 12.6833 19ZM12.4197 13.8421C12.8857 13.8421 13.2562 13.7528 13.5312 13.574C13.8101 13.3952 14.0087 13.1308 14.1271 12.7809C14.2493 12.4272 14.3066 11.9916 14.299 11.4743C14.2952 11.0179 14.236 10.6318 14.1214 10.3161C14.0106 9.99658 13.8177 9.75504 13.5427 9.59148C13.2715 9.42412 12.8933 9.34043 12.4082 9.34043C11.9843 9.34043 11.6233 9.42982 11.3254 9.6086C11.0313 9.78737 10.8059 10.0384 10.6493 10.3617C10.4965 10.6812 10.4182 11.0578 10.4144 11.4914C10.4182 11.8946 10.4831 12.2769 10.6092 12.6383C10.7352 12.9958 10.9434 13.2868 11.2337 13.5112C11.524 13.7318 11.9193 13.8421 12.4197 13.8421Z" fill="white"/>
</svg>
