<svg width="24" height="24" viewBox="0 0 24 24" fill="none" xmlns="http://www.w3.org/2000/svg">
<g clip-path="url(#clip0_424_3753)">
<path d="M0 11.52C0 6.0894 0 3.37413 1.68707 1.68707C3.37413 0 6.0894 0 11.52 0H12.48C17.9106 0 20.6259 0 22.313 1.68707C24 3.37413 24 6.0894 24 11.52V12.48C24 17.9106 24 20.6259 22.313 22.313C20.6259 24 17.9106 24 12.48 24H11.52C6.0894 24 3.37413 24 1.68707 22.313C0 20.6259 0 17.9106 0 12.48V11.52Z" fill="#0077FF"/>
<path d="M12.7286 17.28C7.15272 17.28 3.97236 13.4962 3.83984 7.20001H6.6329C6.72464 11.8213 8.7837 13.7788 10.4147 14.1824V7.20001H13.0447V11.1856C14.6553 11.0141 16.3473 9.19785 16.9181 7.20001H19.5481C19.1098 9.66199 17.2749 11.4782 15.9702 12.2249C17.2749 12.8303 19.3647 14.4144 20.1598 17.28H17.2647C16.6429 15.3629 15.0937 13.8797 13.0447 13.6779V17.28H12.7286Z" fill="white"/>
</g>
<defs>
<clipPath id="clip0_424_3753">
<rect width="24" height="24" fill="white"/>
</clipPath>
</defs>
</svg>
