<svg width="22" height="16" viewBox="0 0 22 16" fill="none" xmlns="http://www.w3.org/2000/svg">
<path fill-rule="evenodd" clip-rule="evenodd" d="M21.3332 8.00001C21.3332 7.44772 20.8855 7.00001 20.3332 7.00001H1.6665C1.11422 7.00001 0.666504 7.44772 0.666504 8.00001C0.666504 8.55229 1.11422 9.00001 1.6665 9.00001H20.3332C20.8855 9.00001 21.3332 8.55229 21.3332 8.00001Z" fill="#303030"/>
<path fill-rule="evenodd" clip-rule="evenodd" d="M21.3332 1.33334C21.3332 0.781059 20.8855 0.333344 20.3332 0.333344H1.6665C1.11422 0.333344 0.666504 0.781059 0.666504 1.33334C0.666504 1.88563 1.11422 2.33334 1.6665 2.33334H20.3332C20.8855 2.33334 21.3332 1.88563 21.3332 1.33334Z" fill="#303030"/>
<path fill-rule="evenodd" clip-rule="evenodd" d="M21.3332 14.6667C21.3332 14.1144 20.8855 13.6667 20.3332 13.6667H1.6665C1.11422 13.6667 0.666504 14.1144 0.666504 14.6667C0.666504 15.219 1.11422 15.6667 1.6665 15.6667H20.3332C20.8855 15.6667 21.3332 15.219 21.3332 14.6667Z" fill="#303030"/>
</svg>
