<svg width="18" height="21" viewBox="0 0 18 21" fill="none" xmlns="http://www.w3.org/2000/svg">
<path d="M16.3897 20.4267C17.4039 20.4267 17.7739 19.0911 16.9042 18.5692L1.5145 9.33545C0.847971 8.93554 4.81311e-07 9.41565 4.47334e-07 10.1929L4.37114e-08 19.4268C1.95703e-08 19.979 0.447716 20.4268 1 20.4268L16.3897 20.4267Z" fill="#3B0CFA"/>
<path d="M2.92098 4.61815C2.71279 4.43674 2.69108 4.1209 2.87249 3.91271L5.82877 0.520005C6.01018 0.311812 6.32602 0.290102 6.53421 0.471514C6.74241 0.652926 6.76412 0.968763 6.58271 1.17696L3.9549 4.19269L6.97064 6.82049C7.17883 7.0019 7.20054 7.31774 7.01913 7.52593C6.83772 7.73413 6.52188 7.75584 6.31368 7.57443L2.92098 4.61815ZM16.7654 12.3665C15.9016 9.02868 14.6708 7.03118 12.6694 5.90046C10.6346 4.75082 7.70387 4.43617 3.28375 4.74L3.21517 3.74236C7.66225 3.43667 10.8525 3.72538 13.1613 5.0298C15.5036 6.35314 16.8392 8.6604 17.7335 12.1159L16.7654 12.3665Z" fill="black"/>
</svg>
