<svg width="18" height="21" viewBox="0 0 18 21" fill="none" xmlns="http://www.w3.org/2000/svg">
<path d="M1.61032 20.4267C0.596092 20.4267 0.226132 19.0911 1.09582 18.5692L16.4855 9.33545C17.152 8.93554 18 9.41565 18 10.1929L18 19.4268C18 19.979 17.5523 20.4268 17 20.4268L1.61032 20.4267Z" fill="#3B0CFA"/>
<path d="M15.079 4.61815C15.2872 4.43674 15.3089 4.1209 15.1275 3.91271L12.1712 0.520005C11.9898 0.311812 11.674 0.290102 11.4658 0.471514C11.2576 0.652926 11.2359 0.968763 11.4173 1.17696L14.0451 4.19269L11.0294 6.82049C10.8212 7.0019 10.7995 7.31774 10.9809 7.52593C11.1623 7.73413 11.4781 7.75584 11.6863 7.57443L15.079 4.61815ZM1.23459 12.3665C2.09843 9.02868 3.32921 7.03118 5.33059 5.90046C7.36543 4.75082 10.2961 4.43617 14.7163 4.74L14.7848 3.74236C10.3378 3.43667 7.14752 3.72538 4.83869 5.0298C2.4964 6.35314 1.16079 8.6604 0.266489 12.1159L1.23459 12.3665Z" fill="black"/>
</svg>
