<svg width="32" height="32" viewBox="0 0 32 32" fill="none" xmlns="http://www.w3.org/2000/svg">
<circle cx="16" cy="16" r="16" fill="#E9E3FF"/>
<path d="M14 6.25C13.5858 6.25 13.25 6.58579 13.25 7V7.75H9C8.58579 7.75 8.25 8.08579 8.25 8.5C8.25 8.91421 8.58579 9.25 9 9.25H23C23.4142 9.25 23.75 8.91421 23.75 8.5C23.75 8.08579 23.4142 7.75 23 7.75H18.75V7C18.75 6.58579 18.4142 6.25 18 6.25H14Z" fill="#3B0CFA"/>
<path d="M14 14.65C14.4142 14.65 14.75 14.9858 14.75 15.4L14.75 22.4C14.75 22.8142 14.4142 23.15 14 23.15C13.5858 23.15 13.25 22.8142 13.25 22.4L13.25 15.4C13.25 14.9858 13.5858 14.65 14 14.65Z" fill="#3B0CFA"/>
<path d="M18.75 15.4C18.75 14.9858 18.4142 14.65 18 14.65C17.5858 14.65 17.25 14.9858 17.25 15.4V22.4C17.25 22.8142 17.5858 23.15 18 23.15C18.4142 23.15 18.75 22.8142 18.75 22.4V15.4Z" fill="#3B0CFA"/>
<path fill-rule="evenodd" clip-rule="evenodd" d="M9.99142 11.9172C10.0336 11.5374 10.3547 11.25 10.7368 11.25H21.2632C21.6453 11.25 21.9664 11.5374 22.0086 11.9172L22.2087 13.7185C22.5715 16.9838 22.5715 20.2793 22.2087 23.5446L22.189 23.722C22.045 25.0181 21.0404 26.0517 19.7489 26.2325C17.2618 26.5807 14.7382 26.5807 12.2511 26.2325C10.9595 26.0517 9.955 25.0181 9.81098 23.722L9.79128 23.5446C9.42846 20.2793 9.42846 16.9838 9.79128 13.7185L9.99142 11.9172ZM11.4081 12.75L11.2821 13.8842C10.9315 17.0394 10.9315 20.2238 11.2821 23.379L11.3018 23.5563C11.3701 24.171 11.8465 24.6612 12.459 24.747C14.8082 25.0758 17.1918 25.0758 19.5409 24.747C20.1535 24.6612 20.6299 24.171 20.6982 23.5563L20.7179 23.379C21.0685 20.2238 21.0685 17.0394 20.7179 13.8842L20.5919 12.75H11.4081Z" fill="#3B0CFA"/>
</svg>
