<svg width="23" height="64" viewBox="0 0 23 64" fill="none" xmlns="http://www.w3.org/2000/svg">
<path d="M0 10C0 4.47715 4.47715 0 10 0H24V64H10C4.47715 64 0 59.5228 0 54V10Z" fill="#EAEAFF"/>
<path fill-rule="evenodd" clip-rule="evenodd" d="M15.0303 36.5303C14.7374 36.8232 14.2626 36.8232 13.9697 36.5303L9.96967 32.5303C9.67678 32.2374 9.67678 31.7626 9.96967 31.4697L13.9697 27.4697C14.2626 27.1768 14.7374 27.1768 15.0303 27.4697C15.3232 27.7626 15.3232 28.2374 15.0303 28.5303L11.5607 32L15.0303 35.4697C15.3232 35.7626 15.3232 36.2374 15.0303 36.5303Z" fill="#879394"/>
</svg>
