<svg width="29" height="26" viewBox="0 0 29 26" fill="none" xmlns="http://www.w3.org/2000/svg">
<path d="M28.6236 12.1621L29 10.9521L27.7546 10.9913C27.6494 10.9913 26.8845 10.9695 26.1425 10.4294C26.1979 10.4348 26.2531 10.4425 26.3096 10.4425C27.0733 10.4425 27.8121 9.9807 28.1082 9.32083L28.6441 8.12837C27.9726 8.13704 27.3586 8.05208 27.3586 8.05208C27.3532 8.05105 26.8694 7.98892 26.3096 7.41503C25.9082 7.00342 25.4113 6.78564 24.8732 6.78564C24.6378 6.78564 24.4274 6.82806 24.2462 6.88578C24.2744 6.78887 24.3015 6.69088 24.3167 6.5896C24.4881 5.47338 23.7722 4.62178 23.7722 4.62284L22.8359 3.45871L22.2556 4.82648C22.2534 4.83085 22.1069 5.15099 21.8444 5.30782C21.7652 4.90599 21.571 4.45404 21.1555 4.02174C20.3722 3.20714 19.4186 3.08627 18.9197 3.08627C18.6886 3.08627 18.5237 3.11129 18.4835 3.11784L17.3531 3.34107C17.4183 3.08733 17.5571 2.6463 17.811 2.24882L18.4348 1.27309L16.8649 1.45276L16.3648 0.386609L15.3971 0.887546L14.5022 0L13.6094 0.887546L12.6384 0.386609L12.1394 1.45276L10.5707 1.27309L11.1956 2.24882C11.4494 2.6463 11.5883 3.08627 11.6523 3.34001L10.574 3.12658L10.5371 3.12002C10.4828 3.11129 10.319 3.08627 10.0869 3.08627C9.58789 3.08627 8.63428 3.20821 7.85315 4.02174C7.43657 4.45297 7.24241 4.90599 7.16214 5.30782C6.90178 5.15318 6.75638 4.8374 6.75638 4.8374L6.17496 3.46196L5.22348 4.63371C5.10745 4.7851 4.53359 5.58553 4.68976 6.59176C4.70607 6.69196 4.73213 6.79 4.76032 6.88691C4.58023 6.82919 4.36976 6.78666 4.13434 6.78666C3.5963 6.78666 3.0994 7.0045 2.69695 7.41611C2.13929 7.9879 1.65764 8.05208 1.66201 8.05208C1.66201 8.05208 1.15318 8.14361 0.365586 8.12945L0.898277 9.32191C1.19442 9.98291 1.93431 10.4436 2.69695 10.4436C2.7544 10.4436 2.80973 10.436 2.86617 10.4305C2.12629 10.9707 1.36152 10.9925 1.26929 10.9935L0 10.9521L0.384038 12.161C0.577142 12.7839 1.22263 13.8162 2.45935 13.9273C2.32482 14.4936 2.02651 15.1274 1.37128 15.4007L0.426389 15.7917L0.941673 16.6923C1.23238 17.1779 1.9148 17.7465 2.8868 17.7465C3.09722 17.7454 3.30007 17.7246 3.4954 17.6833C3.54529 17.9054 3.60818 18.1276 3.68195 18.3476C3.97162 19.2123 3.72208 19.8155 3.71888 19.8221L3.25237 20.8033L4.29381 21.0788C4.30681 21.0832 4.62143 21.1692 5.01519 21.1692C5.19422 21.1692 5.36456 21.1507 5.52515 21.1125C5.64661 21.0842 5.7627 21.0461 5.87441 21.0004C6.00893 21.2432 6.17277 21.4643 6.36374 21.6625C7.03087 22.3497 7.97579 22.6982 9.17344 22.6982H9.17776L10.0327 22.6872L8.26653 23.4234L9.60739 24.0735C10.0944 24.3121 10.6727 24.5941 11.2606 24.8097L11.0936 25.2693L11.5558 25.4806C11.597 25.4991 12.4854 25.8987 13.963 25.9837C13.963 25.9837 14.3199 26 14.5163 26C14.7126 26 15.0652 25.9826 15.0652 25.9826C16.533 25.8954 17.415 25.5001 17.4562 25.4806L17.9194 25.2682L17.7502 24.8075C18.3556 24.5854 18.9544 24.2925 19.4208 24.0637L20.7367 23.4223L18.976 22.6851L19.8342 22.696C21.0329 22.696 21.9789 22.3475 22.645 21.6592C22.8349 21.4622 22.9987 21.241 23.1342 20.9982C23.246 21.044 23.3632 21.0821 23.4847 21.1104C23.6441 21.1485 23.8144 21.167 23.9935 21.167C24.3807 21.167 24.6986 21.081 24.7073 21.0788L25.753 20.8011L25.2974 19.8384C25.2866 19.8133 25.0371 19.2111 25.3267 18.3454C25.4005 18.1243 25.4623 17.9022 25.5122 17.6811C25.7086 17.7225 25.9136 17.7442 26.1252 17.7442C27.363 17.7442 27.9564 16.8698 28.0714 16.6803L28.5812 15.7895L27.6364 15.3996C26.98 15.1263 26.6828 14.4914 26.5494 13.9262C27.7687 13.8217 28.424 12.7893 28.6236 12.1621ZM11.7348 3.75708L11.7217 3.76038L11.7325 3.74621L11.7348 3.75708Z" fill="white"/>
<path d="M15 4C13.9546 4.00072 13.1712 4.22377 13 4.48597L15 5L17 4.48597C16.8299 4.22377 16.0465 4.00072 15 4Z" fill="white"/>
<path d="M15.0166 23.2897H15.0148H15.0009H14.9852H14.9843C14.4672 23.295 13.7558 23.1429 13.4125 23L13 24.5965C13.272 24.7354 14.1933 25 15.0009 25C15.8066 25 16.7289 24.7341 17 24.5965L16.5884 23C16.2442 23.1441 15.5337 23.295 15.0166 23.2897Z" fill="white"/>
<path d="M18.4789 22C18.1524 22.2353 17.4238 22.5883 17 22.7522L17.3559 24C18.0118 23.7722 18.5527 23.5057 19 23.2203L18.2615 22.9074L18.4789 22Z" fill="white"/>
<path d="M10.782 22L11.1097 22.9074L10 23.2203C10.6699 23.5057 11.4859 23.7722 12.4658 24L13 22.7522C12.3669 22.5883 11.272 22.2341 10.782 22Z" fill="white"/>
<path d="M14.9985 2.4213C15.6587 2.4213 16.3065 2.63105 16.8043 3C16.8499 2.79655 16.9135 2.55017 17 2.2925L16.8119 2.32277L16.6143 2.35057L16.5307 2.11179L16.279 1.40429L15.8202 1.7227L15.6416 1.84398L15.4991 1.65697L15.0004 1L14.5027 1.65697L14.3602 1.84398L14.1816 1.7227L13.72 1.40429L13.4712 2.11179L13.3857 2.35057L13.1881 2.32277L13 2.2925C13.0865 2.55147 13.1491 2.79655 13.1957 3C13.6944 2.63105 14.3403 2.4213 14.9985 2.4213Z" fill="white"/>
<path d="M26.1703 8.94729C26.2337 8.98361 26.2985 9 26.3627 9C26.6398 9 26.9076 8.70238 27 8.36143C27 8.36143 26.4917 8.30987 25.9454 7.38781C25.7712 7.08903 25.5873 7 25.4293 7C25.184 7 25 7.21554 25 7.21554C25.6599 7.79908 25.7945 8.73638 26.1703 8.94729Z" fill="white"/>
<path d="M2.95489 9C3.0511 9 3.14841 8.98361 3.24146 8.94729C3.80722 8.73638 4.01025 7.79908 5 7.21554C5 7.21554 4.72294 7 4.35704 7C4.11914 7 3.84312 7.08903 3.58092 7.38781C2.7624 8.30987 2 8.36143 2 8.36143C2.13638 8.70238 2.53927 9 2.95489 9Z" fill="white"/>
<path d="M26.5529 13.1453C26.5699 13.1464 26.5848 13.1464 26.6028 13.1464C27.6459 13.1464 28 11.9898 28 11.9898H27.9798C27.7884 11.9898 26.2371 11.9435 25.1409 10.5007C24.4189 9.55211 23.8278 8.71791 22.6592 8.38998L22.5444 8.36903L22.5188 8.24803C22.487 8.06309 22.6092 7.89034 22.8867 7.70328C24.4987 6.61046 23.4046 5.21718 23.4046 5.21718C23.4046 5.21718 22.9442 6.33199 21.9138 6.33199C21.8894 6.33199 21.8628 6.3309 21.8373 6.3309C21.7203 6.32432 21.6076 6.31991 21.4939 6.29461L21.3035 6.25609C21.3035 6.25609 21.597 5.42961 20.8889 4.67021C20.3551 4.09687 19.7055 4 19.3301 4C19.1409 4 19.0207 4.02535 19.0207 4.02535C19.3769 4.50736 19.6342 5.30635 19.2227 5.79932C18.8676 6.22306 18 6.24396 18 6.87565C18 7.14307 18.2413 7.45566 18.6752 7.73625C19.9798 8.58694 21.2748 9.71502 21.8128 11.2271C22.4859 13.1134 21.7278 14.3646 20.6454 15.0822C20.6454 15.0822 20.9846 15.4057 21.4768 15.4465C21.5768 15.4564 21.6746 15.4608 21.7661 15.4608C22.8049 15.4608 23.3418 14.9567 23.3418 14.9567C23.3418 14.9567 23.2536 15.6533 22.7124 16.3005C22.2137 16.898 21.5588 17.2491 20.5603 17.2645C20.5603 17.2645 20.5284 17.7444 20.9707 18.1592C21.2536 18.4212 21.9075 18.507 21.9075 18.507C21.9075 18.507 20.6837 18.7634 20.5486 20.6343C20.4752 21.6479 20.2254 22 20.2254 22H20.2477C23.0877 22 23.0143 19.4788 23.0143 19.4788C23.0143 19.4788 23.2121 20.2249 24.0043 20.4197C24.0999 20.4461 24.202 20.456 24.2998 20.456C24.555 20.456 24.7762 20.3944 24.7762 20.3944C24.7762 20.3944 24.3615 19.4887 24.773 18.222C25.1143 17.171 25.059 16.3918 25.059 16.3918C25.059 16.3918 25.4418 16.9905 26.3902 16.996H26.3998C27.1898 16.996 27.5342 16.3764 27.5342 16.3764C25.6406 15.5631 25.8277 12.9373 25.8277 12.9373C25.8277 12.9373 26.0734 13.1266 26.5529 13.1453ZM25.9829 15.8877C25.2132 15.4949 24.7262 14.4516 24.6081 14.0752C24.4806 16.1442 23.5045 17.5804 22.3636 18.9626C21.7714 19.6791 21.5651 20.3757 21.5651 20.3757C21.5651 20.3757 21.6789 19.5866 22.1914 18.9439C23.2558 17.62 24.2668 15.9725 24.3424 14.0675C24.3944 12.7381 24.0638 11.6596 23.5481 10.7715C23.8362 11.697 23.7958 12.8306 22.8166 13.8881C22.8166 13.8881 24.7655 11.4703 22.0404 8.99197C20.9495 8.04878 19.7565 7.46665 19.142 7.0539C21.362 7.80339 22.4455 6.978 22.4455 6.978C21.7363 7.6141 20.8187 7.60311 20.2499 7.51175C20.404 7.58994 20.5646 7.67134 20.7379 7.7671C22.6092 8.81916 24.2913 10.5503 24.5784 12.9483V12.9296C25.0143 15.2836 25.9829 15.8877 25.9829 15.8877Z" fill="white"/>
<path d="M7.70251 18.507C7.70251 18.507 8.42183 18.4222 8.73302 18.1592C9.21839 17.7444 9.18454 17.2645 9.18454 17.2645C8.08496 17.2503 7.36563 16.898 6.81348 16.3016C6.22283 15.6545 6.12456 14.9578 6.12456 14.9578C6.12456 14.9578 6.71521 15.4619 7.85687 15.4619C7.95985 15.4619 8.06628 15.4575 8.17621 15.4476C8.71779 15.4069 9.09208 15.0833 9.09208 15.0833C7.90135 14.3658 7.06617 13.1134 7.80543 11.2271C8.3985 9.71611 9.82203 8.58694 11.2572 7.73625C11.7345 7.45566 12 7.14416 12 6.87565C12 6.24396 11.0467 6.22306 10.6561 5.79932C10.2033 5.30635 10.4876 4.50623 10.8782 4.02535C10.8782 4.02535 10.7484 4 10.539 4C10.1273 4 9.41257 4.09687 8.82543 4.67021C8.04404 5.42961 8.36804 6.25609 8.36804 6.25609L8.15869 6.29461C8.03352 6.31991 7.90836 6.32432 7.78084 6.3309C7.75164 6.3309 7.72584 6.33199 7.6978 6.33199C6.562 6.33199 6.05784 5.21831 6.05784 5.21831C6.05784 5.21831 4.85418 6.61149 6.62637 7.70431C6.93164 7.89142 7.06496 8.06423 7.02991 8.24911L7.00181 8.37018L6.87313 8.39107C5.59 8.71899 4.93848 9.55326 4.14422 10.5019C2.94056 11.9424 1.2363 11.9898 1.02343 11.9898H1C1 11.9898 1.38951 13.1464 2.53702 13.1464C2.5557 13.1464 2.57208 13.1464 2.59196 13.1453C3.11958 13.1276 3.39094 12.9373 3.39094 12.9373C3.39094 12.9373 3.59443 15.562 1.51353 16.3764C1.51353 16.3764 1.89252 16.996 2.76161 16.996H2.77213C3.81666 16.9905 4.23663 16.3918 4.23663 16.3918C4.23663 16.3918 4.17577 17.171 4.55006 18.222C5.00279 19.4887 4.54897 20.3944 4.54897 20.3944C4.54897 20.3944 4.79223 20.456 5.07181 20.456C5.18054 20.456 5.29174 20.4461 5.39581 20.4197C6.26605 20.2249 6.48483 19.4788 6.48483 19.4788C6.48483 19.4788 6.40523 22 9.52958 22H9.55182C9.55182 22 9.2781 21.6479 9.19857 20.6343C9.04881 18.7634 7.70251 18.507 7.70251 18.507ZM7.2007 18.9626C5.94555 17.5804 4.87297 16.1442 4.73137 14.0752C4.60161 14.4504 4.06814 15.4949 3.22135 15.8877C3.22135 15.8877 4.28577 15.2836 4.76413 12.9296V12.9483C5.08118 10.5514 6.93049 8.81916 8.99036 7.7671C9.17868 7.6702 9.35758 7.5888 9.52607 7.51175C8.90025 7.60311 7.89083 7.6141 7.11065 6.978C7.11065 6.978 8.30259 7.80339 10.7437 7.0539C10.0676 7.46665 8.75641 8.04878 7.55625 8.99197C4.55713 11.4703 6.7024 13.8881 6.7024 13.8881C5.6239 12.8294 5.58063 11.697 5.89762 10.7715C5.32915 11.6607 4.96647 12.7381 5.02503 14.0675C5.10686 15.9725 6.21927 17.62 7.38787 18.9439C7.95278 19.5855 8.0803 20.3757 8.0803 20.3757C8.0803 20.3757 7.85101 19.6791 7.2007 18.9626Z" fill="white"/>
<path d="M12.8348 9.24451C12.883 9.29429 12.9302 9.34838 12.9752 9.40247C12.9862 9.4152 12.996 9.42684 13.0069 9.44167C13.0486 9.49575 13.0915 9.55299 13.132 9.61132C13.1408 9.62295 13.1496 9.63673 13.1594 9.65052C13.2088 9.72258 13.2549 9.79679 13.3009 9.8731C13.7233 10.5781 14.4 10.9989 15 11C15.6011 10.9989 16.2757 10.5781 16.7002 9.8731C16.7473 9.7947 16.7945 9.71839 16.8439 9.64732C16.8516 9.63674 16.8592 9.6272 16.8658 9.61656C16.9075 9.55618 16.9514 9.4968 16.9974 9.43957C17.0073 9.42684 17.0161 9.41625 17.0248 9.40566C17.072 9.34948 17.1203 9.29429 17.1696 9.24346C17.1785 9.23497 17.185 9.22758 17.1927 9.22118C17.4076 9.00814 17.6644 8.84593 18 8.75584L17.8508 8.67209H17.842L17.2475 8.33814L16.6366 8L15.0044 8.85862L15 8.85547L14.9967 8.85862L13.3635 8L12.7536 8.3371L12.158 8.67105H12.1514L12 8.75474C12.3368 8.84489 12.5924 9.00494 12.8085 9.21804C12.8183 9.22653 12.8249 9.23607 12.8348 9.24451ZM14.3397 9.17559H15.0307H15.7206V9.63354C15.5583 9.44167 15.2424 9.48092 15.2424 9.48092V10.1413C15.2424 10.1413 15.2545 10.4657 15.3719 10.6067H15.0307H14.6885C14.808 10.4667 14.819 10.1413 14.819 10.1413V9.48092C14.819 9.48092 14.5042 9.44167 14.3397 9.63354V9.17559Z" fill="white"/>
<path d="M14 8V5.53272L13 5L13.264 7.39128L14 8ZM13.7851 6.13859V6.53464L13.7367 6.49953C13.7342 6.49663 13.6633 6.47121 13.5391 6.31711C13.3341 6.06735 13.3304 5.83713 13.3304 5.83713L13.7851 6.13859Z" fill="white"/>
<path d="M16.4741 7.39128L17 5L15 5.53272V8L16.4741 7.39128ZM15.43 6.13859L16.3399 5.83809C16.3399 5.83809 16.3325 6.06831 15.921 6.31807C15.6736 6.47223 15.5307 6.49755 15.5257 6.50054L15.4288 6.53565V6.13859H15.43Z" fill="white"/>
<path d="M12.422 14.8534C12.5965 14.9744 12.8077 15 12.9156 15C12.92 14.9744 12.9256 14.9426 12.9311 14.9044C12.9411 14.8428 12.95 14.7834 12.9567 14.7154C12.9867 14.4182 12.9978 14.0806 13 13.8641C12.9267 13.7769 12.8233 13.622 12.7654 13.3906C12.6988 13.1231 12.6043 13 12.4653 13C12.2853 13 12.0918 13.2059 12.0096 13.3036C11.944 14.0445 12.2297 14.7175 12.422 14.8534Z" fill="white"/>
<path d="M15.6086 13C15.337 13.3544 14.8057 13.9716 14.7793 14.0032L14.7475 14.0425L13.0681 14.0108C13.0672 14.2105 13.04 14.3806 13.0136 14.5049C13.0091 14.5256 13.0046 14.5474 13 14.5692L14.9982 15C15.2062 14.8254 15.7784 14.3238 16 14.1276C15.8383 13.844 15.8229 13.5082 15.8593 13.2715C15.7539 13.1897 15.673 13.0982 15.6086 13Z" fill="white"/>
<path d="M15.9883 11.0032C15.5267 11.4658 15.0836 11.6364 14.6882 11.6757C14.6168 11.6833 14.5442 11.6877 14.4705 11.6877H14.4651H14.4607C14.387 11.6877 14.3134 11.6833 14.2419 11.6757C14.1725 11.6692 14.1 11.6582 14.0273 11.6418C14.0014 11.7457 13.9688 11.9633 14.0621 12.1688C14.1455 12.3558 14.3155 12.4946 14.5636 12.5865L14.647 12.6193L14.6482 12.71C14.6482 12.7374 14.6676 13.3256 15.3036 13.4885C15.4076 13.3803 15.5018 13.283 15.5712 13.2021C15.4412 12.8938 15.5094 12.5788 15.6979 12.4247C15.6892 12.4575 15.607 13.2294 16.2201 13.5159L16.3208 13.564L16.2905 13.6722C16.2808 13.7051 16.076 14.4518 16.8181 14.7295L16.9492 14.7798L16.8907 14.9089C16.8777 14.9373 16.5863 15.6152 17.272 16H18.7595V14.8083C18.2308 14.7427 18.0066 14.314 17.9492 14.0101C17.7032 13.9675 17.5126 13.8603 17.3825 13.6853C17.0705 13.271 17.3392 12.8916 17.3425 12.8707C17.3413 12.8741 17.3425 13.2786 17.5894 13.5279C17.7119 13.6481 17.857 13.7411 18.077 13.7619L18.1853 13.7717L18.1951 13.8832C18.1973 13.9073 18.2568 14.454 18.7606 14.5404L18.7595 12.1065C18.7595 11.7293 18.8689 11.3499 19 11H15.9883V11.0032Z" fill="white"/>
<path d="M12.0667 12.189L12 12.9865L12.2901 13L13 12.2351L12.6396 12L12.0667 12.189Z" fill="white"/>
<path d="M16.7556 18.8805C16.7684 18.8805 16.7833 18.8824 16.7972 18.8852C17.0579 18.9511 17.124 19.7826 17.5817 19.857C17.6263 19.8655 17.6679 19.8673 17.7041 19.8673C17.8361 19.8673 17.9148 19.8175 18 19.7291C18 19.7291 17.7701 19.4092 17.5976 19.1938C17.3687 18.9116 17.191 18.5701 16.7652 18.5701C16.7556 18.5701 16.7428 18.5701 16.7322 18.571C16.5917 18.5776 16.5055 18.6378 16.5055 18.6378C16.3331 18.5419 16.1723 18.5089 16.0265 18.5089C15.7593 18.5089 15.5517 18.6171 15.4485 18.6171H15.4442L14.4926 18.5343C14.3436 18.5221 14.2265 18.3895 14.1839 18.3377C14.1733 18.3236 14.1679 18.3151 14.1679 18.3151C14.1679 18.2926 14.1679 18.269 14.1658 18.2483C14.1339 17.5607 13.5314 17.2662 13.3174 17.2615C13.3174 17.2615 13.343 17.1308 13.2845 17.0809L13.0748 17.3057L12.386 17L12.8767 17.5071L12.4606 17.92C12.4084 17.9671 12.4148 18.031 12.4361 18.0574L12.616 18.1975L12.8437 18.0752C12.8555 18.0677 12.8757 18.0658 12.9012 18.0658C12.964 18.0658 13.0588 18.08 13.1439 18.08C13.2365 18.08 13.3174 18.0621 13.3271 17.9849C13.2983 18.2399 13.0311 18.683 13.2068 19.031L13.3366 19.2935L12.4957 19.1862L12.1019 19.7742C11.9805 19.9699 11.9613 20.1816 12.0784 20.2963L12.2253 20.4591C12.2253 20.4591 12.4319 20.2653 12.4787 20.1383L12.4116 20.0734C12.3552 20.0188 12.3584 19.9699 12.3925 19.9106L12.6394 19.5484L13.6325 19.7554L13.6847 19.6764C13.7518 19.5776 13.8486 19.5475 13.9551 19.5475C13.9987 19.5475 14.0434 19.5522 14.0902 19.5588C14.2744 19.5908 14.5778 19.634 14.8812 19.634C15.2143 19.634 15.5443 19.5814 15.7199 19.4074C16.0797 19.8786 16.8088 19.9539 16.7514 20.1929L16.5598 21C16.6865 20.9953 16.8088 20.9878 16.9249 20.9736L17.1069 20.1336C17.1271 20.0424 17.1463 19.9191 17.1463 19.9191C17.0761 19.8561 16.9058 19.7225 16.8099 19.5607C16.6811 19.3424 16.7514 19.2286 16.6311 18.9445C16.6354 18.9464 16.6716 18.8805 16.7556 18.8805ZM13.0407 17.7008C12.9917 17.6999 12.9566 17.6632 12.9587 17.6199C12.963 17.5785 13.0024 17.5456 13.0503 17.5494C13.0993 17.5513 13.1343 17.5889 13.1323 17.6303C13.128 17.6717 13.0875 17.7037 13.0407 17.7008Z" fill="white"/>
<path d="M16 21C16.1577 20.9967 16.3312 20.995 16.5221 20.995C16.5221 20.995 16.9747 20.2964 17 20.2739C16.7461 20.2148 16.2193 20.0674 16.0158 20C16.1499 20.1057 16.4763 20.2273 16.4117 20.3206L16 21Z" fill="white"/>
<path d="M19 16H10V19.3082C10 20.6607 11.0018 21.5077 12.48 21.5077C13.7155 21.5077 14.0411 21.5543 14.5006 22C14.8171 21.6918 15.0792 21.5765 15.6169 21.5332L15.6294 21.4823L15.913 20.6253C15.8971 20.6064 15.4332 20.0909 15.4332 20.0909C15.2494 20.1508 15.0951 20.1607 14.8353 20.1607C14.5686 20.1607 14.268 20.1308 13.9424 20.071C13.9095 20.0632 13.8789 20.061 13.8482 20.061C13.8085 20.061 13.8051 20.0643 13.7949 20.0832L13.7382 20.1741L13.6349 20.3404L13.441 20.2971L12.5776 20.0987L12.4596 20.2893L12.4778 20.3093L12.5833 20.4224L12.5368 20.5699C12.4732 20.7628 12.2667 20.9878 12.2044 21.0499L11.9888 21.276L11.7925 21.0332L11.645 20.8526C11.4896 20.6829 11.4533 20.4224 11.5407 20.1497C11.5384 20.1519 11.535 20.153 11.5316 20.153L11.2877 20.2517L11.1776 20.0189L11.1005 19.8536C10.9677 19.5632 11.0165 19.1386 11.3739 18.8825L12.0694 18.4989L12.7308 18.6264C12.7467 18.5643 12.7705 18.3426 12.7897 18.286C12.7773 18.285 12.7648 18.2816 12.7523 18.2816L12.3711 18.4201L12.0035 18.1719C12.0035 18.1719 11.8595 18.0366 11.9899 17.9014L12.3462 17.3747L11.4443 16.2683L12.8306 16.8249L12.9225 16.7129L13.1097 16.4945L13.3218 16.6918C13.382 16.7483 13.416 16.8182 13.433 16.888C13.8153 17.0333 14.4995 17.4623 14.5596 18.1597L14.3451 18.2439V18.2495C14.394 18.306 14.4348 18.3293 14.4473 18.3315L15.4365 18.4268C15.4615 18.4224 15.4933 18.4113 15.5284 18.4013C15.651 18.3603 15.8359 18.3015 16.0549 18.3015C16.233 18.3015 16.4054 18.3415 16.571 18.4169C16.6323 18.3947 16.7072 18.3781 16.7934 18.3725L16.8411 18.3714C17.3708 18.3714 17.634 18.7583 17.8451 19.0665C17.8803 19.1197 17.9154 19.1707 17.9517 19.2206C18.1366 19.4756 18.3783 19.8493 18.3885 19.8648L18.4974 20.031L18.3636 20.1829C18.2604 20.2993 18.106 20.4357 17.8405 20.4357C17.7861 20.4357 17.726 20.4301 17.6613 20.418C17.6046 20.4079 17.5536 20.3914 17.5036 20.3714C17.4956 20.4224 17.4854 20.4834 17.4752 20.5355L17.3016 21.4201C18.3397 21.1707 18.9989 20.4047 18.9989 19.3093L19 16Z" fill="#FFDD2D"/>
<path d="M10.241 16H17C16.6625 15.6525 16.6669 15.2121 16.7535 14.9257C16.6549 14.8787 16.5738 14.8219 16.5015 14.7607C16.2374 14.9552 15.431 15.541 15.2207 15.6875L15.1758 15.7181L12.5232 15.2394H12.4695C12.406 15.2394 12.3129 15.2372 12.211 15.2252C12.1825 15.3443 12.0795 15.4263 11.9612 15.4263C11.948 15.4263 11.9327 15.4252 11.9184 15.4219C11.8494 15.4098 11.7891 15.3749 11.7486 15.317C11.707 15.2602 11.6906 15.1924 11.7026 15.1224L11.7125 15.0656C11.4386 14.8732 11.1866 14.4437 11.2983 13.9912L11.3093 13.9432L11.3476 13.9159C11.3531 13.9115 11.3991 13.8809 11.4671 13.8415L11.2742 13.812C11.2019 13.7989 11.1537 13.7322 11.1647 13.6612C11.1767 13.5891 11.2447 13.5377 11.3159 13.5519L11.7749 13.6241L11.8166 12.0109L12.5002 11.2896L12.9264 12.1847L12.4761 13.7366L12.8815 13.8C12.9527 13.8109 13.002 13.8776 12.9911 13.9508C12.9801 14.0153 12.9253 14.0601 12.8607 14.0601C12.8541 14.0601 12.8464 14.0601 12.8399 14.0591L12.51 14.0055C12.5145 14.0153 12.521 14.0207 12.5254 14.0317C12.5605 14.1038 12.6383 14.1563 12.6843 14.1781L14.7068 14.2099C14.7923 14.1268 15.0048 13.9191 15.2229 13.6995C14.7254 13.5115 14.5447 13.083 14.514 12.7989C14.2357 12.6809 14.044 12.5038 13.9377 12.2732C13.8084 11.9879 13.8545 11.7027 13.8884 11.5639C13.6189 11.4656 13.3351 11.2863 13.0459 11H10C10.1304 11.3497 10.241 11.7289 10.241 12.106V16Z" fill="#FFDD2D"/>
<path d="M19.432 23.4741L18.9201 23.2522L19.0612 22.6534L19.217 22C19.217 22 18.3096 22.557 17.0315 22.9756C16.6685 23.0936 16.3941 23.1469 16.3941 23.1469V23.5909C16.3941 23.5909 15.7107 23.7253 15.0196 23.7253H15.0118H15.0017H14.9882H14.9804C14.2892 23.7253 13.6059 23.5909 13.6059 23.5909V23.1469C13.6059 23.1469 13.3304 23.0936 12.9686 22.9756C11.6904 22.557 10.7841 22 10.7841 22L10.9376 22.6534L11.0821 23.2522L10.5691 23.4741L10 23.7152C10.6531 24.0717 11.5571 24.5918 12.3849 24.8481L12.19 25.452C12.19 25.452 13.2396 25.9937 14.9882 25.9987V26H14.9938H15.0017H15.0084H15.0129V25.9987C16.7637 25.9937 17.8122 25.452 17.8122 25.452L17.6162 24.8481C18.4441 24.5918 19.3503 24.0717 20 23.7152L19.432 23.4741ZM10.6072 23.7558L11.4496 23.4386L11.2009 22.5189C11.5717 22.7574 12.404 23.1152 12.8856 23.2813L12.479 24.5461C11.7352 24.314 11.1158 24.0438 10.6072 23.7558ZM15.0017 25.6816C14.0238 25.6816 12.9069 25.4266 12.5787 25.2947L13.0783 23.7634C13.4928 23.9004 14.3553 24.0464 14.9815 24.0413H14.9827H15.0017H15.0185H15.0207C15.6469 24.0464 16.5072 23.9004 16.924 23.7634L17.4224 25.2947C17.0942 25.4279 15.9785 25.6816 15.0017 25.6816ZM17.5221 24.5461L17.1166 23.2813C17.5994 23.1152 18.4295 22.7574 18.8013 22.5189L18.5538 23.4386L19.3951 23.7558C18.8854 24.0438 18.2693 24.314 17.5221 24.5461Z" fill="black"/>
<path d="M14.9988 2.48336C16.0625 2.48336 16.9135 2.73317 17.3835 3C17.3835 3 17.523 2.40388 18 1.87753L17.1434 1.94646L16.695 1.27087L15.8338 1.58556L14.9988 1L14.1662 1.58556L13.3038 1.27087L12.8566 1.94646L12 1.87753C12.4769 2.40388 12.6165 3 12.6165 3C13.0877 2.73317 13.9363 2.48336 14.9988 2.48336ZM12.8178 2.1833L13.0557 2.20115L13.1586 2.04783L13.4583 1.59365L14.0141 1.79722L14.2291 1.87511L14.4007 1.75507L15 1.33333L15.6005 1.75507L15.772 1.87511L15.987 1.79722L16.5394 1.59365L16.8426 2.04783L16.9432 2.20115L17.1811 2.1833L17.4075 2.16383C17.3035 2.33008 17.2269 2.48741 17.172 2.618C16.5726 2.38116 15.7926 2.24656 14.9977 2.24656C14.2062 2.24656 13.4274 2.38116 12.8258 2.618C12.7697 2.48741 12.6942 2.32929 12.5902 2.16383L12.8178 2.1833Z" fill="black"/>
<path d="M26.1001 13.4797C27.4017 13.4797 27.8366 12.1836 27.855 12.1285L28 11.6721L27.512 11.6869H27.5099C27.3378 11.6869 25.9021 11.6498 24.884 10.3833L24.7877 10.2658C24.1223 9.43771 23.4916 8.65092 22.3642 8.29193C22.3966 8.26334 22.4432 8.22732 22.507 8.18706C23.1053 7.80162 23.4537 7.33357 23.5413 6.79034C23.669 5.97277 23.1367 5.32153 23.1129 5.29507L22.7504 4.85668L22.5244 5.37662C22.5092 5.40946 22.1284 6.24182 21.3277 6.24182H21.2682C21.213 6.23858 21.1611 6.23648 21.1092 6.23229C21.1373 5.86057 21.068 5.28554 20.5358 4.74654C19.8963 4.0974 19.1109 4 18.6997 4C18.4801 4 18.334 4.02645 18.3189 4.02858L17.7714 4.13447L18.109 4.5697C18.3741 4.90541 18.6143 5.52488 18.3297 5.84895C18.2388 5.95162 18.0517 6.03528 17.8721 6.11895C17.5031 6.28517 17 6.51606 17 7.10478C17 7.48603 17.3019 7.88424 17.8494 8.22308C19.47 9.22065 20.4698 10.2616 20.9015 11.4105C21.569 13.1779 20.698 14.186 19.852 14.7166L19.4722 14.9558L19.8043 15.2545C19.8487 15.2926 20.2555 15.6431 20.856 15.694C20.9696 15.7014 21.0789 15.7078 21.1806 15.7078C21.5657 15.7078 21.8936 15.6484 22.1597 15.569C22.0862 15.695 21.9963 15.8231 21.8827 15.9524C21.3991 16.5009 20.8041 16.7508 19.9482 16.7635L19.6302 16.7688L19.6053 17.0812C19.602 17.1436 19.5782 17.7229 20.1387 18.2153C20.2242 18.2916 20.328 18.3541 20.4362 18.406C20.0565 18.7406 19.6702 19.323 19.5956 20.3216C19.5328 21.1549 19.3295 21.4631 19.3272 21.4664L18.9756 21.9916L19.6107 22C20.6601 22 21.464 21.7162 22.0212 21.1549C22.3501 20.8225 22.5384 20.4476 22.6498 20.1151C22.8327 20.2676 23.0686 20.401 23.3758 20.472C23.4927 20.4984 23.6203 20.5133 23.7577 20.5133C24.0542 20.5133 24.3019 20.4518 24.33 20.4455L24.7358 20.3396L24.5562 19.969C24.5432 19.9393 24.2046 19.1959 24.5692 18.1349C24.726 17.6763 24.8061 17.2655 24.8451 16.9456C25.1004 17.0759 25.4423 17.1839 25.8848 17.185C26.8888 17.185 27.3314 16.4511 27.3519 16.4204L27.5499 16.0837L27.1831 15.9354C25.9865 15.4493 25.7214 14.1437 25.6684 13.4363C25.7766 13.4564 25.8999 13.4755 26.0395 13.4797H26.1001ZM27.049 16.2478C27.049 16.2478 26.6984 16.844 25.8945 16.844H25.8848C24.9197 16.8387 24.5302 16.2626 24.5302 16.2626C24.5302 16.2626 24.5865 17.0124 24.2381 18.0237C23.8194 19.2425 24.2413 20.114 24.2413 20.114C24.2413 20.114 24.0163 20.1733 23.7566 20.1733C23.6572 20.1733 23.5533 20.1638 23.4559 20.1384C22.6498 19.951 22.4486 19.233 22.4486 19.233C22.4486 19.233 22.5233 21.6591 19.6334 21.6591H19.6107C19.6107 21.6591 19.8649 21.3202 19.9407 20.3449C20.0781 18.5447 21.3234 18.2979 21.3234 18.2979C21.3234 18.2979 20.6591 18.2164 20.3713 17.9633C19.9212 17.5641 19.9526 17.1024 19.9526 17.1024C20.9696 17.0886 21.635 16.7498 22.1424 16.1747C22.6921 15.5521 22.7829 14.8818 22.7829 14.8818C22.7829 14.8818 22.2365 15.3668 21.1795 15.3668C21.0864 15.3668 20.9869 15.3625 20.8852 15.353C20.3854 15.3138 20.0392 15.0025 20.0392 15.0025C21.1395 14.312 21.9119 13.107 21.2271 11.2919C20.6786 9.83796 19.3608 8.7515 18.0343 7.93288C17.5929 7.66294 17.3473 7.36321 17.3473 7.10478C17.3473 6.497 18.2302 6.47794 18.5926 6.06916C19.0103 5.59479 18.7484 4.82488 18.386 4.36216C18.386 4.36216 18.5082 4.33777 18.7008 4.33777C19.0827 4.33777 19.7438 4.43202 20.2869 4.98267C21.0086 5.71335 20.7089 6.50862 20.7089 6.50862L20.9025 6.54569C21.0183 6.57003 21.133 6.57427 21.252 6.57956C21.278 6.57956 21.3039 6.58066 21.3299 6.58066C22.3782 6.58066 22.8467 5.50795 22.8467 5.50795C22.8467 5.50795 23.9611 6.84961 22.3209 7.90005C22.0385 8.0801 21.9142 8.24638 21.9466 8.42428L21.9725 8.54077L22.0894 8.56087C23.2784 8.87641 23.88 9.67917 24.6146 10.592C25.7301 11.9803 27.3086 12.0247 27.5034 12.0247H27.5239C27.5239 12.0247 27.1637 13.1377 26.1023 13.1377C26.0849 13.1377 26.0698 13.1377 26.0514 13.1366C25.5634 13.1197 25.3136 12.9365 25.3136 12.9365C25.3136 12.9365 25.122 15.4641 27.049 16.2478Z" fill="black"/>
<path d="M24.4695 8.00937C24.9258 8.31479 25.191 8.72362 25.4238 9.08646C25.6524 9.44039 25.8699 9.7815 26.2093 9.92331C26.3303 9.97574 26.4583 10 26.5884 10C27.0986 10 27.6107 9.60772 27.8049 9.06473L28 8.52047L27.5274 8.48465C27.5051 8.48339 26.8973 8.41441 26.2205 7.54432C25.942 7.18786 25.6057 7 25.2429 7C24.7998 7 24.4715 7.27857 24.435 7.30662L24 7.69125L24.4695 8.00937ZM25.2439 7.41142C25.4715 7.41142 25.7368 7.50857 25.9878 7.83433C26.7754 8.83991 27.5081 8.89607 27.5081 8.89607C27.3749 9.26661 26.9888 9.59244 26.5894 9.59244C26.4969 9.59244 26.4044 9.5745 26.312 9.53489C25.7703 9.30489 25.5762 8.28276 24.624 7.64653C24.624 7.64653 24.8902 7.41142 25.2439 7.41142Z" fill="black"/>
<path d="M24.5645 12.776V12.7931C24.2707 10.4673 22.549 8.78757 20.6336 7.76563C20.4561 7.67271 20.2929 7.59373 20.134 7.51792C20.7174 7.6065 21.6565 7.61722 22.3814 7C22.3814 7 21.2724 7.8009 19 7.0737C19.629 7.4741 20.8512 8.03905 21.9668 8.95414C24.7561 11.359 22.7601 13.705 22.7601 13.705C23.7624 12.6788 23.8038 11.5789 23.5088 10.6809C24.0367 11.5426 24.3741 12.5891 24.3218 13.8791C24.2446 15.7275 23.2096 17.3261 22.1202 18.6107C21.5967 19.2343 21.4792 20 21.4792 20C21.4792 20 21.6903 19.324 22.2964 18.6289C23.4643 17.2877 24.4622 15.8941 24.5928 13.8865C24.7137 14.2507 25.211 15.2641 26 15.6453C26.0022 15.6464 25.0107 15.0601 24.5645 12.776Z" fill="black"/>
<path d="M9.67429 21.4673C9.67318 21.4641 9.47202 21.1559 9.40714 20.3225C9.33135 19.3238 8.94627 18.7414 8.56554 18.4068C8.67587 18.356 8.77753 18.2935 8.86299 18.2162C9.42228 17.7237 9.39847 17.1444 9.39523 17.082L9.3736 16.7696L9.0534 16.7643C8.19991 16.7505 7.60389 16.5006 7.12033 15.953C7.00787 15.8238 6.917 15.6957 6.84339 15.5697C7.10954 15.6491 7.43516 15.7084 7.8213 15.7084C7.92515 15.7084 8.03223 15.702 8.1458 15.6947C8.74618 15.6438 9.15294 15.2943 9.19833 15.2551L9.53043 14.9565L9.15077 14.7172C8.30162 14.1856 7.43404 13.1774 8.10037 11.4109C8.53201 10.2619 9.53043 9.22094 11.153 8.22332C11.7003 7.88446 12 7.48623 12 7.10496C12 6.5162 11.4981 6.2843 11.1292 6.11906C10.9497 6.0354 10.7625 5.95173 10.6716 5.84905C10.3861 5.526 10.6273 4.90546 10.8912 4.56974L11.2309 4.13449L10.6814 4.02858C10.6652 4.02646 10.5213 4 10.3006 4C9.88958 4 9.10639 4.09741 8.466 4.74658C7.93275 5.28671 7.86238 5.86173 7.88949 6.23242C7.83751 6.23661 7.78564 6.2387 7.73154 6.24195H7.67314C6.8705 6.24195 6.49083 5.40954 6.47569 5.3767L6.24961 4.85673L5.88392 5.29514C5.86341 5.3216 5.32904 5.97398 5.45882 6.7905C5.54539 7.33376 5.8937 7.80184 6.4919 8.1873C6.55678 8.22751 6.60222 8.26358 6.63469 8.29217C5.50856 8.65119 4.87907 9.43907 4.21375 10.2672L4.11751 10.3848C3.10069 11.6513 1.66203 11.6884 1.49005 11.6884L1 11.6736L1.14928 12.13C1.16657 12.1851 1.60035 13.4813 2.90273 13.4813L2.96549 13.4791C3.10287 13.475 3.22617 13.4569 3.33655 13.4358C3.28245 14.1421 3.01742 15.4479 1.81992 15.935L1.45434 16.0833L1.65231 16.42C1.67176 16.4508 2.11529 17.1847 3.12126 17.1847C3.56039 17.1836 3.90222 17.0756 4.15859 16.9454C4.19754 17.2652 4.27758 17.676 4.43446 18.1346C4.79898 19.1957 4.45939 19.9391 4.44637 19.9688L4.26684 20.3395L4.6735 20.4453C4.70055 20.4517 4.95044 20.5131 5.24576 20.5131C5.38421 20.5131 5.51186 20.4983 5.62654 20.4718C5.93478 20.4009 6.17276 20.2675 6.35345 20.115C6.46373 20.4475 6.65308 20.8224 6.98082 21.1549C7.539 21.7162 8.34164 22 9.39087 22L10.027 21.9915L9.67429 21.4673ZM9.36706 21.6611C6.47781 21.6611 6.55142 19.2349 6.55142 19.2349C6.55142 19.2349 6.35016 19.9529 5.54428 20.1404C5.44803 20.1658 5.34525 20.1753 5.2447 20.1753C4.98504 20.1753 4.76114 20.116 4.76114 20.116C4.76114 20.116 5.18087 19.2445 4.7622 18.0255C4.41607 17.0142 4.4723 16.2644 4.4723 16.2644C4.4723 16.2644 4.08397 16.8405 3.11802 16.8457H3.10829C2.30454 16.8457 1.95405 16.2495 1.95405 16.2495C3.87953 15.467 3.69023 12.9401 3.69023 12.9401C3.69023 12.9401 3.44039 13.1223 2.95141 13.1403C2.93414 13.1414 2.91788 13.1414 2.90061 13.1414C1.83835 13.1414 1.47921 12.0284 1.47921 12.0284H1.50082C1.69663 12.0284 3.27272 11.9839 4.38796 10.5955C5.12242 9.68264 5.72497 8.88093 6.91163 8.56433L7.03062 8.54422L7.0565 8.42773C7.08903 8.24981 6.96568 8.08353 6.68337 7.90352C5.04344 6.85191 6.15762 5.51119 6.15762 5.51119C6.15762 5.51119 6.62385 6.5829 7.67425 6.5829C7.70013 6.5829 7.72394 6.58185 7.75099 6.58185C7.86892 6.57547 7.98579 6.57128 8.10037 6.54688L8.29402 6.50981C8.29402 6.50981 7.9944 5.7145 8.717 4.98381C9.26003 4.43204 9.92094 4.33888 10.3017 4.33888C10.4953 4.33888 10.6154 4.36322 10.6154 4.36322C10.2541 4.82706 9.99236 5.59591 10.4099 6.07037C10.7711 6.47808 11.6528 6.49819 11.6528 7.10606C11.6528 7.3634 11.4072 7.66414 10.9659 7.9342C9.63858 8.75287 8.32107 9.83939 7.77369 11.2934C7.09009 13.1086 7.86138 14.3126 8.96364 15.0042C8.96364 15.0042 8.61746 15.3155 8.11663 15.3547C8.01496 15.3642 7.91654 15.3684 7.8213 15.3684C6.76554 15.3684 6.21932 14.8834 6.21932 14.8834C6.21932 14.8834 6.31014 15.5538 6.85641 16.1765C7.36703 16.7515 8.03223 17.0904 9.0491 17.1042C9.0491 17.1042 9.08152 17.5659 8.63155 17.9652C8.3427 18.2172 7.67856 18.2998 7.67856 18.2998C7.67856 18.2998 8.92469 18.5465 9.06095 20.3469C9.13562 21.3222 9.38763 21.6611 9.38763 21.6611H9.36706Z" fill="black"/>
<path d="M2.76238 10C2.92626 10 3.08638 9.97573 3.23764 9.92328C3.66452 9.78141 3.93521 9.44009 4.22113 9.08607C4.51335 8.72308 4.84247 8.31402 5.41299 8.00853L6 7.69148L5.45495 7.30681C5.40919 7.27743 5.00004 7 4.4473 7C3.99239 7 3.57057 7.18668 3.2236 7.54455C2.37739 8.41374 1.61884 8.48407 1.59081 8.48534L1 8.51978L1.24267 9.0656C1.48662 9.60629 2.12575 10 2.76238 10ZM3.51464 7.83342C3.82977 7.50752 4.16138 7.41033 4.4473 7.41033C4.88692 7.41033 5.21991 7.64548 5.21991 7.64548C4.03047 8.28337 3.78651 9.3046 3.10673 9.53476C2.99493 9.57432 2.878 9.59227 2.76238 9.59227C2.26303 9.59227 1.78015 9.26757 1.61497 8.8956C1.61497 8.89434 2.52984 8.83809 3.51464 7.83342Z" fill="black"/>
<path d="M4.67929 13.8797C4.6248 12.5896 4.96224 11.543 5.4911 10.6812C5.19622 11.5793 5.23648 12.6793 6.23993 13.7056C6.23993 13.7056 4.24395 11.3594 7.03437 8.95431C8.151 8.03914 9.37207 7.47414 10 7.07371C7.72876 7.80096 6.61977 7 6.61977 7C7.34454 7.61728 8.28377 7.60656 8.86711 7.51685C8.70932 7.59267 8.54389 7.67176 8.36862 7.76464C6.45102 8.78667 4.7304 10.4666 4.43552 12.7925V12.7743C3.99034 15.0587 3 15.645 3 15.645C3.78797 15.2637 4.28421 14.2513 4.40505 13.8861C4.53669 15.8938 5.53468 17.2874 6.70243 18.6288C7.30861 19.3241 7.52195 20 7.52195 20C7.52195 20 7.4033 19.2344 6.87765 18.6106C5.79042 17.328 4.75543 15.7283 4.67929 13.8797Z" fill="black"/>
<path d="M14 9V9.64001C14.1184 9.37179 14.3471 9.42665 14.3471 9.42665V10.3496C14.3471 10.3496 14.3392 10.8029 14.2526 11H14.5004H14.7474C14.6624 10.8044 14.6537 10.3496 14.6537 10.3496V9.42665C14.6537 9.42665 14.8824 9.37179 15 9.64001V9H14.5004H14Z" fill="black"/>
<path d="M16.9834 4.26484C16.9834 3.59899 15.8046 3 14.5034 3H14.5023H14.4989H14.4954C13.1942 3 12.0155 3.59899 12.0155 4.26484L12.0416 4.42892L12.5611 7.26622L12.0393 7.55435L10.6892 8.30446H10.6937C10.6937 8.30446 10.3898 8.45231 10.2491 8.54403C9.73512 8.88403 9.62621 9.37935 9.92463 9.58446C9.99837 9.18075 10.3341 8.75773 10.9627 8.75773C11.4153 8.75773 11.7602 8.98007 12.0393 9.31356C12.1108 9.3977 12.1788 9.48729 12.2424 9.58446C12.3207 9.70638 12.3989 9.8132 12.4772 9.91682H9C9.25528 10.4057 9.49801 10.9237 9.49801 11.4861V18.8076C9.49801 20.5797 10.9309 21.4258 12.4806 21.4258C13.6787 21.4258 13.8397 21.3741 14.5011 22C15.1591 21.3729 15.3202 21.4258 16.5194 21.4258C18.0703 21.4258 19.5008 20.5797 19.5008 18.8076V11.4861C19.5008 10.9237 19.7437 10.4057 20 9.91682H16.5217C16.5988 9.81432 16.6771 9.70638 16.7554 9.58446C16.82 9.48729 16.887 9.3977 16.9574 9.31356C17.2387 8.97895 17.5824 8.75773 18.0351 8.75773C18.6636 8.75773 18.9982 9.17968 19.0731 9.58446C19.3715 9.37935 19.2638 8.88403 18.7464 8.54403C18.608 8.45231 18.304 8.30446 18.304 8.30446H18.3085L16.9585 7.55435L16.4389 7.26622L16.9585 4.42892L16.9834 4.26484ZM12.5271 4.5951L14.3537 5.18436V7.91377L13.0093 7.23928L12.5271 4.5951ZM12.9049 10.3928C13.2044 10.6766 13.4983 10.8526 13.7774 10.9497C13.741 11.0867 13.6934 11.3695 13.8284 11.6512C13.9384 11.8778 14.1381 12.0526 14.4251 12.1692C14.4569 12.4498 14.643 12.8718 15.1591 13.0585C14.9334 13.2754 14.7133 13.4794 14.6237 13.5625L12.5305 13.5312C12.4829 13.5085 12.4023 13.4578 12.366 13.3855C12.3615 13.3758 12.3547 13.3704 12.3513 13.3596L12.6928 13.4124C12.7007 13.4136 12.7075 13.4136 12.7143 13.4136C12.7801 13.4136 12.838 13.3704 12.8493 13.3057C12.8607 13.2333 12.8097 13.1675 12.7359 13.1567L12.3162 13.0941L12.7824 11.5627L12.3411 10.6788L11.6331 11.391L11.5901 12.984L11.1147 12.9128C11.0409 12.8988 10.9706 12.9506 10.9582 13.0207C10.9468 13.0909 10.9967 13.1567 11.0716 13.1697L11.2712 13.1988C11.1998 13.2376 11.1532 13.2678 11.1476 13.2722L11.1068 13.2992L11.0954 13.3467C10.9797 13.7934 11.2418 14.2176 11.5242 14.4075L11.514 14.4637C11.5027 14.5327 11.5186 14.5996 11.5616 14.6558C11.6025 14.713 11.666 14.7475 11.7364 14.7594C11.7511 14.7615 11.767 14.7626 11.7806 14.7626C11.9031 14.7626 12.0098 14.6817 12.0404 14.5641C12.1459 14.5759 12.2424 14.578 12.3081 14.578H12.3638L15.1104 15.0497L15.1569 15.0205C15.3759 14.8748 16.2097 14.2964 16.4831 14.1053C16.558 14.1669 16.6419 14.223 16.744 14.2694C16.6555 14.5522 16.6498 14.9871 17.0004 15.3303H10.0006V11.4871C10.0006 11.1148 9.886 10.7403 9.75101 10.395H12.9049V10.3928ZM16.2993 13.9089C16.0214 14.1032 15.3066 14.5996 15.048 14.7723L12.5521 14.346C12.5578 14.3244 12.5634 14.3039 12.5691 14.2823C12.602 14.1593 12.6349 13.991 12.6372 13.7934L14.7348 13.8259L14.7746 13.787C14.8063 13.7568 15.4711 13.1459 15.8103 12.794C15.8909 12.8901 15.9919 12.9819 16.1235 13.0628C16.0781 13.296 16.0974 13.6283 16.2993 13.9089ZM12.121 13.4978C12.18 13.6154 12.2866 13.6942 12.3604 13.7384C12.3581 13.8485 12.3468 14.0201 12.3162 14.1712C12.3093 14.2046 12.3002 14.236 12.29 14.2672C12.2843 14.2867 12.2787 14.3029 12.2741 14.3158C12.1641 14.3158 11.9474 14.3029 11.7704 14.2414C11.5742 14.1723 11.2814 13.8301 11.3495 13.4535C11.4346 13.4039 11.6309 13.2992 11.8146 13.2992C11.9565 13.2981 12.0529 13.3618 12.121 13.4978ZM11.8612 13.0239L11.9031 11.4947L12.2639 11.131L12.4908 11.5821L12.0438 13.0498L11.8612 13.0239ZM16.2766 20.9521C16.1405 20.9521 16.0146 20.9542 15.9011 20.9585L16.1983 20.079C16.2449 19.957 16.01 19.8005 15.9136 19.6634C16.0599 19.7509 16.4389 19.9418 16.6215 20.0185C16.6022 20.0466 16.2766 20.9521 16.2766 20.9521ZM17.2092 19.9527L17.0152 20.9153C16.8915 20.9315 16.7599 20.9402 16.6249 20.9455L16.8292 20.0196C16.8904 19.7444 16.1133 19.6591 15.7298 19.1184C15.5426 19.3191 15.1898 19.3785 14.8358 19.3785C14.5125 19.3785 14.1892 19.3289 13.9928 19.2921C13.943 19.2846 13.8953 19.2792 13.8488 19.2792C13.7353 19.2792 13.6321 19.3127 13.5607 19.4271L13.5039 19.5177L12.4455 19.2802L12.1822 19.6947C12.1448 19.7616 12.1425 19.8188 12.2027 19.8814L12.2741 19.9559C12.2254 20.1027 12.0053 20.3239 12.0053 20.3239L11.8476 20.1372C11.7228 20.0044 11.7432 19.7628 11.8737 19.5382L12.2934 18.8637L13.1897 18.9867L13.0501 18.6846C12.8629 18.2852 13.1477 17.7769 13.1783 17.4844C13.1681 17.5729 13.083 17.5924 12.9832 17.5924C12.8925 17.5924 12.7915 17.5762 12.7245 17.5762C12.6985 17.5762 12.6757 17.5784 12.6633 17.5869L12.4205 17.7273L12.2287 17.5665C12.2061 17.5352 12.1981 17.4628 12.2548 17.4089L12.6985 16.9362L12.1743 16.3545L12.9083 16.7053L13.1318 16.4473C13.1931 16.5045 13.167 16.6545 13.167 16.6545C13.3961 16.6599 14.0383 16.9977 14.0723 17.7855C14.0746 17.8093 14.0746 17.8363 14.0746 17.8622C14.0746 17.8622 14.0803 17.8719 14.0916 17.8881C14.137 17.9475 14.2618 18.0996 14.4206 18.1136L15.4348 18.2087H15.4393C15.5505 18.2087 15.7718 18.0845 16.0554 18.0845C16.2097 18.0845 16.3821 18.1223 16.5659 18.2324C16.5659 18.2324 16.6578 18.1633 16.8076 18.1557C16.819 18.1547 16.8314 18.1547 16.8428 18.1547C17.2977 18.1547 17.486 18.5454 17.7299 18.8701C17.9137 19.1173 18.1587 19.4843 18.1587 19.4843C18.068 19.5868 17.984 19.6429 17.8434 19.6429C17.8048 19.6429 17.7605 19.6397 17.7129 19.6311C17.2251 19.5458 17.1547 18.5917 16.8768 18.5162C16.862 18.5119 16.8462 18.5108 16.8326 18.5108C16.7429 18.5108 16.7032 18.5863 16.7032 18.5863C16.8302 18.9112 16.7565 19.0429 16.8926 19.2933C16.9948 19.4788 17.1763 19.6321 17.2511 19.7044C17.2511 19.7066 17.2307 19.8469 17.2092 19.9527ZM11.7625 19.0418L11.8089 19.1529C11.7783 19.2501 11.4266 19.3882 11.4266 19.3882L11.3507 19.2307C11.2701 19.0623 11.2871 18.7784 11.5322 18.6047L12.1017 18.2745L12.7053 18.3964C12.6939 18.5788 12.8085 18.7148 12.8085 18.7148L12.1754 18.5993L11.7965 18.8486C11.733 18.8907 11.7285 18.9695 11.7625 19.0418ZM17.3045 20.8625L17.478 20.0012C17.4871 19.9505 17.4984 19.8911 17.5064 19.8415C17.5552 19.8609 17.6074 19.8771 17.6642 19.8868C17.7288 19.8987 17.7889 19.9041 17.8434 19.9041C18.1088 19.9041 18.2631 19.7714 18.3663 19.658L18.5002 19.5102L18.3913 19.3483C18.3811 19.3321 18.1406 18.9695 17.9545 18.7212C17.9183 18.6727 17.883 18.6241 17.8479 18.5712C17.6369 18.2713 17.3725 17.8946 16.8428 17.8946L16.7951 17.8956C16.7078 17.901 16.6328 17.9172 16.5727 17.9388C16.4059 17.8643 16.2347 17.8266 16.0566 17.8266C15.8376 17.8266 15.6526 17.8838 15.5301 17.9237C15.495 17.9334 15.4632 17.9442 15.4382 17.9485L14.4478 17.8557C14.4353 17.8535 14.3945 17.8309 14.3457 17.7748V17.7704L14.5601 17.6884C14.5001 17.0096 13.8148 16.5919 13.4324 16.4505C13.4155 16.3826 13.3814 16.3146 13.3213 16.2595L13.108 16.0674L12.9208 16.2811L12.8289 16.3901L11.4425 15.8483L12.3445 16.9254L11.9883 17.438C11.8578 17.5697 12.0018 17.7014 12.0018 17.7014L12.3694 17.942L12.7506 17.8071C12.7642 17.8071 12.7756 17.8104 12.7881 17.8115C12.7699 17.8665 12.7461 18.0824 12.7302 18.1428L12.0688 18.0187L11.3733 18.3921C11.016 18.6414 10.9672 19.0547 11.0999 19.3375L11.177 19.4983L11.2871 19.7249L11.5299 19.6289C11.5333 19.6278 11.5367 19.6268 11.539 19.6246C11.4516 19.8901 11.4868 20.1426 11.6433 20.3088L11.7908 20.4858L11.9871 20.7222L12.2027 20.502C12.2662 20.4416 12.4715 20.2224 12.535 20.0347L12.5816 19.8911L12.4761 19.7811L12.4591 19.7616L12.577 19.576L13.4404 19.7692L13.6343 19.8113L13.7376 19.6494L13.7944 19.5609C13.8046 19.5426 13.808 19.5393 13.8476 19.5393C13.8783 19.5393 13.909 19.5426 13.9418 19.5491C14.2674 19.6073 14.5681 19.6365 14.8347 19.6365C15.0933 19.6365 15.2476 19.6268 15.4326 19.5685C15.4326 19.5685 15.8966 20.0692 15.9124 20.0887L15.6288 20.9218L15.6163 20.9725C15.0786 21.0135 14.8165 21.1258 14.5001 21.4269C14.0405 20.9931 13.7149 20.9477 12.4795 20.9477C11.0012 20.9477 9.99943 20.1232 9.99943 18.8065V15.5871H18.9982L19.0006 18.8065C19.0017 19.8749 18.3425 20.6196 17.3045 20.8625ZM19.2502 10.3928C19.1128 10.7382 18.9982 11.1126 18.9982 11.485L18.9994 13.8873C18.4719 13.8031 18.4095 13.2625 18.4072 13.2387L18.397 13.1286L18.2836 13.1189C18.0544 13.0984 17.9024 13.0056 17.7741 12.8869C17.5155 12.6408 17.5143 12.2415 17.5155 12.2383C17.5121 12.2587 17.2307 12.6333 17.5575 13.0423C17.6948 13.215 17.8932 13.3207 18.1508 13.3629C18.2109 13.6629 18.4458 14.0859 18.9994 14.1507V15.3271H17.4429C16.7248 14.9471 17.0288 14.278 17.0435 14.25L17.1048 14.1226L16.9676 14.073C16.1904 13.7988 16.4037 13.0607 16.415 13.0294L16.4468 12.9214L16.3413 12.874C15.6991 12.5912 15.7865 11.8282 15.7944 11.7968C15.5971 11.9491 15.5256 12.2599 15.6617 12.5642C15.588 12.6441 15.4893 12.7412 15.3815 12.847C14.7167 12.6861 14.6963 12.1044 14.6963 12.0775L14.6951 11.9879L14.6078 11.9555C14.348 11.8637 14.1699 11.7267 14.0825 11.5422C13.9838 11.3382 14.019 11.1245 14.0462 11.022C14.1222 11.0381 14.1982 11.05 14.2709 11.0554C14.3457 11.0629 14.4229 11.0673 14.5001 11.0673H14.5046H14.5103C14.5874 11.0673 14.6634 11.0629 14.7383 11.0554C15.1524 11.0166 15.6163 10.8471 16.0996 10.3917H19.2502V10.3928ZM16.8246 7.96446L17.4395 8.30446H17.4486L17.6028 8.38972C17.2557 8.48144 16.9902 8.64659 16.7678 8.86349C16.7599 8.87 16.752 8.87859 16.744 8.88616C16.693 8.93797 16.6419 8.99411 16.5943 9.05125C16.5852 9.06208 16.5761 9.07393 16.5659 9.08583C16.5183 9.14409 16.4741 9.20348 16.4309 9.26607C16.4241 9.27685 16.4161 9.28763 16.4082 9.29734C16.3572 9.36964 16.3084 9.44738 16.2596 9.5272C15.8217 10.2449 15.1228 10.6734 14.5011 10.6744C13.8806 10.6734 13.1818 10.2449 12.7438 9.5272C12.6961 9.44957 12.6485 9.37396 12.5975 9.30054C12.5872 9.28656 12.5782 9.27253 12.5691 9.26068C12.526 9.20129 12.4829 9.14303 12.4386 9.08796C12.4273 9.07286 12.4171 9.06102 12.4057 9.04805C12.3581 8.99299 12.3093 8.93797 12.2605 8.88723C12.2503 8.87971 12.2435 8.87 12.2333 8.8613C12.0098 8.6444 11.7455 8.48032 11.3972 8.38972L11.5537 8.30446H11.5605L12.1754 7.96446L12.8074 7.62025L14.4954 8.49436L14.4989 8.49116L14.5034 8.49436L16.1915 7.62025L16.8246 7.96446ZM15.9919 7.24029L14.6463 7.91479V5.18436L16.4717 4.5951L15.9919 7.24029ZM14.5001 4.88436L12.4987 4.13211C12.669 3.74897 13.454 3.42304 14.5001 3.42198C15.5471 3.42304 16.3322 3.74897 16.5013 4.13211L14.5001 4.88436Z" fill="black"/>
</svg>
