<svg width="39" height="39" viewBox="0 0 39 39" fill="none" xmlns="http://www.w3.org/2000/svg">
<path d="M13 38L0.5 29.5L2 26.5L4.5 22.5L7.5 18L8.5 16.5V15.5L7.5 14.5V12.5L8.5 10.5L11.5 7.5L14.5 4.5L17 2L21 0.5L25.5 1L28 3L30 5L32 5.5H36L38 6L38.5 9L37.5 11.5L36 12.5L26 14L25 16L23.5 17.5L22.5 16L20.5 17.5L18 20.5L16 23L14.5 25.5L13.5 29L13 33V38Z" fill="#0CFAB2"/>
<path d="M26 38H13V33.5L13.5 30L14.5 26C14.9248 23.0715 20.3144 18.0402 22.4718 16.0264L22.5 16V20.5L26.5 21L28.5 22L30 24L30.5 26.5L31.5 27H33L34 27.5L34.5 28.5L34 31L32.5 33.5L25.5 34.5L25 36L26 38Z" fill="#3B0CFA"/>
<path fill-rule="evenodd" clip-rule="evenodd" d="M21.1377 0.0460825C20.9282 0.0836352 20.5169 0.165368 20.2236 0.2276C19.9304 0.289909 19.4208 0.377582 19.0912 0.422448C18.3117 0.528555 17.7003 0.824559 16.9833 1.44285C15.962 2.32362 7.80998 10.5764 7.54779 10.9949C6.5843 12.5331 6.66298 14.5993 7.73868 16.0086L7.99805 16.3483L7.53264 16.8999C5.94004 18.7876 4.10269 21.4955 2.66708 24.0709C1.57798 26.0247 0 29.3864 0 29.7528C0 29.9883 0.333861 30.2865 0.597492 30.2865C0.720434 30.2865 0.891668 30.2264 0.978047 30.1532C1.06435 30.0798 1.34497 29.54 1.60151 28.9535C3.29352 25.0858 5.7998 20.946 8.32041 17.8553L8.92293 17.1165L9.37805 17.3478C9.62835 17.475 10.1486 17.6442 10.5343 17.7237C12.714 18.1736 14.9388 17.5062 16.4609 15.9459C17.6988 14.6769 19.5158 11.5422 20.2622 9.38826C20.465 8.8028 20.4818 8.69487 20.3968 8.51815C20.2549 8.2229 19.9434 8.06911 19.6766 8.16258C19.4311 8.2485 19.3295 8.42925 18.8862 9.56772C18.1496 11.4593 16.5317 14.1363 15.4972 15.1752C14.3084 16.3691 12.4802 16.8966 10.7796 16.5364C10.0535 16.3826 9.4805 16.0864 9.02195 15.6278C8.30152 14.9074 7.96095 13.857 8.12921 12.8746C8.31172 11.8092 8.20386 11.9354 13.3212 6.80314C17.3945 2.71812 18.0751 2.06654 18.4717 1.87207C19.4129 1.41078 20.4017 1.51391 21.266 2.16366C21.8176 2.57834 22.1002 2.61368 22.3685 2.30176C22.6095 2.0216 22.5929 1.77968 22.3104 1.45808L22.0741 1.18881H22.6051C24.4248 1.18881 26.3217 1.98077 27.6138 3.27996C27.8241 3.49141 28.424 4.2107 28.9468 4.87843C29.6655 5.79615 29.9532 6.10807 30.126 6.15682C30.2517 6.19224 30.98 6.19841 31.7446 6.17053L33.1348 6.11972L33.1366 6.49167C33.1404 7.27944 33.4005 7.83252 33.8988 8.11261C34.0483 8.19663 34.7858 8.45736 35.5379 8.6922C36.29 8.92696 37.0722 9.17269 37.2762 9.23828L37.647 9.35748L37.6131 9.97676C37.5633 10.8824 37.2098 11.4559 36.5244 11.7432C36.3987 11.7959 33.9345 12.2047 31.0483 12.6517C26.0797 13.4211 25.7745 13.4598 25.3086 13.3787C24.31 13.2048 23.4167 12.7578 22.5163 11.9815C22.1747 11.6869 22.0073 11.5939 21.8188 11.5939C21.3696 11.5939 21.1033 11.9825 21.2718 12.3922C21.5012 12.9496 23.4984 14.2129 24.5273 14.4513C24.7578 14.5048 24.9556 14.554 24.967 14.5607C24.9784 14.5674 24.7384 14.9508 24.4338 15.4126C24.1291 15.8744 23.8042 16.385 23.7118 16.5472L23.5439 16.8421L23.5405 16.3773C23.5363 15.8095 23.3289 15.4525 22.9107 15.2933C22.4064 15.1013 22.2014 15.2021 20.9733 16.2453C17.3029 19.363 15.0021 22.703 13.6394 26.8916C12.7519 29.6197 12.4542 32.0105 12.5954 35.2757C12.6454 36.4316 12.6394 37.0831 12.5737 37.6243C12.4943 38.2794 12.4979 38.3962 12.6028 38.5562C12.8206 38.8887 13.3791 38.8959 13.5905 38.5689C13.7937 38.2547 13.8825 37.1899 13.8238 35.7708C13.7121 33.0672 13.7791 31.7859 14.1327 29.8635C14.8598 25.911 16.8609 22.0318 19.6868 19.0972C20.3451 18.4136 22.2516 16.7119 22.3024 16.7627C22.3157 16.776 22.2893 17.5706 22.2439 18.5283C22.1365 20.7859 22.0946 20.9375 21.3783 21.6512C20.8661 22.1616 20.8006 22.2019 20.2998 22.3143C19.7079 22.4472 19.5 22.6218 19.5 22.9859C19.5 23.2755 19.8032 23.5837 20.0869 23.5824C20.4158 23.5811 21.0742 23.3858 21.5331 23.1537C22.0202 22.9072 22.749 22.1618 22.9589 21.6952C23.0923 21.3985 23.1236 21.375 23.3397 21.4093C23.4692 21.4299 24.2093 21.4849 24.9844 21.5317C26.6842 21.6342 27.2745 21.7443 27.8981 22.0751C29.0299 22.6755 29.7009 23.7085 29.8991 25.1556C30.1234 26.7943 30.2234 27.0344 30.793 27.3025C31.0368 27.4173 31.359 27.4677 32.1053 27.5082C33.1679 27.5657 33.3772 27.6148 33.659 27.8731C33.8796 28.0754 34.121 28.5788 34.1233 28.8414C34.1252 29.0629 33.3621 31.678 33.2124 31.9629C32.9784 32.4084 32.6482 32.7288 32.1974 32.9481C31.7516 33.1649 31.5825 33.1927 29.1357 33.45C27.7113 33.5999 26.3736 33.7708 26.163 33.8298C25.326 34.0643 24.758 34.8526 24.7566 35.7814C24.7559 36.2584 24.7886 36.3533 25.3327 37.4529C25.65 38.094 25.9671 38.6623 26.0373 38.7157C26.3789 38.9755 26.9649 38.6691 26.9648 38.2308C26.9648 38.1137 26.742 37.5603 26.4696 37.0009C25.8856 35.8012 25.8539 35.5707 26.2222 35.2055L26.4697 34.9601L28.4883 34.7495C32.5125 34.3297 32.7146 34.2781 33.5826 33.4502C34.1811 32.8793 34.3497 32.537 34.8611 30.8542C35.2248 29.6575 35.3003 29.3128 35.3023 28.8392C35.3063 27.8657 34.8408 27.0991 33.9607 26.63C33.5183 26.3942 33.4128 26.3721 32.395 26.3015C31.3791 26.2311 31.3013 26.2148 31.2698 26.0662C31.2513 25.9784 31.1826 25.5244 31.1174 25.0571C30.911 23.5782 30.557 22.8241 29.6361 21.9011C28.5101 20.7727 27.765 20.5069 25.2238 20.3275C23.8955 20.2337 23.4347 20.1759 23.4054 20.0995C23.349 19.9525 24.2687 18.0291 24.9656 16.8364C25.2893 16.2826 26.016 15.2472 26.3786 14.8233L26.5921 14.5737L30.7204 13.9386C36.2024 13.0953 36.6483 13.0187 37.0332 12.8531C37.5385 12.6357 38.0972 12.1477 38.3772 11.6791C38.8181 10.9416 38.8593 10.6381 38.833 8.32208C38.8107 6.35525 38.8013 6.23878 38.6404 5.9379C38.4115 5.50981 37.9803 5.16933 37.4827 5.02369C37.127 4.91964 36.6197 4.90684 33.8169 4.93114L30.5639 4.95932L29.6524 3.81674C28.258 2.06875 27.5246 1.44026 26.0812 0.756614C24.9679 0.2292 24.1089 0.0383891 22.6992 0.00533054C22.0499 -0.00982767 21.3472 0.00845358 21.1377 0.0460825ZM24.9463 4.99002C24.6072 5.13893 24.4131 5.44842 24.4131 5.83994C24.4131 6.15994 24.4486 6.24876 24.6621 6.46227C24.8764 6.67662 24.9638 6.71127 25.2891 6.71127C25.6143 6.71127 25.7017 6.67662 25.916 6.46227C26.1304 6.24792 26.165 6.16055 26.165 5.8353C26.165 5.51439 26.1295 5.42184 25.9294 5.22173C25.6779 4.97021 25.2311 4.86494 24.9463 4.99002ZM37.4453 6.39181C37.6113 6.58506 37.6289 6.67448 37.6289 7.32491C37.6289 7.72055 37.6083 8.04428 37.5831 8.04428C37.3756 8.04428 34.5224 7.08855 34.4487 6.99433C34.3464 6.86354 34.3175 6.27755 34.4088 6.18622C34.4392 6.15583 35.0935 6.14151 35.8629 6.15453L37.2615 6.17807L37.4453 6.39181ZM25.708 24.8709C25.369 25.0198 25.1748 25.3293 25.1748 25.7208C25.1748 26.0408 25.2103 26.1296 25.4238 26.3431C25.6382 26.5575 25.7255 26.5921 26.0508 26.5921C26.376 26.5921 26.4634 26.5575 26.6778 26.3431C26.8921 26.1288 26.9268 26.0414 26.9268 25.7162C26.9268 25.3952 26.8912 25.3027 26.6912 25.1026C26.4396 24.8511 25.9928 24.7458 25.708 24.8709Z" fill="black"/>
</svg>
