<svg width="39" height="39" viewBox="0 0 39 39" fill="none" xmlns="http://www.w3.org/2000/svg">
<path d="M14.5 8L10.5 12V17H23.5L14.5 8Z" fill="#0CFAB2"/>
<path d="M25.5 11L22 14.2222V17H28.5L29.5 15L25.5 11Z" fill="#0CFAB2"/>
<path d="M1 38.4998V24.9998C2.26264 24.4229 3.35527 24.8319 4 25.5L3.5 31.0003V33.0003V38.5003L1 38.4998Z" fill="#3B0CFA"/>
<path d="M18 37.9995V24.2797C19.2626 23.6933 20.3553 24.109 21 24.788L20.5 30.3779V32.4104V38L18 37.9995Z" fill="#FA0C54"/>
<path d="M35.3018 37.3048L35.3018 24.732C36.5644 24.1875 37.3553 24.1019 38 24.7324L37.5 29.923V31.8104V38H36L35.3018 37.3048Z" fill="#CBFA0C"/>
<path fill-rule="evenodd" clip-rule="evenodd" d="M7.26633 0.187002L7.07932 0.373928V10.0089V19.6438L7.26313 19.8576L7.447 20.0713H19.4953H31.5437L31.7276 19.8576L31.9114 19.6438V15.4308C31.9114 11.2839 31.9088 11.2146 31.7535 11.0171C31.5735 10.7883 31.2003 10.745 30.9547 10.9245C30.8125 11.0284 30.8054 11.1838 30.7688 14.9806L30.7307 18.9287H19.4953H8.25999L8.24064 10.0356L8.22129 1.14258H19.495H30.7688V5.13604V9.12958L30.9695 9.28741C31.2197 9.48424 31.4605 9.48835 31.6934 9.29975L31.8733 9.15418L31.8941 4.76585L31.915 0.377584L31.7262 0.188754L31.5374 0H19.4953H7.45325L7.26633 0.187002ZM9.65858 2.50689L9.47874 2.65253L9.45855 9.96008L9.43844 17.2676L9.59741 17.4697L9.75638 17.6719H19.4953H29.2343L29.3933 17.4697L29.5522 17.2676L29.5321 9.96008L29.5119 2.65253L29.3321 2.50689C29.1581 2.36605 28.9368 2.36133 22.544 2.36133C15.974 2.36133 15.9346 2.36224 15.7351 2.51923C15.4728 2.72558 15.4615 3.10416 15.7107 3.33831L15.887 3.50391H22.1472H28.4074V8.27988C28.4074 10.9848 28.3788 13.0245 28.3413 12.9835C28.3049 12.9437 27.7206 12.1691 27.0428 11.2622C25.7027 9.469 25.5445 9.32633 25.156 9.55957C25.0381 9.63041 24.2394 10.6277 23.3812 11.7758C22.5229 12.9239 21.8037 13.8633 21.7827 13.8633C21.7618 13.8633 20.2179 12.3379 18.3519 10.4736C16.4076 8.5311 14.901 7.08398 14.8228 7.08398C14.5519 7.08398 14.3245 7.28157 12.4685 9.12905L10.5832 11.0057V7.25476V3.50391H12.1863C13.7868 3.50391 13.7897 3.5036 13.9763 3.3169C14.0791 3.21407 14.1633 3.04116 14.1633 2.93262C14.1633 2.82407 14.0791 2.65116 13.9763 2.54833L13.7894 2.36133H11.8139C9.98239 2.36133 9.82524 2.37192 9.65858 2.50689ZM21.3147 4.8232C20.6362 5.07686 20.2018 5.63276 20.1286 6.34078C19.9946 7.63973 21.4182 8.63675 22.5942 8.06752C23.6586 7.55221 23.93 6.1281 23.1278 5.26751C22.7207 4.83074 21.8593 4.6196 21.3147 4.8232ZM22.1559 5.97667C22.2745 6.03799 22.3927 6.14357 22.4187 6.21144C22.5775 6.62505 22.2819 7.08398 21.8567 7.08398C21.5847 7.08398 21.2473 6.7927 21.2473 6.55787C21.2473 6.32006 21.4012 6.04081 21.5797 5.95436C21.8063 5.84459 21.9081 5.84855 22.1559 5.97667ZM18.8098 12.5303L22.8083 16.5293H16.6957H10.5832V14.6065V12.6836L12.6584 10.6075C13.7997 9.46557 14.751 8.53125 14.7725 8.53125C14.7938 8.53125 16.6106 10.3308 18.8098 12.5303ZM26.9411 13.0168L28.4074 14.9824V15.7558V16.5293H26.4067H24.4061L23.5039 15.6248L22.6016 14.7202L23.9823 12.8826C24.7417 11.8718 25.3881 11.0463 25.4189 11.048C25.4497 11.0497 26.1347 11.9357 26.9411 13.0168ZM1.58596 23.7946C0.370409 24.229 -0.28345 25.529 0.118356 26.7126C0.186073 26.9118 0.323182 27.1953 0.423044 27.3423L0.604714 27.6096V33.147V38.6843L0.805427 38.8421C0.991514 38.9885 1.10554 39 2.37038 39C3.71733 39 3.73705 38.9976 3.92162 38.813L4.10862 38.6261V36.3858C4.10862 34.2348 4.1023 34.1376 3.95072 33.9449C3.7529 33.6933 3.34523 33.6696 3.11839 33.8965C2.97419 34.0407 2.96604 34.1504 2.96604 35.9531V37.8574H2.35667H1.74729V33.0776V28.2979H2.35667H2.96604V30.1775V32.0573L3.16675 32.2151C3.43298 32.4246 3.69318 32.4146 3.92162 32.186L4.10862 31.9991V30.0913C4.10862 29.0421 4.11989 28.1836 4.13368 28.1836C4.14747 28.1836 4.43029 28.3385 4.7621 28.5277C5.8461 29.146 7.44106 29.6923 8.90745 29.9474C9.65744 30.0778 12.0484 30.0772 12.7922 29.9462C13.6756 29.7907 14.7521 29.5056 15.3924 29.2573C16.0463 29.004 17.1441 28.4666 17.4504 28.2502C17.5616 28.1717 17.6731 28.1074 17.698 28.1074C17.723 28.1074 17.7434 30.4741 17.7434 33.3667V38.6261L17.9304 38.813C18.1151 38.9978 18.1338 39 19.4953 39C20.8568 39 20.8756 38.9978 21.0603 38.813L21.2473 38.6261V33.3667C21.2473 30.4741 21.2677 28.1074 21.2927 28.1074C21.3176 28.1074 21.429 28.1717 21.5403 28.2502C21.6515 28.3289 22.0291 28.5369 22.3795 28.7125C24.9807 30.0166 27.9091 30.4005 30.7657 29.8119C31.9772 29.5623 33.62 28.9324 34.4806 28.3876C34.6579 28.2754 34.8207 28.1836 34.8424 28.1836C34.8642 28.1836 34.8821 30.5331 34.8821 33.4048V38.6261L35.0691 38.813C35.2536 38.9976 35.2734 39 36.6203 39C37.8851 39 37.9992 38.9885 38.1853 38.8421L38.386 38.6843V33.147V27.6096L38.5676 27.3423C39.5961 25.8287 38.632 23.8221 36.8203 23.7058C36.0805 23.6584 35.6113 23.8197 35.0816 24.3037C34.4066 24.9207 34.1447 25.8602 34.4188 26.6822C34.489 26.8929 34.4924 26.998 34.4313 27.0715C34.2789 27.2551 32.5667 28.0949 31.8715 28.327C30.5131 28.7806 29.7366 28.9001 28.1408 28.9017C27.0488 28.9027 26.526 28.8694 26.0108 28.7663C24.6435 28.4925 23.1718 27.9261 22.1478 27.2794L21.6504 26.9652L21.7581 26.5651C22.0289 25.5597 21.4969 24.3977 20.5406 23.9059C20.0613 23.6593 19.2035 23.6265 18.6542 23.8339C17.5807 24.2391 16.9085 25.5503 17.235 26.602L17.347 26.9628L16.9168 27.2353C16.2559 27.6538 15.1923 28.1434 14.3891 28.3987C13.0897 28.8117 12.4464 28.9031 10.8498 28.9017C9.25403 28.9001 8.47753 28.7806 7.11916 28.327C6.42402 28.0949 4.71175 27.2551 4.55933 27.0715C4.49832 26.998 4.50151 26.8928 4.57136 26.6822C4.73201 26.1973 4.68143 25.4858 4.45315 25.0193C4.20688 24.5159 3.61769 23.9727 3.14246 23.8107C2.71726 23.6658 1.96804 23.6581 1.58596 23.7946ZM2.9697 25.0036C3.67695 25.4803 3.70834 26.4802 3.03185 26.9843C2.77645 27.1747 2.20189 27.2423 1.90055 27.1176C1.5804 26.985 1.23146 26.5637 1.16991 26.2355C1.07454 25.7271 1.40551 25.0899 1.86155 24.9039C2.17157 24.7773 2.70523 24.8254 2.9697 25.0036ZM20.1055 25.0034C20.5285 25.2913 20.6765 25.5544 20.6721 26.0105C20.6606 27.2098 19.2086 27.6271 18.4781 26.6409C18.2588 26.345 18.2567 25.6837 18.474 25.3901C18.744 25.0254 19.0979 24.832 19.4953 24.832C19.7415 24.832 19.9325 24.8857 20.1055 25.0034ZM37.341 25.0262C37.4536 25.1079 37.6191 25.3228 37.7086 25.5038C37.9903 26.0729 37.8179 26.6296 37.2364 27.0288C37.0231 27.1752 36.9049 27.2011 36.5738 27.1745C35.4073 27.0809 35.0519 25.6609 36.0287 24.9969C36.245 24.85 36.3657 24.8237 36.7136 24.8481C36.9723 24.8662 37.2155 24.9352 37.341 25.0262ZM20.1047 33.0776V37.8574H19.4953H18.886V33.0776V28.2979H19.4953H20.1047V33.0776ZM37.2434 33.0776V37.8574H36.634H36.0246V33.0776V28.2979H36.634H37.2434V33.0776Z" fill="black"/>
</svg>
