<svg width="35" height="39" viewBox="0 0 35 39" fill="none" xmlns="http://www.w3.org/2000/svg">
<path d="M26.5 11.5C26.9 7.9 24.3333 5.66667 23 5C22.219 7.09524 21.5743 8.13247 20 9.5L19.5 10.5C23.5 11.7 25.1667 15.6667 25.5 17.5L27.5 17C29.1 13.8 27.5 12 26.5 11.5Z" fill="#FA0C54"/>
<path d="M6.5 16C6.5 10.8 8.16667 7.16667 9 6C11.6372 2.55969 13.2624 1.03587 17 0.5C19.0281 0.585927 19.9988 0.817289 21 2C21.9415 3.03486 22.3732 3.65409 22.5 5L22 7L19.5 10L16.5 11.5L13 13.5L10.5 16L9 18L6.5 16Z" fill="#FA0C54"/>
<path d="M0.5 10H5V17H7L10 18.5C11.2 20.9 10.1667 21.1667 9.5 21L6 19.5H5.5V21.5L6 23.5L9 26.5L10.5 28L10 29C3.6 28.2 1 24.3333 0.5 22.5V10Z" fill="#0CFAB2"/>
<path d="M34.0518 10H29.5518V17H27.5518L24.5518 18.5C23.3518 20.9 24.3851 21.1667 25.0518 21L28.5518 19.5H29.0518V21.5L28.5518 23.5L25.5518 26.5L24.0518 28L24.5518 29C30.9518 28.2 33.5518 24.3333 34.0518 22.5V10Z" fill="#0CFAB2"/>
<path fill-rule="evenodd" clip-rule="evenodd" d="M16.1664 0.0754207C15.3789 0.22586 14.6826 0.468544 13.8402 0.886042C12.9705 1.3171 12.4341 1.67175 11.431 2.47902C10.0487 3.59151 9.73246 4.07109 10.1234 4.46201C10.4216 4.76022 10.6863 4.66904 11.4064 4.02013C13.0922 2.50104 14.3166 1.75044 15.7996 1.32692C16.7097 1.06695 18.0868 1.08104 18.89 1.35846C19.2079 1.4683 19.6021 1.6374 19.766 1.73422L20.0638 1.91025L19.5306 1.95565C18.5946 2.03532 17.6806 2.38404 16.7455 3.0184C16.1508 3.42173 15.511 3.97969 15.3999 4.19183C15.2638 4.45149 15.4046 4.80333 15.6923 4.92254C15.9743 5.03931 16.1324 4.97442 16.6413 4.53277C17.2757 3.98243 18.0926 3.49386 18.7382 3.27891C19.2834 3.09731 19.4387 3.07774 20.0899 3.10866C21.1568 3.15924 21.453 3.30785 21.7442 3.93901C21.9481 4.38073 21.9678 4.49522 21.9643 5.22373C21.9609 5.92161 21.935 6.07906 21.76 6.45939C21.477 7.0744 21.1463 7.53699 20.5258 8.1859C19.1932 9.57939 17.2408 10.8806 14.2025 12.4005C13.4463 12.7788 12.5217 13.2975 12.1478 13.5533C10.9623 14.3642 9.72797 15.7156 9.16316 16.8209C9.06147 17.0199 8.94492 17.1827 8.90425 17.1827C8.84506 17.1827 8.00961 16.7302 7.38119 16.3578C7.28689 16.302 7.26221 16.0132 7.23989 14.7067C7.20211 12.4937 7.3885 11.1267 7.96642 9.37814C8.31087 8.33603 8.61289 7.67151 9.16118 6.74937C9.39716 6.35259 9.59018 5.94827 9.59018 5.85085C9.59018 5.65341 9.27787 5.2999 9.10351 5.2999C8.67588 5.2999 8.2072 5.93624 7.46148 7.52937C6.46591 9.65617 6.05611 11.7854 6.09907 14.6075L6.12436 16.2688L5.80062 16.2687L5.47689 16.2686V12.9303V9.59211L5.30063 9.42643C5.08301 9.22206 4.78967 9.21422 4.55224 9.4064L4.3724 9.55196L4.34917 13.1198C4.32525 16.7848 4.35085 17.179 4.62065 17.3051C4.69362 17.3392 5.26978 17.3856 5.90102 17.4083L7.04885 17.4493L7.67004 17.8251C8.38072 18.255 9.96228 19.4065 10.1043 19.5975C10.3408 19.9154 10.0993 20.4581 9.72142 20.4581C9.62598 20.4581 8.79479 20.1155 7.87425 19.6968C6.95372 19.278 6.1143 18.9352 6.00888 18.935C5.70884 18.9344 5.30703 19.1901 5.16078 19.4749C4.98772 19.8115 4.84017 21.8627 4.95268 22.3669C5.20725 23.5078 6.92127 25.393 9.30453 27.1534C9.88938 27.5853 10.0472 27.7412 10.0472 27.8868C10.0472 28.4018 9.06162 28.485 7.83952 28.0731C4.43898 26.927 2.13204 25.0596 1.37527 22.8408L1.17318 22.2481L1.1351 15.7624C1.09846 9.52035 1.09153 9.27074 0.951905 9.11641C0.761475 8.90603 0.350147 8.90321 0.142426 9.11093C-0.0110604 9.26441 -0.0121269 9.31758 0.0108009 15.8331L0.0339572 22.4005L0.208086 22.9677C0.582775 24.1881 1.20982 25.1717 2.25521 26.1785C3.97852 27.8383 7.33396 29.445 9.11981 29.4654C9.87651 29.4741 10.287 29.3522 10.6726 29.0043C11.4495 28.3033 11.3603 27.2907 10.462 26.6128C8.66454 25.2564 7.57558 24.2847 6.85637 23.3954C6.08894 22.4466 6.05321 22.36 6.07043 21.4864C6.07873 21.0675 6.10508 20.6004 6.12908 20.4484L6.17265 20.1721L7.67194 20.8662C9.11205 21.533 9.19248 21.5604 9.70999 21.5614C10.1717 21.5624 10.2942 21.5326 10.5663 21.3524C11.0598 21.0258 11.2951 20.6106 11.327 20.0095C11.3677 19.2451 11.0668 18.789 10.0536 18.0793C9.88519 17.9614 9.87978 17.9362 9.97423 17.7081C10.2653 17.0055 11.1607 15.8594 11.9826 15.1373C12.7103 14.4981 13.1747 14.2109 14.9256 13.3174C16.6416 12.4417 17.5677 11.9173 18.4798 11.3051C18.7817 11.1024 19.076 10.9366 19.134 10.9366C19.3065 10.9366 20.7558 11.6711 21.2632 12.0157C22.8116 13.0672 24.0685 14.8123 24.7975 16.9225L25.0816 17.7449L24.7869 17.9779C23.8702 18.7029 23.7157 18.8508 23.5487 19.1632C23.3965 19.4481 23.3701 19.5909 23.3924 20.0095C23.4244 20.6106 23.6596 21.0258 24.1531 21.3524C24.4252 21.5326 24.5477 21.5624 25.0094 21.5614C25.5269 21.5604 25.6074 21.533 27.0475 20.8662L28.5468 20.1721L28.5903 20.4484C28.6143 20.6004 28.6407 21.0675 28.649 21.4864C28.6662 22.36 28.6305 22.4466 27.863 23.3954C27.1438 24.2847 26.0549 25.2564 24.2575 26.6128C23.3592 27.2907 23.27 28.3033 24.0468 29.0043C24.7931 29.6776 26.0889 29.6326 28.0426 28.8656C29.8339 28.1621 31.3805 27.2223 32.4642 26.1785C33.5096 25.1717 34.1366 24.1881 34.5113 22.9677L34.6855 22.4005L34.7086 15.8331C34.7315 9.31758 34.7305 9.26441 34.577 9.11093C34.3693 8.90321 33.9579 8.90603 33.7675 9.11641C33.6279 9.27074 33.621 9.52035 33.5843 15.7624L33.5462 22.2481L33.3441 22.8406C32.5864 25.0626 30.285 26.9254 26.8799 28.0731C25.6578 28.485 24.6722 28.4018 24.6722 27.8868C24.6722 27.7412 24.83 27.5853 25.4149 27.1534C27.7981 25.393 29.5122 23.5078 29.7667 22.3669C29.8792 21.8627 29.7317 19.8115 29.5586 19.4749C29.4124 19.1901 29.0106 18.9344 28.7105 18.935C28.6051 18.9352 27.7657 19.278 26.8452 19.6968C25.9246 20.1155 25.0934 20.4581 24.998 20.4581C24.5918 20.4581 24.363 19.8532 24.6579 19.5584C24.8647 19.3515 25.9258 18.5574 26.6017 18.1035C27.576 17.4492 27.6875 17.4148 28.839 17.4129C30.0061 17.4109 30.1998 17.3516 30.3138 16.9607C30.3658 16.7826 30.3854 15.4471 30.3702 13.1198L30.347 9.55196L30.1672 9.4064C29.9236 9.20927 29.6103 9.22199 29.4081 9.4371C29.2433 9.6126 29.2425 9.62935 29.2425 12.941V16.2686H28.7855C28.5341 16.2686 28.3285 16.2429 28.3285 16.2115C28.3286 16.1801 28.38 15.863 28.4427 15.5069C28.7397 13.8209 28.4503 12.322 27.6604 11.4561C27.3692 11.1369 27.3589 11.1066 27.3133 10.4406C27.2082 8.90527 26.5536 7.19627 25.6944 6.21396C25.149 5.59049 24.3939 5.01578 23.6663 4.67041L23.1018 4.40244L22.9618 3.94023C22.7096 3.10744 22.273 2.42456 21.5144 1.67648C20.9295 1.09955 20.6955 0.92786 20.0961 0.635513C19.7013 0.44295 19.1555 0.229516 18.8831 0.161114C18.1958 -0.0113391 16.8438 -0.0539953 16.1664 0.0754207ZM24.3765 6.50951C25.2548 7.29926 25.8014 8.35096 26.0723 9.77301L26.1757 10.3153L25.9183 10.1926C25.6009 10.0411 25.2985 10.1254 25.1389 10.4097C24.9326 10.7774 25.0634 10.9617 25.999 11.621C26.9492 12.2907 27.1224 12.5056 27.3145 13.2532C27.4604 13.8213 27.4171 15.028 27.2193 15.9062L27.0865 16.4959L26.6003 16.7632C26.333 16.9101 26.101 17.0304 26.0847 17.0304C26.0684 17.0304 26.0135 16.9018 25.9628 16.7447C25.0618 13.9584 23.24 11.7152 20.8418 10.4394L20.1789 10.0867L20.6165 9.69288C21.9667 8.47756 22.8466 7.18835 23.0743 6.09178L23.16 5.67832L23.5404 5.88901C23.7496 6.00487 24.1258 6.28411 24.3765 6.50951ZM24.5092 22.5338C24.4454 22.5862 24.2359 22.8861 24.0436 23.2003C22.3605 25.95 18.9956 27.6533 16.281 27.1295C14.1126 26.7112 12.0549 25.3 10.7684 23.349C10.2862 22.6176 10.1773 22.5147 9.88519 22.5147C9.67968 22.5147 9.36166 22.85 9.36166 23.0667C9.36166 23.3149 10.0115 24.3429 10.6142 25.0481C11.203 25.7372 11.9033 26.3417 12.734 26.8782L13.3262 27.2606L13.3053 28.5249L13.2845 29.7892L11.5879 30.2223C10.6548 30.4606 9.7039 30.7414 9.47485 30.8463C7.82862 31.5999 6.61681 33.1416 6.32415 34.8546C6.23062 35.4022 6.08627 37.413 6.08627 38.1686C6.08627 38.6003 6.10783 38.669 6.28698 38.81L6.4877 38.9679H17.3597H28.2317L28.4433 38.8014L28.6549 38.635L28.6026 37.4494C28.4948 35.0071 28.356 34.2598 27.8215 33.2426C27.4529 32.5411 27.1901 32.2647 26.8917 32.2647C26.6109 32.2647 26.348 32.5181 26.348 32.7886C26.348 32.8935 26.4842 33.2046 26.6506 33.4801C27.1892 34.3715 27.3064 34.9019 27.4548 37.1207L27.502 37.8253H17.3609H7.21963L7.26785 37.0826C7.44274 34.387 7.68984 33.6709 8.79441 32.6587C9.49763 32.0144 10.0092 31.7996 12.0719 31.2825C13.1166 31.0206 13.9632 30.7675 14.0773 30.683C14.3855 30.4545 14.4562 30.1244 14.4609 28.8915C14.465 27.801 14.4699 27.7678 14.613 27.8443C14.6943 27.8878 15.08 28.0108 15.47 28.1176C16.5152 28.4037 17.6908 28.4455 18.7182 28.2327C19.1511 28.1432 19.6739 28.0057 19.8798 27.9275L20.2542 27.7852L20.2554 28.9776C20.2565 30.2514 20.296 30.4258 20.64 30.6811C20.7487 30.7618 21.6611 31.0404 22.6966 31.3091C23.7204 31.5748 24.7002 31.836 24.8741 31.8898C25.15 31.9751 25.2153 31.9711 25.3871 31.8585C25.6396 31.6931 25.7196 31.3835 25.5762 31.1274C25.4226 30.8532 24.9067 30.6654 23.0155 30.1952L21.3968 29.7927V28.5277V27.2628L21.9871 26.8757C22.8531 26.3079 23.534 25.7175 24.1304 25.0171C24.6831 24.3681 25.4339 23.1879 25.4339 22.9681C25.4339 22.8977 25.3629 22.7497 25.276 22.6393C25.1017 22.4175 24.7155 22.3645 24.5092 22.5338Z" fill="black"/>
</svg>
