<svg width="39" height="39" viewBox="0 0 39 39" fill="none" xmlns="http://www.w3.org/2000/svg">
<path d="M1 37.0006V28.5006C4.90498 25.9415 7.0944 26.2802 11 28.5006V37.0006C6.2 39.0006 2.33333 37.8339 1 37.0006Z" fill="#FA0C54"/>
<path d="M14 36.3531V23.6763C18.2955 19.8598 20.7038 20.3649 25 23.6763V36.3531C19.72 39.3358 15.4667 37.5959 14 36.3531Z" fill="#49EF9E"/>
<path d="M28 36.4784V17.0904C29.13 11.9715 37 12.91 38.5 16V36.4786C34 39.5006 29.4667 38.3792 28 36.4784Z" fill="#3B0CFA"/>
<path fill-rule="evenodd" clip-rule="evenodd" d="M31.8367 0.647461V1.29492H34.2931H36.7494L30.5799 7.46484L24.4103 13.6348H17.6169H10.8234L5.54339 18.2564C2.63941 20.7983 0.273364 22.9103 0.285399 22.9497C0.319067 23.0595 1.01741 23.8397 1.08307 23.8408C1.11491 23.8413 3.42863 21.8377 6.22467 19.3883L11.3084 14.9346L18.1637 14.9322L25.019 14.9297L31.3605 8.58853L37.7019 2.24737V4.70377V7.16016H38.3494H38.9969V3.58008V0H35.4168H31.8367V0.647461ZM31.6463 13.073C29.7062 13.3663 28.6162 13.7572 27.9016 14.4159C27.2443 15.0218 27.3045 13.8576 27.3045 25.9746C27.3045 36.345 27.3099 36.763 27.4465 37.0195C27.7761 37.6383 28.4361 38.0971 29.518 38.4596C30.4699 38.7785 31.3823 38.9257 32.7127 38.9749C35.1481 39.065 37.3887 38.5177 38.3799 37.5906C39.0561 36.958 39.0036 37.987 38.9798 25.8479L38.9588 15.0951L38.7271 14.7655C38.257 14.0967 37.2144 13.5661 35.7544 13.2526C35.1571 13.1244 34.6692 13.0847 33.4363 13.0643C32.5775 13.0501 31.772 13.054 31.6463 13.073ZM34.95 14.4398C36.2352 14.6296 37.4252 15.0881 37.6312 15.473C37.8327 15.8495 36.8605 16.3825 35.4149 16.6881C34.4544 16.8911 32.2699 16.9337 31.2654 16.7689C30.0334 16.5668 28.7171 16.0103 28.6502 15.6633C28.5666 15.2291 29.9271 14.6266 31.4939 14.4039C32.2735 14.293 34.0832 14.3119 34.95 14.4398ZM30.2473 17.8588C32.4803 18.4472 35.2395 18.2893 37.302 17.455L37.7019 17.2932V17.7873C37.7019 18.3774 37.6141 18.4925 36.9136 18.8202C34.7323 19.8409 30.061 19.6395 28.8224 18.4715C28.587 18.2493 28.5613 18.1843 28.5613 17.8089C28.5613 17.5799 28.5797 17.3742 28.6021 17.3517C28.6246 17.3293 28.8434 17.3919 29.0884 17.4909C29.3334 17.5898 29.8549 17.7554 30.2473 17.8588ZM37.6671 20.8472C37.6403 20.9538 37.4681 21.1113 37.2246 21.2519C35.4338 22.2853 31.4932 22.376 29.3901 21.4321C28.7562 21.1477 28.5613 20.8959 28.5613 20.3613C28.5613 19.8713 28.5207 19.8774 29.4754 20.2239C30.4515 20.5781 31.3129 20.7251 32.6863 20.7721C34.4971 20.8341 35.8871 20.6246 37.2148 20.0896L37.6639 19.9087L37.6874 20.2906C37.7003 20.5007 37.6912 20.7511 37.6671 20.8472ZM18.0764 20.8674C15.6969 21.1422 13.9927 21.9738 13.7079 22.999C13.6008 23.3846 13.6058 36.4285 13.7133 36.8155C13.8668 37.3683 14.5241 37.9388 15.4344 38.3093C18.3602 39.4999 23.3743 39.0644 24.8453 37.4919C25.0443 37.2791 25.2327 36.9874 25.2791 36.8201C25.3867 36.4329 25.3942 23.3888 25.2871 23.0039C25.0375 22.1068 23.6811 21.3358 21.7405 20.9879C20.9447 20.8452 18.8618 20.7767 18.0764 20.8674ZM21.5719 22.2742C22.7533 22.4894 23.9305 23.0076 24.0479 23.364C24.093 23.5008 23.7399 23.7986 23.2672 24.0224C21.401 24.906 17.5901 24.9019 15.7104 24.0143C15.3012 23.8211 14.9265 23.5245 14.9265 23.394C14.9265 23.2543 15.4975 22.8486 15.9168 22.6904C16.5198 22.4628 17.3854 22.256 18.0877 22.1718C18.8681 22.0782 20.8091 22.1352 21.5719 22.2742ZM37.628 23.533C37.5833 23.6164 37.4017 23.7692 37.2245 23.8725C35.4386 24.9133 31.2205 24.9541 29.2354 23.9499C28.7205 23.6895 28.5613 23.4525 28.5613 22.9467C28.5613 22.4626 28.4878 22.4702 29.5515 22.843C30.7679 23.2694 31.3246 23.3468 33.1697 23.3461C34.5034 23.3456 34.9741 23.3174 35.4753 23.2075C36.1131 23.0677 37.2729 22.7005 37.5258 22.5583C37.6514 22.4877 37.6659 22.5214 37.6865 22.931C37.699 23.1787 37.6726 23.4496 37.628 23.533ZM15.8575 25.4323C17.1102 25.87 17.6019 25.9366 19.573 25.936C21.2928 25.9355 21.396 25.9268 22.201 25.7185C22.6618 25.5992 23.2418 25.4195 23.4899 25.3191C23.7381 25.2188 23.9694 25.1367 24.0041 25.1367C24.0388 25.1367 24.0672 25.3439 24.0672 25.5972C24.0672 25.9799 24.0367 26.0882 23.8869 26.2379C22.8611 27.2637 18.7788 27.6166 16.4119 26.8842C15.7622 26.6831 15.3457 26.4769 15.1068 26.2379C14.9563 26.0874 14.9265 25.9803 14.9265 25.5883C14.9265 25.1766 14.9429 25.1239 15.0598 25.1596C15.1332 25.182 15.4921 25.3048 15.8575 25.4323ZM29.5374 25.4365C30.9067 25.8976 31.7077 26.0011 33.5379 25.9537C35.1907 25.9109 36.0345 25.763 37.1023 25.3291C37.3627 25.2233 37.6058 25.1367 37.6424 25.1367C37.6789 25.1367 37.6987 25.3681 37.6864 25.6509L37.6639 26.165L37.2951 26.4115C36.4974 26.9447 34.9478 27.2688 33.1942 27.2692C31.5457 27.2697 30.301 27.0594 29.399 26.6282C28.6704 26.2798 28.6119 26.2095 28.5756 25.6393C28.558 25.3629 28.5669 25.1367 28.5954 25.1367C28.6238 25.1367 29.0477 25.2716 29.5374 25.4365ZM4.94803 26.0205C2.94113 26.1947 1.43148 26.6688 0.626573 27.3772C-0.0263724 27.952 0.0002115 27.7351 0.0002115 32.4873C0.0002115 37.2466 -0.0302573 37.0025 0.640208 37.6182C2.15694 39.011 6.47086 39.4269 9.46221 38.4687C10.512 38.1324 11.1982 37.663 11.5249 37.0576C11.6876 36.7558 11.6892 36.7124 11.6892 32.4873V28.2217L11.4747 27.8567C10.9942 27.0393 9.58149 26.3896 7.71977 26.1298C7.09037 26.0421 5.44627 25.9772 4.94803 26.0205ZM7.80448 27.4662C9.18296 27.6905 10.3562 28.2129 10.3562 28.6025C10.3562 28.9904 9.22668 29.493 7.77942 29.749C6.3745 29.9976 3.98781 29.8706 2.76091 29.482C1.95044 29.2254 1.29178 28.8311 1.29178 28.6025C1.29178 28.3183 2.27729 27.8119 3.29548 27.5728C4.60495 27.2654 6.32111 27.2248 7.80448 27.4662ZM15.9549 28.0595C17.0824 28.4435 17.9307 28.5645 19.4969 28.5645C21.3477 28.5645 21.8215 28.478 23.9339 27.7544C24.0506 27.7145 24.0672 27.7628 24.0672 28.1416C24.0672 28.6812 23.9963 28.815 23.5817 29.058C22.0174 29.9747 18.4151 30.1606 16.2811 29.4348C15.6417 29.2173 15.1117 28.9204 15.0041 28.7194C14.9614 28.6397 14.9265 28.3797 14.9265 28.1416C14.9265 27.7628 14.9432 27.7145 15.0598 27.7544C15.1332 27.7796 15.5359 27.9168 15.9549 28.0595ZM29.1609 27.919C30.2523 28.3624 31.0684 28.5039 32.7686 28.5442C34.0276 28.5741 34.5065 28.5556 35.1299 28.4532C35.7714 28.3477 36.904 28.0273 37.5686 27.7632C37.6872 27.7161 37.7019 27.7642 37.7019 28.2003C37.7019 28.7632 37.6214 28.8739 36.9783 29.1946C36.0664 29.6494 34.7964 29.8694 33.0935 29.8673C31.0991 29.8649 29.3643 29.4506 28.7415 28.8278C28.5918 28.678 28.5613 28.5697 28.5613 28.187C28.5613 27.9338 28.5896 27.7266 28.6244 27.7266C28.659 27.7266 28.9005 27.8132 29.1609 27.919ZM2.07041 30.5812C3.37028 31.0458 4.18395 31.1768 5.78592 31.1794C7.40252 31.182 8.2008 31.0681 9.40409 30.6627C9.82303 30.5215 10.2258 30.3822 10.2991 30.353C10.4173 30.3061 10.4324 30.353 10.4324 30.7687C10.4324 31.1604 10.4027 31.2671 10.2516 31.4182C9.5038 32.166 6.98517 32.6467 4.83377 32.4522C3.30767 32.3142 1.96933 31.9124 1.46317 31.44C1.32035 31.3067 1.29178 31.1998 1.29178 30.7983C1.29178 30.5333 1.30039 30.3164 1.31082 30.3164C1.32126 30.3164 1.66312 30.4355 2.07041 30.5812ZM15.9549 30.6627C17.1382 31.0613 17.9631 31.1823 19.4969 31.1823C21.232 31.1823 22.3928 30.9654 23.9339 30.353C24.0517 30.3063 24.0672 30.3521 24.0672 30.7484C24.0672 31.0326 24.0234 31.2591 23.9474 31.3676C23.7698 31.6212 22.9924 31.9837 22.19 32.1873C20.094 32.719 17.1343 32.5321 15.6307 31.773C15.0357 31.4727 14.9265 31.3139 14.9265 30.7484C14.9265 30.3521 14.942 30.3063 15.0598 30.353C15.1332 30.3822 15.5359 30.5215 15.9549 30.6627ZM29.5896 30.6528C30.7748 31.0633 31.5791 31.1803 33.2078 31.1786C34.3565 31.1774 34.7605 31.1468 35.3935 31.0128C36.0485 30.8742 37.033 30.5764 37.5724 30.3538C37.6975 30.3022 37.7073 30.342 37.6866 30.8175C37.6643 31.3269 37.6574 31.3427 37.353 31.5745C36.6293 32.1256 34.9873 32.4751 33.1316 32.4731C31.3413 32.4713 29.9841 32.1971 29.0468 31.6478C28.6322 31.4048 28.5613 31.2711 28.5613 30.7315C28.5613 30.3528 28.578 30.3043 28.6946 30.3438C28.7679 30.3686 29.1707 30.5076 29.5896 30.6528ZM2.28636 33.2551C3.51646 33.6777 4.18944 33.775 5.86209 33.7722C7.06569 33.7703 7.494 33.7396 8.12021 33.6103C8.76455 33.4774 9.69811 33.1922 10.2991 32.9448C10.4172 32.8962 10.4324 32.9411 10.4324 33.3382C10.4324 33.6225 10.3886 33.849 10.3127 33.9574C9.98703 34.4223 8.43488 34.9119 6.83405 35.0548C4.80628 35.2356 2.41349 34.8106 1.57743 34.121C1.30054 33.8926 1.29178 33.8701 1.29178 33.3877C1.29178 32.9425 1.30587 32.896 1.42508 32.9475C1.49836 32.9791 1.88592 33.1176 2.28636 33.2551ZM15.8187 33.2215C17.0547 33.6597 17.7806 33.7697 19.4588 33.7728C20.6205 33.7749 21.144 33.7435 21.6634 33.6404C22.2378 33.5264 23.4503 33.1564 23.9339 32.9475C24.0531 32.896 24.0672 32.9425 24.0672 33.3877C24.0672 33.869 24.0579 33.8931 23.7852 34.1178C23.4321 34.4088 22.4972 34.7486 21.5535 34.9289C20.548 35.1209 18.4454 35.1209 17.4402 34.9288C16.6899 34.7854 15.793 34.4966 15.4608 34.2914C14.9838 33.9966 14.9265 33.899 14.9265 33.38C14.9265 32.9432 14.941 32.8959 15.0598 32.9448C15.1332 32.975 15.4747 33.0995 15.8187 33.2215ZM29.1426 33.1048C30.5651 33.6448 31.3794 33.7787 33.2078 33.7733C35.0738 33.7678 35.9929 33.5932 37.5686 32.9448C37.6876 32.8959 37.7019 32.9436 37.7019 33.3877C37.7019 33.8701 37.6932 33.8926 37.4163 34.121C36.5802 34.8106 34.1874 35.2356 32.1597 35.0548C30.5588 34.9119 29.0067 34.4223 28.6811 33.9574C28.5768 33.8085 28.4989 32.9062 28.5903 32.9062C28.6063 32.9062 28.8548 32.9956 29.1426 33.1048ZM2.28202 35.8474C3.58189 36.2937 4.12446 36.3725 5.86209 36.3677C7.80364 36.3625 8.6934 36.1954 10.2991 35.5346C10.4177 35.4859 10.4324 35.5323 10.4324 35.955C10.4324 36.3993 10.415 36.4466 10.1664 36.6811C9.56511 37.2482 7.63149 37.7062 5.84602 37.7045C4.03816 37.7026 2.10697 37.2376 1.50125 36.6582C1.31532 36.4803 1.29178 36.4029 1.29178 35.9688C1.29178 35.5311 1.3058 35.486 1.42508 35.5394C1.49836 35.5721 1.88402 35.7107 2.28202 35.8474ZM15.7869 35.8114C16.9785 36.2458 17.7737 36.3642 19.4969 36.3642C20.8221 36.3642 21.176 36.3388 21.8357 36.196C22.4913 36.0542 23.3925 35.7712 23.9339 35.5374C24.0531 35.4859 24.0672 35.5324 24.0672 35.9775C24.0672 36.4586 24.0578 36.483 23.7859 36.7071C23.4098 37.0171 22.7227 37.283 21.7687 37.4878C21.1087 37.6296 20.7433 37.6567 19.4969 37.6567C18.2504 37.6567 17.885 37.6296 17.225 37.4878C16.2711 37.283 15.5839 37.0171 15.2078 36.7071C14.9359 36.483 14.9265 36.4586 14.9265 35.9775C14.9265 35.5324 14.9406 35.4859 15.0598 35.5374C15.1332 35.5691 15.4604 35.6924 15.7869 35.8114ZM29.5559 35.845C30.8007 36.2726 31.4597 36.3683 33.1697 36.3697C34.8951 36.3712 35.412 36.2922 36.845 35.8079L37.7019 35.5183V35.9881C37.7019 36.4012 37.6766 36.482 37.4925 36.6582C36.8867 37.2376 34.9556 37.7026 33.1477 37.7045C31.3622 37.7062 29.4286 37.2482 28.8273 36.6811C28.5787 36.4466 28.5613 36.3993 28.5613 35.955C28.5613 35.5313 28.5758 35.486 28.6946 35.5374C28.7679 35.569 29.1555 35.7075 29.5559 35.845Z" fill="black"/>
</svg>
