<svg width="49" height="45" viewBox="0 0 49 45" fill="none" xmlns="http://www.w3.org/2000/svg">
<path d="M13 16V5.5H23V16H13Z" fill="#0CFAB2"/>
<path d="M8.5 38V16.5H17.5V38H8.5Z" fill="#FA0C54"/>
<path d="M18 38.9997V12.7309L30.5 7.5L31 38.9997H18Z" fill="#3B0CFA"/>
<path d="M1.50036 34.5C0.767292 33.2125 0.640926 32.3817 1.00036 30.8308C2.36204 30.4779 3.13079 30.4137 4.50036 30.5005C4.88154 32.0902 4.85492 33.0168 4.50036 34.5H1.50036Z" fill="#0CFAB2"/>
<path d="M34.6941 34.0319C33.961 32.7444 34.1409 32.0484 34.5003 30.4975C35.862 30.1446 36.1307 30.4131 37.5002 30.5C38.0891 32.3556 38.2843 32.8364 37.6941 34.0319C36.675 34.4821 35.9914 34.4169 34.6941 34.0319Z" fill="#0CFAB2"/>
<path d="M1.69372 30.0347C0.960652 28.7473 0.834285 27.9164 1.19372 26.3656C2.20609 25.1963 3.03433 25.2748 4.69372 26.0353C5.07489 27.625 4.35456 28.0168 4 29.5L1.69372 30.0347Z" fill="#0CFAB2"/>
<path d="M34.8871 29.5611C34.154 28.2736 34.0276 27.4428 34.3871 25.8919C35.3994 24.7227 36.2277 24.8012 37.8871 25.5616C38.5813 27.6125 38.1397 28.4136 37.1934 29.0264C36.4052 29.6832 35.8374 29.5521 34.8871 29.5611Z" fill="#0CFAB2"/>
<path fill-rule="evenodd" clip-rule="evenodd" d="M17.7559 0.168193C17.5938 0.340798 17.5903 0.390995 17.5903 2.52952V4.71459H15.1293C13.1243 4.71459 12.6409 4.73462 12.5204 4.82268C12.3768 4.92764 12.3719 5.08554 12.352 10.3071L12.3315 15.6833H10.1676H8.00371L7.84588 15.8841L7.68798 16.0848V27.0432V38.0017H5.47899H3.27001V36.6321V35.2624L3.47948 35.21C4.26245 35.0141 4.97199 34.4299 5.34333 33.6756C5.56994 33.2154 5.59325 33.1037 5.59325 32.4792C5.59325 31.8545 5.57002 31.7432 5.34272 31.2817C5.16912 30.929 4.9512 30.6452 4.63272 30.357C4.23457 29.9966 4.19321 29.9349 4.32301 29.8937C4.57064 29.815 5.17126 29.1139 5.38911 28.6492C5.56316 28.2779 5.59325 28.1125 5.59325 27.5281C5.59325 26.9338 5.56415 26.7794 5.37433 26.3686C4.84913 25.2316 3.64553 24.5763 2.40439 24.7517C0.541682 25.015 -0.531427 27.061 0.301589 28.7609C0.519669 29.2058 1.19105 29.9275 1.38696 29.9275C1.43145 29.9275 1.25762 30.1177 1.00077 30.3502C-0.0352433 31.2878 -0.282345 32.6317 0.360317 33.8342C0.685495 34.4428 1.47227 35.0497 2.14647 35.212L2.35594 35.2624V36.6321V38.0017H1.37599C0.49994 38.0017 0.374714 38.0185 0.195329 38.1596C-0.0459074 38.3493 -0.0656359 38.627 0.14696 38.8396C0.298466 38.9911 0.40084 38.9919 19.4946 38.9919C38.5884 38.9919 38.6908 38.9911 38.8423 38.8396C39.0549 38.627 39.0351 38.3493 38.7939 38.1596C38.6145 38.0185 38.4893 38.0017 37.6132 38.0017H36.6333V36.6321V35.2624L36.8428 35.212C37.517 35.0497 38.3037 34.4428 38.6289 33.8342C39.2716 32.6317 39.0245 31.2878 37.9885 30.3502C37.7316 30.1177 37.5578 29.9275 37.6023 29.9275C37.7982 29.9275 38.4696 29.2058 38.6876 28.7609C39.84 26.4094 37.4036 23.9033 34.9992 24.9669C34.4804 25.1964 33.8717 25.8128 33.6149 26.3686C33.4251 26.7794 33.396 26.9338 33.396 27.5281C33.396 28.1125 33.4261 28.2779 33.6001 28.6492C33.818 29.1139 34.4186 29.815 34.6662 29.8937C34.796 29.9349 34.7547 29.9966 34.3565 30.357C34.038 30.6452 33.8201 30.929 33.6465 31.2817C33.4192 31.7432 33.396 31.8545 33.396 32.4792C33.396 33.1037 33.4193 33.2154 33.6459 33.6756C34.0172 34.4299 34.7268 35.0141 35.5098 35.21L35.7192 35.2624V36.6321V38.0017H33.5108H31.3023L31.2827 22.3803C31.2635 7.0165 31.2607 6.75714 31.1153 6.6508C31.034 6.59139 30.8902 6.54271 30.7957 6.54271C30.7013 6.54271 29.0625 7.20678 27.154 8.01847L23.6841 9.49414V7.37596C23.6841 5.30781 23.6455 4.91035 23.4317 4.77446C23.382 4.74277 22.2702 4.71642 20.9609 4.71573L18.5806 4.71459V2.51886V0.323203L18.4043 0.157529C18.1769 -0.0559811 17.9633 -0.0524772 17.7559 0.168193ZM22.6762 7.5139L22.6966 9.36107H18.0106H13.3247V7.49425V5.62751L17.9902 5.64708L22.6557 5.66674L22.6762 7.5139ZM30.311 22.8816V38.0017H28.9399H27.5688V35.4965C27.5688 33.1433 27.56 32.9803 27.4232 32.8114L27.2776 32.6316H24.2701C21.4195 32.6316 21.2542 32.6391 21.1022 32.7767C20.9453 32.9187 20.9419 32.9763 20.9419 35.4617V38.0017H19.5708H18.1997V25.4438V12.8859L20.0088 12.1155C21.0038 11.6919 23.7031 10.541 26.0073 9.5582C28.3115 8.57536 30.2224 7.76908 30.2539 7.76634C30.2854 7.76367 30.311 14.5655 30.311 22.8816ZM21.4751 10.4202C21.4122 10.4557 20.4868 10.8538 19.4184 11.3051C18.3501 11.7564 17.4161 12.1774 17.3428 12.2405C17.2234 12.3434 17.2095 12.5291 17.2095 14.0194V15.6833H15.2671H13.3247V13.0173V10.3513L17.457 10.3536C19.7454 10.3549 21.5384 10.3847 21.4751 10.4202ZM17.2095 27.3376V38.0017H12.9438H8.67821V27.3376V16.6736H12.9438H17.2095V27.3376ZM20.3749 16.9191C20.2154 17.1469 20.2256 17.3284 20.4087 17.5115C20.5568 17.6596 20.6626 17.6638 24.2436 17.6638C27.7144 17.6638 27.9333 17.6558 28.0521 17.5245C28.2113 17.3485 28.2145 17.0255 28.0585 16.8694C27.953 16.7639 27.4988 16.7497 24.2161 16.7497H20.4935L20.3749 16.9191ZM11.1656 19.1742C11.0642 19.2863 11.0395 19.4792 11.0395 20.1601C11.0395 20.9486 11.0512 21.0148 11.2089 21.1253C11.6713 21.4492 11.9776 21.1598 12.018 20.3605C12.0669 19.3919 11.9282 19.0349 11.503 19.0349C11.3867 19.0349 11.2349 19.0976 11.1656 19.1742ZM14.0568 19.1516C13.8953 19.3131 13.8361 19.6955 13.8697 20.3605C13.9101 21.1598 14.2164 21.4492 14.6788 21.1253C14.8368 21.0147 14.8481 20.9491 14.8481 20.1469C14.8481 19.4106 14.8281 19.2689 14.7088 19.161C14.5342 19.0029 14.2101 18.9983 14.0568 19.1516ZM20.4087 19.7966C20.2044 20.0009 20.2167 20.221 20.4455 20.4496L20.6345 20.6388L24.2983 20.6176C27.8241 20.5972 27.9661 20.5909 28.0701 20.4486C28.22 20.2434 28.2052 19.9209 28.0389 19.7703C27.9134 19.6567 27.5378 19.6443 24.2303 19.6443C20.6626 19.6443 20.5568 19.6485 20.4087 19.7966ZM11.2089 22.7336C11.0509 22.8442 11.0395 22.9098 11.0395 23.712C11.0395 24.6579 11.1108 24.824 11.5161 24.824C11.9275 24.824 12.0663 24.457 12.018 23.4983C11.9776 22.6991 11.6713 22.4096 11.2089 22.7336ZM14.0422 22.774C13.9356 22.8919 13.8909 23.0798 13.8697 23.4983C13.8208 24.4669 13.9595 24.824 14.3847 24.824C14.7725 24.824 14.8481 24.6404 14.8481 23.6988C14.8481 22.9102 14.8365 22.844 14.6788 22.7336C14.4458 22.5703 14.2132 22.5851 14.0422 22.774ZM20.4087 22.7673C20.1952 22.9808 20.2159 23.2576 20.4597 23.4494C20.6608 23.6076 20.7044 23.6092 24.3126 23.5883C27.8242 23.5679 27.9661 23.5616 28.0701 23.4193C28.22 23.2141 28.2052 22.8916 28.0389 22.741C27.9134 22.6274 27.5378 22.615 24.2303 22.615C20.6626 22.615 20.5568 22.6192 20.4087 22.7673ZM20.585 25.5862C20.2538 25.7197 20.1649 26.1036 20.4087 26.3474C20.5568 26.4956 20.6626 26.4997 24.2436 26.4997C27.7144 26.4997 27.9333 26.4917 28.0521 26.3604C28.1829 26.2161 28.2174 25.9144 28.1199 25.7685C27.9574 25.5251 27.7199 25.5095 24.2413 25.5143C22.3219 25.517 20.6766 25.5493 20.585 25.5862ZM3.64805 25.8889C4.52349 26.3356 4.88203 27.3962 4.45958 28.2898C4.13159 28.9836 3.56814 29.3415 2.81099 29.3369C2.06512 29.3324 1.47486 28.958 1.16515 28.2929C0.436108 26.7273 2.11166 25.1051 3.64805 25.8889ZM37.0061 25.8875C38.3789 26.5937 38.2922 28.6251 36.8638 29.2235C36.5051 29.3738 35.8236 29.3675 35.4526 29.2105C34.3379 28.7387 33.9859 27.2222 34.7854 26.337C35.3764 25.683 36.2607 25.5039 37.0061 25.8875ZM11.3061 26.2867C11.0602 26.4252 11.0419 26.498 11.0419 27.3376C11.0419 28.1914 11.059 28.2551 11.3266 28.3961C11.5869 28.5332 11.8885 28.36 11.9761 28.0232C12.0769 27.6359 12.0055 26.5177 11.8719 26.3908C11.7067 26.2338 11.4755 26.1913 11.3061 26.2867ZM14.1659 26.292C14.063 26.3441 13.9549 26.4721 13.9259 26.5765C13.8576 26.822 13.8575 27.8529 13.9258 28.0994C13.9986 28.3619 14.331 28.5172 14.561 28.3961C14.8286 28.2551 14.8458 28.1914 14.8458 27.3376C14.8458 26.4875 14.8279 26.4197 14.5675 26.2827C14.3666 26.1769 14.3947 26.1762 14.1659 26.292ZM20.4087 28.6326C20.2173 28.8239 20.2151 29.0219 20.4019 29.2525L20.5475 29.4324L24.001 29.455C25.9004 29.4674 27.5649 29.4575 27.6997 29.433C28.0153 29.3755 28.1782 29.2088 28.1782 28.9436C28.1782 28.4695 28.2694 28.4802 24.2303 28.4802C20.6626 28.4802 20.5568 28.4844 20.4087 28.6326ZM11.1656 29.9906C11.0642 30.1027 11.0395 30.2956 11.0395 30.9765C11.0395 31.765 11.0512 31.8312 11.2089 31.9417C11.6713 32.2656 11.9776 31.9762 12.018 31.1769C12.0669 30.2083 11.9282 29.8513 11.503 29.8513C11.3867 29.8513 11.2349 29.914 11.1656 29.9906ZM14.0568 29.968C13.7932 30.2316 13.7827 31.6145 14.0422 31.9012C14.2199 32.0975 14.5536 32.1072 14.7221 31.921C14.9165 31.7062 14.9059 30.1557 14.7088 29.9774C14.5342 29.8193 14.2101 29.8147 14.0568 29.968ZM3.35136 30.7347C4.10424 30.9562 4.6395 31.6768 4.64064 32.4704C4.64171 33.1792 4.17676 33.9024 3.55687 34.1563C3.1431 34.3258 2.4814 34.3283 2.08934 34.1619C1.15685 33.7663 0.73097 32.6385 1.16637 31.7175C1.40128 31.2206 1.72014 30.9297 2.21853 30.7575C2.7189 30.5847 2.83362 30.5824 3.35136 30.7347ZM36.6967 30.7306C37.7588 31.046 38.2952 32.2417 37.8229 33.241C37.4956 33.9331 36.9326 34.292 36.1763 34.2903C35.6158 34.2891 35.1685 34.0927 34.8174 33.6937C33.949 32.7072 34.3385 31.1837 35.5669 30.7619C36.0812 30.5852 36.1967 30.582 36.6967 30.7306ZM11.1919 33.5837C11.0583 33.7173 11.0395 33.8376 11.0395 34.5622C11.0395 35.4714 11.1143 35.6404 11.5161 35.6404C11.9295 35.6404 12.0664 35.274 12.0172 34.2997C11.9921 33.8033 11.9622 33.6987 11.8099 33.5754C11.5811 33.3902 11.3828 33.3928 11.1919 33.5837ZM14.0777 33.5754C13.9255 33.6987 13.8955 33.8033 13.8705 34.2997C13.8208 35.284 13.9575 35.6404 14.3847 35.6404C14.7725 35.6404 14.8481 35.4568 14.8481 34.5152C14.8481 33.7266 14.8365 33.6604 14.6788 33.55C14.4555 33.3935 14.294 33.4004 14.0777 33.5754ZM26.5786 35.7927V38.0017H24.2173H21.8559V35.8435C21.8559 34.6565 21.8788 33.6624 21.9068 33.6345C21.9346 33.6066 22.9972 33.5837 24.2681 33.5837H26.5786V35.7927Z" fill="black"/>
</svg>
