<svg width="39" height="36" viewBox="0 0 39 36" fill="none" xmlns="http://www.w3.org/2000/svg">
<path d="M10.5 34.5003V26.5003C11 24 14 24 14.5 26.5003V34.5003H10.5Z" fill="#CBFA0C"/>
<path d="M34 34.8766V26.8766C34.648 24.1708 37.9669 23.7242 38 26.8766V34.8766H34Z" fill="#CBFA0C"/>
<path d="M1 11.5L3 3H8L10 11.5H1Z" fill="#FA0C54"/>
<path d="M20.5 7.5C19.2292 8.73876 18.5739 9.52674 17.5 11V11.5H24.5C23.1675 9.92861 22.3866 9.04357 20.5 7.5Z" fill="#0CFAB2"/>
<path d="M24 5C23.5 5 23.4602 5.01587 23 5.7525V6.0025L24.2857 6.23757C23.7146 5.45188 24.8086 5.77178 24 5Z" fill="#FA0C54"/>
<path d="M28 6.5C26.7345 6.90492 24.0761 8.73014 23 10.5V11C28.378 13.1271 31.506 11.7865 31.5 9.5C30.1675 7.92861 29.8866 8.04357 28 6.5Z" fill="#0CFAB2"/>
<path d="M34 34.5H14.5V29L12.5 24L13 20L14.5 19H17H20H34.5C35.1667 19.5 36.4 21.3 36 24.5C35.6 27.7 34.5 28.8333 34 29V34.5Z" fill="#CBFA0C"/>
<path fill-rule="evenodd" clip-rule="evenodd" d="M15.0328 0.045154C14.9429 0.0632067 14.8058 0.148215 14.7281 0.23406C14.5932 0.383129 14.5859 0.689797 14.5648 7.10431C14.5527 10.7971 14.5631 13.9318 14.5881 14.0703C14.6131 14.2088 14.7001 14.3887 14.7816 14.4702C14.9266 14.6152 15.1205 14.6183 24.2607 14.6183C33.4502 14.6183 33.5941 14.616 33.7422 14.4678C33.825 14.3851 33.9116 14.2395 33.935 14.1441C33.9583 14.0488 33.9677 10.9125 33.9559 7.17461L33.9346 0.37833L33.7612 0.204886C33.5925 0.0360134 33.5413 0.0307575 31.8475 0.00729659C30.432 -0.0123558 30.0562 0.00447823 29.8336 0.0974841C29.536 0.221797 29.4263 0.460215 29.511 0.798113C29.5902 1.11354 29.9485 1.21203 31.0163 1.21203H31.9497L31.459 1.70715L30.9683 2.20227H24.2607H17.5532L17.0639 1.7086L16.5746 1.21493L22.2714 1.19444L27.9683 1.17395L28.1521 0.960207C28.3842 0.690482 28.3842 0.51483 28.1521 0.245105L27.9683 0.0313669L21.5823 0.0218454C18.07 0.0165896 15.1227 0.0271013 15.0328 0.045154ZM16.2797 2.52379L16.7578 2.99765V7.30563V11.6136L16.2246 12.1427L15.6914 12.6718V7.36085C15.6914 4.43981 15.7162 2.04992 15.7465 2.04992C15.7768 2.04992 16.0167 2.2632 16.2797 2.52379ZM32.8301 7.36085V12.6718L32.2969 12.1427L31.7637 11.6136V7.30989V3.00618L32.2375 2.52805C32.4982 2.26511 32.7381 2.04992 32.7707 2.04992C32.8034 2.04992 32.8301 4.43981 32.8301 7.36085ZM2.27609 2.43131C2.2083 2.47092 2.11499 2.59844 2.06875 2.7146C1.97582 2.94837 0 11.5754 0 11.7476C0 11.807 0.0710684 11.9459 0.157904 12.0562L0.315732 12.257H2.51923H4.72266V22.1593V32.0616H4.47007C3.011 32.0616 1.89211 32.9332 1.68911 34.228C1.60692 34.7519 1.64493 34.9808 1.84404 35.1611C1.98473 35.2885 2.23054 35.3007 5.09239 35.3221C6.79522 35.3348 8.30182 35.3243 8.4403 35.2988C8.83144 35.2267 8.98828 35.0199 8.98828 34.5762C8.98828 33.8575 8.55882 33.0331 7.96088 32.6037C7.51695 32.2849 7.09526 32.1433 6.41999 32.0862L5.8647 32.0392L5.88397 22.1671L5.90332 12.295H6.62695H7.35059L7.37039 15.6608L7.39027 19.0264L7.59015 19.1837C7.70014 19.2702 7.83527 19.3409 7.89049 19.3409C8.09189 19.3409 8.36413 19.1673 8.4467 18.9862C8.50444 18.8594 8.53125 17.7643 8.53125 15.5288V12.257H9.39877C10.3855 12.257 10.614 12.1623 10.6123 11.7547C10.6119 11.633 10.1584 9.54523 9.60474 7.11535C8.70606 3.1714 8.57764 2.67903 8.40808 2.526L8.21803 2.35461L5.30872 2.35689C3.62243 2.35827 2.34754 2.3895 2.27609 2.43131ZM30.6033 5.50348C30.6144 6.66975 30.596 7.61237 30.5624 7.5982C30.5287 7.58396 30.1299 7.16844 29.6761 6.6747C29.2223 6.18087 28.7438 5.71988 28.6126 5.65019C28.2748 5.47072 27.538 5.47697 27.1642 5.66253C26.9674 5.76018 26.3316 6.4049 25.2634 7.59013C23.7318 9.28945 23.653 9.3641 23.5406 9.22166C23.0277 8.57145 21.6164 7.11055 21.3883 6.99363C21.0516 6.82102 20.4419 6.8032 20.0778 6.95539C19.9218 7.02052 19.4564 7.46605 18.8806 8.10132L17.9385 9.14069L17.9184 6.33825C17.9075 4.79698 17.915 3.49269 17.9353 3.43991C17.9646 3.36358 19.2631 3.34797 24.2776 3.36343L30.583 3.38293L30.6033 5.50348ZM7.61719 3.54076C7.61719 3.56475 7.99424 5.23246 8.45508 7.24682C8.91592 9.26111 9.29297 10.9554 9.29297 11.0118C9.29297 11.0965 8.5947 11.1144 5.28884 11.1144C1.5114 11.1144 1.28685 11.1068 1.32326 10.9811C1.34443 10.9077 1.70846 9.32243 2.13213 7.45812C2.55572 5.59382 2.9362 3.93997 2.97756 3.78283L3.05274 3.49719H5.335C6.59016 3.49719 7.61719 3.51684 7.61719 3.54076ZM22.9207 4.20764C22.736 4.30507 22.4821 4.53084 22.3564 4.70931C22.1501 5.00227 22.1279 5.09101 22.1279 5.62406C22.1279 6.14957 22.1518 6.24882 22.346 6.52898C22.6221 6.92736 23.2025 7.23029 23.6853 7.22793C24.5382 7.22382 25.2882 6.47612 25.2882 5.63C25.2882 4.44499 23.9705 3.65334 22.9207 4.20764ZM24.0279 5.3423C24.1875 5.57013 24.1772 5.75165 23.9941 5.93469C23.6991 6.22978 23.2324 6.03919 23.2324 5.6236C23.2324 5.19232 23.7857 4.99655 24.0279 5.3423ZM28.1733 6.75353C28.2607 6.82689 28.846 7.45241 29.4739 8.14367L30.6155 9.40051L30.6183 10.3336L30.6211 11.2667H28.001H25.3809L24.9132 10.7391L24.4453 10.2114L25.902 8.58722C26.7033 7.69388 27.4434 6.88585 27.5469 6.79162C27.773 6.58573 27.9597 6.57438 28.1733 6.75353ZM22.3873 9.64807L23.8473 11.2667H20.8738H17.9004V11.0796C17.9004 10.9447 18.2649 10.4876 19.2096 9.43821C20.3564 8.16416 20.5441 7.98661 20.723 8.00664C20.8802 8.02416 21.2647 8.40342 22.3873 9.64807ZM31.4209 12.9425L31.95 13.4757H24.2607H16.5715L17.1006 12.9425L17.6297 12.4093H24.2607H30.8918L31.4209 12.9425ZM14.4167 18.3158C13.0786 18.6761 12.0596 19.776 11.813 21.1259C11.7676 21.3745 11.7305 22.0782 11.7305 22.6895V23.8012L11.2325 24.0181C10.5899 24.2981 10.1102 24.7674 9.80225 25.4175L9.55957 25.9298L9.53763 30.3974L9.51577 34.8648L9.70247 35.0819L9.88917 35.2989H18.9287H27.9683L28.1521 35.0852C28.3842 34.8155 28.3842 34.6398 28.1521 34.3701L27.9683 34.1564L21.5252 34.136L15.082 34.1158V31.9842V29.8527H24.2607H33.4395V31.9855V34.1183H31.7612C29.9031 34.1183 29.601 34.1739 29.511 34.5322C29.4276 34.8648 29.5364 35.1087 29.8215 35.2278C30.0378 35.3181 30.801 35.337 34.2319 35.337C36.9181 35.337 38.4542 35.3092 38.5889 35.2579C39.0089 35.0982 38.995 35.2585 38.9976 30.564C38.9998 26.5121 38.9901 26.178 38.8567 25.7497C38.5972 24.9158 37.9755 24.2667 37.1254 23.9421L36.791 23.8144L36.7866 22.5869C36.7816 21.1656 36.6703 20.606 36.2558 19.9167C35.9448 19.3994 35.3831 18.8688 34.8724 18.6101C34.0431 18.1898 34.2154 18.1984 26.5742 18.1984C22.6902 18.1984 19.4544 18.2206 19.3835 18.2479C19.1894 18.3224 19.0442 18.7249 19.13 18.9506C19.2832 19.3536 18.9468 19.3359 26.513 19.3385C34.3508 19.3412 33.9883 19.3182 34.6963 19.8568C34.9723 20.0667 35.1506 20.2904 35.3438 20.669L35.6104 21.1915L35.6367 22.5004L35.6631 23.8093L35.2049 23.9764C34.6151 24.1915 34.0728 24.6796 33.7383 25.2966L33.4775 25.7775L33.4526 27.2441L33.4278 28.7107L24.2739 28.6913L15.1201 28.672L15.0804 27.2247C15.0437 25.8911 15.026 25.7475 14.8552 25.3966C14.566 24.8025 13.9121 24.1935 13.3388 23.9845L12.8584 23.8093L12.8848 22.5004L12.9111 21.1915L13.1777 20.669C13.3695 20.2932 13.5484 20.0679 13.815 19.8667C14.4095 19.4179 14.7618 19.3409 16.2231 19.3409C17.3986 19.3409 17.5148 19.3285 17.6997 19.183C17.962 18.9767 17.9733 18.5981 17.7241 18.364C17.5562 18.2062 17.483 18.1986 16.1816 18.2034C15.26 18.2067 14.6856 18.2433 14.4167 18.3158ZM13.1275 25.149C13.298 25.2433 13.5419 25.469 13.6695 25.6506L13.9014 25.9809L13.9223 30.0496L13.9433 34.1183H12.3037H10.6641L10.6645 30.2526C10.6647 27.741 10.6935 26.284 10.7464 26.0932C10.7913 25.9317 10.9672 25.6486 11.1372 25.4641C11.6617 24.8952 12.4443 24.7712 13.1275 25.149ZM36.6914 25.0158C37.1537 25.1532 37.6514 25.6479 37.7751 26.0932C37.828 26.284 37.8567 27.741 37.857 30.2526L37.8574 34.1183H36.2197H34.582V30.1433C34.582 26.2595 34.5857 26.1608 34.7421 25.8376C34.9209 25.4682 35.2757 25.1635 35.7054 25.0102C36.078 24.8772 36.2273 24.878 36.6914 25.0158ZM7.00781 33.3481C7.24509 33.4768 7.60675 33.8082 7.70258 33.985C7.77075 34.1107 7.63539 34.1183 5.33279 34.1183H2.89065L2.99942 33.9088C3.14156 33.635 3.50406 33.3729 3.86367 33.2837C4.3111 33.1727 6.77739 33.2233 7.00781 33.3481Z" fill="black"/>
</svg>
