<svg width="39" height="39" viewBox="0 0 39 39" fill="none" xmlns="http://www.w3.org/2000/svg">
<path d="M19.4999 20.4999L12.4999 8.99995C11.9999 6.49989 12.9999 1.99995 18.9999 0.999946C23.7999 0.199946 25.9999 4.66661 26.4999 6.99995C26.4999 8.49995 22.9999 16.4999 19.4999 20.4999Z" fill="#FA0C54"/>
<path d="M6 33C5.5 32.6667 4.4 32 4 32V30L3.5 29V28V27H5L7 26.5L8.5 25.5L10 26L11 27.5L13.5 28L17.5 27V25L16.5 23L16 22V20L16.5 19H19C19.198 20.7621 20.0554 19.8728 21.5 18.5L23 19L24 20L25 21.5L26 22L26.5 23L27.5 24.5H28.5L30 23.5L32 22L33.5 21.5L35 22V23.5L33.5 25V26.5L35.5 27.5V29.5L34 31.5V33L32.5 34.5L29.5 34L27.5 35.5H26L25 34L23 33.5L21 34L19.5 34.5L18 33L17 32.5L16 33.5H15L13.5 34.5L12 35.5H11.5H10.5V34V32.5L7.5 31.5L6 33Z" fill="#0CFAB2"/>
<path fill-rule="evenodd" clip-rule="evenodd" d="M18.3193 0.0432429C17.8351 0.110579 16.8491 0.392034 16.3428 0.607448C14.78 1.27228 13.3411 2.68656 12.6036 4.28274C12.1289 5.31022 11.9981 5.96873 12.0041 7.30113C12.0087 8.34582 12.0321 8.55644 12.2071 9.13024C12.5025 10.099 13.1061 11.4829 14.0588 13.3758L14.9117 15.0707H7.45586H0V27.0296V38.9886H19.5H39V27.0296V15.0707H31.5464H24.0927L25.0163 13.2235C26.6935 9.86903 27.0905 8.62545 27.016 6.95835C26.9666 5.85241 26.7765 5.08255 26.3201 4.13999C25.2951 2.02295 23.285 0.506063 20.9697 0.102276C20.372 -0.00192703 18.8827 -0.035138 18.3193 0.0432429ZM21.1464 1.43277C23.3592 1.96338 25.0112 3.58958 25.5988 5.81578C25.8145 6.63325 25.8182 7.86884 25.6072 8.67222C25.2861 9.89455 23.693 13.2597 22.445 15.3515C21.371 17.1517 19.6638 19.641 19.5033 19.641C19.3432 19.641 17.7362 17.3181 16.6885 15.5723C15.3383 13.3224 13.7341 9.96493 13.3915 8.67222C13.192 7.91934 13.1807 6.63729 13.367 5.89195C13.9174 3.69081 15.6283 1.98045 17.8242 1.4362C18.6431 1.2332 20.3069 1.23152 21.1464 1.43277ZM18.4717 2.61473C17.5028 2.8274 16.6527 3.29015 15.962 3.9808C15.3888 4.55407 15.0068 5.17022 14.7297 5.96888C14.5428 6.50742 14.5184 6.68711 14.5178 7.52964C14.5172 8.36555 14.5427 8.55819 14.7259 9.10754C15.221 10.5918 16.3826 11.7598 17.913 12.3125C18.4152 12.4938 18.5755 12.514 19.5 12.5117C20.412 12.5095 20.5915 12.4867 21.087 12.31C22.6108 11.7666 23.7785 10.5932 24.2741 9.10754C24.4573 8.55819 24.4828 8.36555 24.4822 7.52964C24.4816 6.68711 24.4572 6.50742 24.2703 5.96888C24.0009 5.19269 23.6265 4.57798 23.0874 4.02703C21.8901 2.80348 20.103 2.25665 18.4717 2.61473ZM20.4972 3.90013C21.3852 4.17214 22.2136 4.78966 22.6867 5.53226C23.4033 6.65694 23.4369 8.23042 22.7696 9.40378C21.7318 11.2282 19.264 11.8504 17.5246 10.7262C16.3517 9.96806 15.7523 8.87446 15.7562 7.4994C15.7608 5.84007 16.8243 4.43234 18.4717 3.90493C18.8784 3.77475 20.0785 3.77186 20.4972 3.90013ZM16.2694 17.2796C16.5772 17.7614 16.8302 18.1747 16.8315 18.198C16.8328 18.2214 16.5947 18.3563 16.3021 18.4978C15.2741 18.995 15.082 19.3716 15.082 20.8888C15.082 21.4389 15.1133 21.9982 15.1516 22.1315C15.1898 22.2649 15.6183 23.0379 16.1037 23.8493L16.9863 25.3247V25.8607C16.9863 26.2765 16.9565 26.4225 16.853 26.5118C16.7797 26.575 16.3523 26.7175 15.9032 26.8282C15.1427 27.0159 14.9691 27.0296 13.3724 27.0296H11.6583L11.2005 26.349C10.4558 25.2414 10.135 25.0902 8.63012 25.1372C7.51405 25.172 7.20098 25.3131 6.75454 25.983L6.46318 26.4203H5.13345C3.6852 26.4203 3.43352 26.4729 3.01823 26.8623C2.63159 27.2249 2.51718 27.5875 2.51535 28.4563C2.51321 29.4438 2.62077 29.7289 3.18063 30.22L3.60141 30.5891L3.47648 30.9558C3.21773 31.7151 3.36969 32.3996 3.9 32.864C4.48165 33.3733 4.95468 33.6115 5.44652 33.6428C6.06191 33.682 6.34413 33.5343 7.08208 32.7864C7.39522 32.469 7.70517 32.2093 7.77083 32.2093C7.87297 32.2093 9.60588 32.7723 9.99756 32.9327C10.1989 33.0152 10.1593 33.3213 9.89808 33.7009C9.43198 34.3783 9.33105 34.9115 9.56361 35.4681C9.85161 36.1575 10.3987 36.4716 11.3115 36.4716C12.0995 36.4716 12.2744 36.3891 13.6252 35.3803L14.7092 34.5707L15.1813 34.569C15.805 34.5668 16.1916 34.3835 16.7954 33.8037C17.102 33.5092 17.3307 33.348 17.4187 33.3642C17.5025 33.3798 17.6787 33.6215 17.8623 33.9729C18.3936 34.9892 18.6808 35.18 19.6794 35.18H20.322L21.5519 34.5707L22.7819 33.9613L23.4071 33.9624C23.7509 33.9631 24.0708 33.9888 24.1179 34.0196C24.1651 34.0503 24.3836 34.4355 24.6034 34.8753C25.1351 35.9392 25.2443 36.0802 25.7005 36.2926C26.0185 36.4407 26.2131 36.4735 26.7744 36.4738C27.8356 36.4743 27.9526 36.4208 28.8733 35.5144C29.4164 34.9798 29.7332 34.723 29.8498 34.723C29.9446 34.723 30.3712 34.8118 30.7977 34.9204C31.985 35.2225 32.305 35.1788 33.2122 34.5908C34.4165 33.8103 34.582 33.5496 34.582 32.4335V31.7387L35.4526 30.8406C36.4723 29.7887 36.5173 29.6855 36.4735 28.5004C36.4337 27.4267 36.2933 27.2252 35.1831 26.6488C34.0115 26.0405 33.9727 26.0095 33.9727 25.6821C33.9727 25.4308 34.0548 25.3204 34.8365 24.5219C35.6174 23.7242 35.7098 23.6002 35.7984 23.231C35.9148 22.7458 35.8683 21.973 35.7036 21.6545C35.5408 21.3397 35.1993 21.0102 34.9082 20.8871C34.5716 20.7449 32.765 20.7447 32.4277 20.8869C32.2929 20.9437 31.3958 21.6464 30.4342 22.4484L28.6857 23.9066H28.3074C27.7327 23.9066 27.6504 23.7936 27.6504 23.0048C27.6504 21.8314 27.2753 21.4073 25.9531 21.0855C25.5669 20.9915 25.1931 20.885 25.1223 20.8489C25.0488 20.8114 24.902 20.4977 24.7795 20.1169C24.4835 19.1954 24.1663 18.8847 23.0581 18.4307C22.6093 18.2468 22.2422 18.0868 22.2422 18.075C22.2422 18.0633 22.478 17.6824 22.7663 17.2287L23.2904 16.4037L30.4977 16.3842L37.7051 16.3648V27.0293V37.6937H19.5H1.29492V27.0293V16.3648L8.50238 16.3842L15.7098 16.4037L16.2694 17.2796ZM22.4603 19.5537C22.9314 19.7571 23.345 19.9541 23.3794 19.9917C23.4139 20.0292 23.5359 20.3459 23.6505 20.6956C23.867 21.3552 24.1552 21.7717 24.5287 21.9649C24.6427 22.0239 25.0404 22.1464 25.4124 22.2373C26.4336 22.4868 26.4316 22.4847 26.4316 23.287C26.4316 24.0979 26.607 24.504 27.1103 24.8587C27.4077 25.0684 27.4958 25.0894 28.1763 25.113C28.7019 25.1313 28.9942 25.1067 29.1792 25.0287C29.3229 24.9682 30.2272 24.2625 31.1889 23.4605L32.9373 22.0023H33.6683C34.1352 22.0023 34.4322 22.0353 34.4906 22.0937C34.5409 22.144 34.582 22.3726 34.582 22.6016V23.0182L33.7159 23.9029C32.9197 24.7164 32.8427 24.8206 32.7624 25.195C32.6461 25.7375 32.7268 26.2716 32.9873 26.6822C33.174 26.9767 33.3257 27.0825 34.1961 27.5251L35.1914 28.0312V28.6935V29.3558L34.4241 30.1161C33.4401 31.0911 33.3633 31.2386 33.3633 32.1537C33.3633 32.609 33.3289 32.9087 33.2681 32.985C33.2157 33.0506 32.9004 33.2855 32.5674 33.5071L31.962 33.9101L30.9678 33.6676C30.421 33.5342 29.9051 33.4259 29.8213 33.427C29.3429 33.4331 29.0585 33.6082 28.2563 34.3905L27.44 35.1865L26.8025 35.1642L26.165 35.1419L25.699 34.245C25.172 33.2306 25.0691 33.0967 24.6416 32.8681C24.3787 32.7276 24.2105 32.7052 23.4145 32.7048L22.4922 32.7044L21.2202 33.3329C19.9819 33.9446 19.5567 34.0708 19.3002 33.903C19.2532 33.8722 19.0935 33.6071 18.9454 33.3138C18.7972 33.0206 18.5553 32.6648 18.4078 32.5233C17.9566 32.0904 17.165 31.9842 16.6109 32.2822C16.5091 32.3368 16.1934 32.5999 15.9093 32.8668L15.3927 33.3519H14.8916C14.2622 33.3519 14.1115 33.4284 12.8029 34.4118L11.7806 35.18H11.3012C10.896 35.18 10.8089 35.1559 10.7383 35.024C10.668 34.8927 10.7089 34.7834 10.9962 34.3344C11.5143 33.5245 11.5514 32.8916 11.1159 32.2905C10.8412 31.9112 10.6031 31.7908 9.2168 31.3304C7.55 30.7768 7.32941 30.8149 6.27443 31.8376C5.93394 32.1677 5.60534 32.4378 5.54417 32.4378C5.38314 32.4378 4.57031 31.8384 4.57031 31.7196C4.57031 31.6643 4.62173 31.4734 4.68457 31.2953C4.94919 30.5451 4.73637 29.7935 4.14383 29.3858L3.80859 29.1551V28.4777C3.80859 28.0195 3.83937 27.7804 3.90381 27.7387C3.95621 27.7048 4.65334 27.66 5.45314 27.639C6.88898 27.6014 6.911 27.5983 7.21066 27.3904C7.37755 27.2746 7.59472 27.0347 7.69328 26.8572C7.79185 26.6797 7.90923 26.5093 7.95425 26.4785C7.99927 26.4478 8.41745 26.4221 8.88347 26.4214L9.7308 26.4203L10.1306 27.0292C10.9559 28.2863 11.1359 28.3515 13.6581 28.3078C15.2798 28.2797 15.3882 28.2681 16.3223 28.0249C17.4237 27.738 17.8033 27.5184 18.0567 27.0219C18.1991 26.7429 18.2143 26.6025 18.1921 25.778L18.167 24.8486L17.272 23.3553L16.377 21.8621V20.8667V19.8712L16.9831 19.5664L17.5893 19.2616L18.3507 20.2702C18.7695 20.8248 19.199 21.3815 19.3052 21.5072L19.4981 21.7357L19.7253 21.4691C19.8503 21.3225 20.2878 20.7499 20.6975 20.1967C21.1072 19.6436 21.4787 19.1893 21.523 19.1874C21.5674 19.1855 21.9891 19.3503 22.4603 19.5537ZM21.9915 21.3769L21.5557 21.8173L21.8825 22.138L22.2094 22.4588L22.6452 22.0184L23.0811 21.5779L22.7542 21.2572L22.4274 20.9364L21.9915 21.3769ZM30.675 26.9372L30.3934 27.2256L30.8339 27.6616L31.2743 28.0974L31.5731 27.7916L31.8718 27.4857L31.4585 27.0672C31.2312 26.8371 31.0253 26.6488 31.001 26.6488C30.9766 26.6488 30.83 26.7786 30.675 26.9372ZM8.03545 28.1729L7.73586 28.4797L8.17149 28.9154L8.60712 29.3509L8.91257 29.0455L9.21809 28.74L8.77652 28.3031L8.33503 27.8662L8.03545 28.1729ZM28.9231 28.9179L28.4873 29.3583L28.8141 29.6791L29.141 29.9998L29.5769 29.5594L30.0127 29.119L29.6859 28.7982L29.359 28.4774L28.9231 28.9179ZM31.4369 30.2127L31.0006 30.6536L31.3066 30.9524L31.6125 31.2512L32.0686 30.7999L32.5246 30.3487L32.2429 30.0603C32.088 29.9016 31.9415 29.7718 31.9172 29.7718C31.893 29.7718 31.6768 29.9703 31.4369 30.2127ZM28.8096 31.3164L28.4888 31.6433L28.9292 32.0792L29.3697 32.515L29.6904 32.1882L30.0112 31.8613L29.5708 31.4254L29.1303 30.9896L28.8096 31.3164ZM13.1782 32.0945L12.765 32.513L13.0636 32.8189L13.3624 33.1248L13.8028 32.6889L14.2433 32.253L13.9617 31.9646C13.8068 31.8059 13.6601 31.6761 13.6358 31.6761C13.6114 31.6761 13.4055 31.8644 13.1782 32.0945Z" fill="black"/>
</svg>
