<svg width="31" height="34" viewBox="0 0 31 34" fill="none" xmlns="http://www.w3.org/2000/svg">
<circle cx="16" cy="14" r="13" fill="#3B0CFA"/>
<path d="M10 17.5L11.5 15.5L13.5 17.5L12 19.5L10 17.5Z" fill="#0CFAB2" stroke="#0CFAB2"/>
<path d="M17 10.5L19 7.5L22 10.5C20.822 11.2905 20.2452 11.7654 19.2857 13L17 10.5Z" fill="#0CFAB2" stroke="#0CFAB2"/>
<path d="M2.5 6.5C4.66433 5.75655 5.64791 4.87747 7 2.5C7.53134 5.02543 8.44056 5.96088 11.5 6.5C9.73233 6.63574 7.30644 9.06831 7 11C5.9478 8.98468 5.02251 7.97738 2.5 6.5Z" fill="#0CFAB2" stroke="#0CFAB2"/>
<path d="M27 32.5H6V30L10.5 26.5C14.5 29.3 19.8333 27.6667 22 26.5L27 30.5V32.5Z" fill="#CBFA0C"/>
<path fill-rule="evenodd" clip-rule="evenodd" d="M6.3276 0.133301C6.22705 0.217928 5.88786 1.0319 5.39922 2.36133C4.9757 3.51343 4.58905 4.49681 4.54 4.54662C4.49087 4.59644 3.5081 4.98286 2.356 5.40538C1.01857 5.89586 0.213053 6.23101 0.127969 6.33255C-0.0426562 6.536 -0.0426562 6.87025 0.127969 7.0737C0.213053 7.17524 1.01857 7.51039 2.356 8.00087C3.5081 8.42339 4.49087 8.80981 4.54 8.85963C4.58905 8.90944 4.9757 9.89282 5.39922 11.0449C5.88786 12.3743 6.22705 13.1883 6.3276 13.2729C6.53052 13.4436 6.86507 13.4436 7.06799 13.2729C7.16854 13.1883 7.50773 12.3743 7.99637 11.0449C8.41989 9.89282 8.80654 8.91074 8.85559 8.86245C8.90472 8.81415 9.88749 8.42811 11.0396 8.00452C12.3846 7.50994 13.182 7.17714 13.2676 7.07454C13.341 6.98664 13.4009 6.81952 13.4009 6.70312C13.4009 6.58673 13.341 6.41961 13.2676 6.33171C13.182 6.22911 12.3846 5.89631 11.0396 5.40173C9.88749 4.97814 8.90472 4.5921 8.85559 4.5438C8.80654 4.49551 8.41989 3.51343 7.99637 2.36133C7.50773 1.0319 7.16854 0.217928 7.06799 0.133301C6.98077 0.0600234 6.81418 0 6.69779 0C6.5814 0 6.41481 0.0600234 6.3276 0.133301ZM14.8482 0.0538536C13.1764 0.186773 10.0806 1.15515 9.69089 1.66702C9.44204 1.99372 9.74299 2.58984 10.1568 2.58984C10.2615 2.58984 10.6597 2.45235 11.0416 2.28424C11.9005 1.90628 12.9721 1.58392 13.9722 1.40271C15.0315 1.21075 17.2548 1.21075 18.314 1.40271C20.9788 1.88563 23.2458 3.06447 25.1346 4.94957C27.0883 6.89934 28.2662 9.14215 28.756 11.8447C28.948 12.904 28.948 15.1273 28.756 16.1865C28.0805 19.9145 25.9142 23.052 22.6558 25.022C19.061 27.1953 14.386 27.3855 10.5458 25.5147C6.85753 23.7179 4.26509 20.2702 3.5314 16.1865C3.33686 15.1039 3.33587 13.0564 3.52927 11.8682C3.66501 11.0341 3.66615 10.9653 3.54732 10.784C3.30616 10.4158 2.74554 10.4314 2.54886 10.8117C2.15155 11.58 2.03356 14.795 2.34114 16.4706C2.89918 19.5099 4.55805 22.4766 6.81205 24.4665C7.1891 24.7993 7.90893 25.3475 8.41166 25.6846C8.91439 26.0217 9.33235 26.3191 9.3405 26.3456C9.34857 26.3719 8.49537 27.1134 7.44443 27.9932C6.39349 28.8729 5.41849 29.6996 5.2778 29.8303L5.02201 30.0678V31.3763C5.02201 32.6639 5.02498 32.6876 5.20901 32.8716L5.39594 33.0586H16.4478H27.4996L27.6866 32.8716C27.8705 32.6877 27.8736 32.6636 27.8736 31.3805V30.0762L27.6641 29.8714C27.5489 29.7588 26.5206 28.8809 25.3789 27.9206C24.2373 26.9602 23.3033 26.1529 23.3033 26.1265C23.3033 26.1001 23.6374 25.8514 24.0459 25.5738C28.262 22.709 30.627 17.6162 30.0781 12.5844C29.6446 8.61161 27.6002 5.047 24.4145 2.70981C21.7001 0.718377 18.3139 -0.221736 14.8482 0.0538536ZM7.26185 3.88362C7.56714 4.72174 7.85477 5.38908 7.94739 5.47394C8.03514 5.55438 8.74887 5.85526 9.53352 6.14265C10.3181 6.42997 10.96 6.68218 10.96 6.70312C10.96 6.72407 10.2741 6.99372 9.43564 7.30229C8.14018 7.77913 7.89651 7.89346 7.81264 8.06401C7.75833 8.17438 7.49387 8.8725 7.2249 9.6154C6.95594 10.3583 6.71874 10.9662 6.69779 10.9664C6.67685 10.9665 6.42304 10.3169 6.13374 9.52263C5.83355 8.6986 5.53922 8.01435 5.44819 7.92903C5.36044 7.84677 4.66301 7.54962 3.89848 7.2687C3.13394 6.98778 2.50834 6.73329 2.50834 6.70312C2.50834 6.67296 3.13394 6.41847 3.89848 6.13755C4.66301 5.85663 5.36044 5.55948 5.44819 5.47721C5.53922 5.3919 5.83355 4.70765 6.13374 3.88362C6.42304 3.08938 6.67685 2.43956 6.69779 2.43956C6.71874 2.43956 6.97254 3.08938 7.26185 3.88362ZM18.8427 5.28663C18.7523 5.35206 18.4582 6.02504 18.0855 7.01954L17.4761 8.64551L15.8501 9.25488C14.8556 9.62759 14.1827 9.92169 14.1172 10.0121C14.0584 10.0935 14.0103 10.2497 14.0103 10.3594C14.0103 10.4691 14.0584 10.6253 14.1172 10.7066C14.1827 10.7971 14.8556 11.0912 15.8501 11.4639L17.4761 12.0732L18.0855 13.6992C18.4582 14.6937 18.7523 15.3667 18.8427 15.4321C19.032 15.569 19.348 15.569 19.5372 15.4321C19.6277 15.3667 19.9218 14.6937 20.2945 13.6992L20.9038 12.0732L22.5035 11.48C23.4731 11.1204 24.1555 10.8246 24.2364 10.7289C24.3096 10.642 24.3697 10.4758 24.3697 10.3594C24.3697 10.243 24.3096 10.0767 24.2364 9.98987C24.1555 9.89412 23.4731 9.59834 22.5035 9.23873L20.9038 8.64551L20.2945 7.01954C19.9218 6.02504 19.6277 5.35206 19.5372 5.28663C19.4559 5.22783 19.2997 5.17969 19.19 5.17969C19.0803 5.17969 18.9241 5.22783 18.8427 5.28663ZM19.5328 8.46947C19.7003 8.93755 19.8975 9.39694 19.971 9.49041C20.0545 9.59667 20.4463 9.78405 21.0173 9.99078C21.5193 10.1726 21.9301 10.3384 21.9301 10.3594C21.9301 10.3803 21.5193 10.5461 21.0173 10.728C20.4463 10.9347 20.0545 11.1221 19.971 11.2283C19.8975 11.3218 19.7003 11.7812 19.5328 12.2493C19.3652 12.7174 19.2109 13.1003 19.19 13.1003C19.169 13.1003 19.0148 12.7174 18.8472 12.2493C18.6796 11.7812 18.4832 11.3227 18.4107 11.2305C18.3312 11.1294 17.9299 10.9333 17.4014 10.7375C16.9188 10.5586 16.524 10.3885 16.524 10.3594C16.524 10.3302 16.9188 10.1601 17.4014 9.98126C17.9299 9.78542 18.3312 9.58935 18.4107 9.48827C18.4832 9.39603 18.6796 8.93755 18.8472 8.46947C19.0148 8.0014 19.169 7.61841 19.19 7.61841C19.2109 7.61841 19.3652 8.0014 19.5328 8.46947ZM11.5075 13.5396C11.416 13.6166 11.1736 14.1503 10.9332 14.8037C10.7044 15.4256 10.5009 15.9508 10.481 15.9707C10.4611 15.9906 9.93594 16.1941 9.31399 16.4229C8.13424 16.8569 7.91654 17.004 7.91654 17.3672C7.91654 17.7304 8.13424 17.8775 9.31399 18.3115C9.93594 18.5402 10.4611 18.7438 10.481 18.7636C10.5009 18.7836 10.7044 19.3087 10.9332 19.9307C11.3672 21.1104 11.5143 21.3281 11.8775 21.3281C12.2407 21.3281 12.3878 21.1104 12.8218 19.9307C13.0505 19.3087 13.2512 18.7865 13.2675 18.7701C13.2838 18.7537 13.809 18.5498 14.4345 18.3168C15.6186 17.8759 15.8384 17.7272 15.8384 17.3672C15.8384 17.0072 15.6186 16.8584 14.4345 16.4176C13.809 16.1845 13.2838 15.9806 13.2675 15.9643C13.2512 15.9479 13.0505 15.4256 12.8218 14.8037C12.3878 13.6239 12.2407 13.4062 11.8775 13.4062C11.7611 13.4062 11.5946 13.4662 11.5075 13.5396ZM12.0613 16.2734C12.2318 16.8146 12.4301 17.0128 12.9712 17.1834C13.2076 17.2579 13.4009 17.3406 13.4009 17.3672C13.4009 17.3938 13.2076 17.4765 12.9712 17.551C12.4301 17.7215 12.2318 17.9198 12.0613 18.4609C11.9868 18.6973 11.9022 18.8906 11.8734 18.8906C11.8447 18.8906 11.7788 18.7396 11.7271 18.555C11.562 17.965 11.398 17.7758 10.8919 17.5913C10.6379 17.4987 10.4302 17.3979 10.4302 17.3672C10.4302 17.3365 10.6379 17.2357 10.8919 17.1431C11.398 16.9586 11.562 16.7694 11.7271 16.1794C11.7788 15.9948 11.8447 15.8438 11.8734 15.8438C11.9022 15.8438 11.9868 16.0371 12.0613 16.2734ZM24.4064 28.6959L26.6494 30.583L26.6521 31.2114L26.6548 31.8398H16.4478H6.24076L6.24495 31.2114L6.24914 30.583L8.42552 28.751L10.6019 26.9189L11.5634 27.2452C13.8861 28.0333 16.2115 28.2199 18.5906 27.8091C19.4462 27.6613 21.3025 27.1044 21.7515 26.8607C21.8718 26.7954 22.0137 26.757 22.0668 26.7754C22.1199 26.7937 23.1727 27.6579 24.4064 28.6959Z" fill="black"/>
</svg>
