<svg width="39" height="40" viewBox="0 0 39 40" fill="none" xmlns="http://www.w3.org/2000/svg">
<path d="M34.5001 20.5006C33.9993 7.99913 19.4995 14.9999 24.0001 21.5006C16.4998 24.5 19.4997 35.5 28.4995 31.4999C32.9998 35.5 43.9998 27.5 34.5001 20.5006Z" fill="#3B0CFA"/>
<circle cx="34.5" cy="4.5" r="3.5" fill="#FA0C54"/>
<path d="M12.4997 13.4995C2.89965 12.6995 0.333025 19.1667 0.499692 22.5C0.649756 25.5 2.99962 32 9.99962 32C15.5996 32 18.6663 26.6667 19.4996 24C15.8996 21.6 13.333 15.9997 12.4997 13.4995Z" fill="#CBFA0C"/>
<path d="M19.4998 1C8.29984 9.8 14.4998 19.3333 18.9998 23L22.9998 21.5C22.5998 17.5 24.8331 14.8333 25.9998 14C26.7998 7.2 21.9998 2.5 19.4998 1Z" fill="#0CFAB2" stroke="black"/>
<path fill-rule="evenodd" clip-rule="evenodd" d="M18.8217 0.279627C16.6094 1.58841 14.5571 3.8738 13.4257 6.28852C12.6145 8.01991 12.0996 10.2518 12.0996 12.0373C12.0996 12.5176 12.0846 12.5741 11.9663 12.538C11.893 12.5156 11.4483 12.4595 10.9782 12.4133C9.47405 12.2656 7.7422 12.5297 6.26394 13.1324C4.00872 14.0518 2.00875 15.9502 0.977914 18.1499C0.585857 18.9866 0.5448 19.1965 0.716339 19.4869C0.939904 19.8655 1.45734 20.002 1.78869 19.7698C1.87583 19.7088 2.1374 19.2706 2.36988 18.7962C3.72109 16.0387 6.28321 14.2483 9.3198 13.9394C10.1322 13.8568 11.3318 13.926 11.9443 14.091L12.2208 14.1655L12.3584 14.9023C12.9866 18.2656 14.9376 21.3677 17.7554 23.4833C18.2057 23.8214 18.5742 24.1325 18.5742 24.1745C18.5742 24.4174 18.2088 25.5033 17.9204 26.1168C16.6589 28.8018 14.1691 30.6474 11.2808 31.0383L10.8809 31.0924V29.6184V28.1443L12.7024 26.324C13.8995 25.1277 14.5368 24.4359 14.5616 24.3061C14.6566 23.809 14.1322 23.2983 13.6502 23.4184C13.5107 23.4531 12.9748 23.9273 12.1567 24.7397L10.8809 26.0068V23.0505V20.0941L10.6122 19.8255C10.3739 19.5872 10.3116 19.562 10.06 19.602C9.87837 19.6309 9.70104 19.7306 9.5669 19.8794L9.35743 20.1118V21.4233V22.7347L8.51824 21.8981C7.69551 21.0779 7.6722 21.0615 7.33095 21.0615C6.87621 21.0615 6.61524 21.3322 6.61524 21.8037C6.61524 22.11 6.65249 22.156 7.98634 23.497L9.35743 24.8754V27.9814V31.0875L8.99561 31.0352C7.63427 30.8389 6.03961 30.1846 4.98768 29.3907C3.82667 28.5146 2.88655 27.349 2.27718 26.0301C1.9421 25.3047 1.76561 25.1367 1.33897 25.1367C1.00869 25.1367 0.713064 25.3729 0.630189 25.7031C0.564453 25.9649 0.816048 26.6298 1.30241 27.48C2.85426 30.1923 5.49734 32.0198 8.57667 32.5095L9.35743 32.6336V35.0551V37.4766H4.97374C1.32868 37.4766 0.554703 37.4948 0.380193 37.5851C-0.126731 37.8473 -0.126731 38.6293 0.380193 38.8915C0.696306 39.0549 38.2803 39.0549 38.5964 38.8915C39.1033 38.6293 39.1033 37.8473 38.5964 37.5851C38.4215 37.4947 37.6171 37.4766 33.7743 37.4766H29.1621V35.069C29.1621 32.8056 29.1701 32.6648 29.2954 32.7173C29.802 32.9296 30.6322 33.1437 31.2309 33.2165C34.2268 33.5808 37.2438 31.8248 38.4143 29.0356C38.8414 28.0181 38.9512 27.4368 38.9421 26.2412C38.9327 24.9832 38.7935 24.3639 38.2773 23.2816C37.7286 22.1312 36.8698 21.146 35.8291 20.473L35.3741 20.1788L35.3956 19.3252C35.4199 18.3616 35.301 17.6148 34.9929 16.7959C34.2689 14.8713 32.5409 13.3218 30.4951 12.7625C29.762 12.5621 28.3398 12.5329 27.5435 12.702L26.877 12.8435V12.1697C26.877 8.40336 25.2248 4.6199 22.4492 2.02983C21.3697 1.02261 19.8795 0 19.491 0C19.3829 0 19.0817 0.125836 18.8217 0.279627ZM33.4658 0.113115C31.7985 0.481711 30.4689 1.78166 30.0398 3.46277C29.8895 4.05128 29.8918 5.07137 30.0446 5.66384C30.448 7.22764 31.7551 8.52698 33.3516 8.95134C33.8971 9.09629 34.952 9.09492 35.5255 8.94852C37.4469 8.45805 38.8257 6.81289 38.9646 4.84552C39.057 3.53628 38.5952 2.33025 37.6334 1.36942C36.4982 0.235295 34.9815 -0.221889 33.4658 0.113115ZM35.4844 1.7093C35.9418 1.87002 36.5205 2.31738 36.8719 2.7821C37.794 4.00131 37.5953 5.7458 36.4109 6.83163C36.2993 6.93393 35.9852 7.12679 35.7129 7.26025C35.2511 7.48655 35.1639 7.50285 34.418 7.50179C33.6876 7.50064 33.5785 7.48107 33.1611 7.27578C32.5748 6.98747 31.9933 6.40727 31.7092 5.82715C31.5048 5.40973 31.4854 5.3008 31.4854 4.57031C31.4854 3.85803 31.5081 3.72183 31.6937 3.32582C32.2424 2.15452 33.3334 1.48307 34.5703 1.55543C34.8845 1.57386 35.2959 1.6431 35.4844 1.7093ZM19.9898 1.99045C21.1344 2.78972 22.0469 3.68428 22.9323 4.875C24.5565 7.0593 25.4551 9.98705 25.3352 12.7043L25.296 13.5922L25.0391 13.7796C24.5242 14.1553 23.5361 15.2277 23.23 15.7431C22.5445 16.897 22.2639 18.0556 22.3229 19.4887L22.3607 20.4072L21.6291 21.1188C21.2267 21.5102 20.7518 21.9431 20.5737 22.0808L20.25 22.3312V17.8868V13.4425L21.4359 12.2628C22.0881 11.6139 22.673 10.9863 22.7356 10.868C22.9755 10.4151 22.573 9.82617 22.0235 9.82617C21.7828 9.82617 21.6673 9.90958 21.0011 10.564L20.25 11.3019V9.60817C20.25 7.76648 20.2142 7.57712 19.8332 7.40353C19.5806 7.28843 19.396 7.28843 19.1434 7.40353C18.7294 7.59213 18.7266 7.61909 18.7266 11.3994V14.8846L17.6731 13.8407C16.6975 12.874 16.5986 12.7969 16.3351 12.7969C15.9669 12.7969 15.7861 12.8983 15.6357 13.1892C15.3958 13.6531 15.4821 13.7815 17.165 15.4629L18.7266 17.023V19.6771V22.3312L18.4033 22.0772C16.0882 20.2587 14.4206 17.5091 13.8515 14.5716C12.9243 9.78649 14.958 4.80378 18.9868 1.99045C19.2346 1.81738 19.4603 1.67578 19.4883 1.67578C19.5163 1.67578 19.742 1.81738 19.9898 1.99045ZM30.4445 14.3429C31.2499 14.6242 31.7842 14.9659 32.4355 15.6162C33.639 16.8177 34.1025 18.3801 33.7921 20.1895C33.6704 20.8995 33.7428 21.023 34.5538 21.4888C35.6837 22.138 36.3506 22.8251 36.8845 23.8902C37.3061 24.7313 37.4227 25.2685 37.4191 26.3555C37.4155 27.4451 37.2557 28.0656 36.739 28.9961C36.3927 29.6197 35.409 30.6233 34.7863 30.9883C33.7957 31.5689 32.4412 31.8526 31.3776 31.7021C30.7049 31.607 29.9346 31.3709 29.4982 31.1262L29.2002 30.9591L29.18 28.6782L29.1598 26.3972L30.7182 24.8339C31.7206 23.8282 32.2948 23.1952 32.3276 23.0596C32.4396 22.5966 32.0477 22.166 31.5143 22.166C31.3013 22.166 31.1307 22.3031 30.2156 23.2099L29.1621 24.2537V23.436C29.1621 22.4351 29.06 22.1349 28.6632 21.9691C28.4431 21.8771 28.3348 21.8712 28.1275 21.9396C27.6379 22.1011 27.6387 22.0969 27.6387 24.7348C27.6387 26.0451 27.6147 27.1172 27.5853 27.1172C27.5559 27.1172 27.1158 26.7059 26.6073 26.2031C25.6971 25.3032 25.6773 25.2891 25.3345 25.2891C25.0391 25.2891 24.9563 25.3246 24.789 25.5234C24.6569 25.6804 24.5918 25.8482 24.5918 26.0317C24.5918 26.2857 24.7021 26.4166 26.118 27.8436L27.6442 29.3818L27.6224 30.1654L27.6006 30.949L27.1482 31.1993C26.1918 31.7286 24.6471 31.8843 23.6264 31.5544C22.0139 31.0333 20.8166 29.765 20.4002 28.1372C20.0064 26.5974 20.4384 24.9778 21.5561 23.8037C22.1474 23.1825 22.6669 22.8486 23.4912 22.5595C24.4251 22.2321 24.5565 21.9373 24.184 21.0061C23.1704 18.4725 24.3476 15.6123 26.8636 14.4959C27.5588 14.1875 28.1201 14.091 29.0479 14.1208C29.7013 14.1418 30.0088 14.1907 30.4445 14.3429ZM0.470076 21.8207C-0.285245 22.1474 -0.0747056 23.2324 0.74399 23.2324C1.47372 23.2324 1.79272 22.2908 1.1915 21.9114C0.908064 21.7325 0.726851 21.7097 0.470076 21.8207ZM18.7266 32.7158V37.4766H14.8037H10.8809V35.0551V32.6336L11.6792 32.507C14.2498 32.0992 16.6477 30.6652 18.1925 28.6119C18.4642 28.2507 18.6956 27.9551 18.7066 27.9551C18.7176 27.9551 18.7266 30.0974 18.7266 32.7158ZM21.7727 32.3778C22.9314 33.0662 24.3958 33.381 25.6759 33.2169C26.0626 33.1673 26.6289 33.0428 26.9343 32.9403C27.2397 32.8378 27.5231 32.7539 27.5641 32.7539C27.6112 32.7539 27.6387 33.6256 27.6387 35.1152V37.4766H23.9443H20.25V34.3067V31.1369L20.7428 31.5978C21.0139 31.8513 21.4773 32.2023 21.7727 32.3778Z" fill="black"/>
</svg>
