<svg width="39" height="27" viewBox="0 0 39 27" fill="none" xmlns="http://www.w3.org/2000/svg">
<ellipse cx="19.5" cy="7" rx="6.5" ry="6" fill="#CBFA0C"/>
<ellipse cx="8.5" cy="9" rx="5.5" ry="5" fill="#FA0C54"/>
<path d="M35 9C35.396 11.8527 32.9675 14.1096 29.5 14C26.4624 14 25.5 11.7614 25.5 9C25.5 6.23858 26.4624 4 29.5 4C32.5376 4 35 6.23858 35 9Z" fill="#3B0CFA"/>
<path d="M10.1167 15.0833C3.05703 14.1916 0 20.5 0.99991 24.4993L15.9998 23.9997C15.6321 21.399 15.9998 15.8263 10.1167 15.0833Z" fill="#FA0C54"/>
<path d="M31 15C19.7758 12.9605 18.629 21.6654 20.037 24.9971H38.9993C37.7089 23.0681 37.936 16.2603 31 15Z" fill="#3B0CFA"/>
<path fill-rule="evenodd" clip-rule="evenodd" d="M18.8906 0.0339631C17.3061 0.201998 15.8447 0.86774 14.6907 1.9474C13.9415 2.64818 13.1887 3.7964 12.9457 4.60877C12.8925 4.78686 12.836 4.9325 12.8201 4.9325C12.8043 4.9325 12.5688 4.76195 12.2968 4.55347C10.254 2.98768 7.37397 2.92217 5.27856 4.39374C3.13287 5.90057 2.24166 8.62303 3.08367 11.0986C3.51579 12.3691 4.39055 13.4968 5.45345 14.1537L5.72112 14.3192L4.89816 14.7172C2.23702 16.0041 0.450557 18.5121 0.0778477 21.4845C0.0350391 21.8259 0 22.7965 0 23.6413C0 25.04 0.0130254 25.1934 0.145564 25.3572L0.291129 25.537L4.71588 25.5579L9.14062 25.5787V25.8089C9.14062 26.1002 9.41888 26.3875 9.76051 26.4488C9.90135 26.4741 14.3814 26.485 19.7161 26.4729L29.4155 26.4511L29.5994 26.2373C29.7037 26.1161 29.7832 25.9266 29.7832 25.7993V25.5751H34.169H38.5547L38.7773 25.3524L39 25.1298L38.9995 23.5433C38.9992 22.5338 38.9582 21.6854 38.8866 21.2102C38.4695 18.4429 36.7393 16.0618 34.2248 14.7945C33.8557 14.6085 33.5109 14.4557 33.4585 14.4551C33.2716 14.4529 33.37 14.3312 33.8283 13.9974C36.3882 12.1333 36.9527 8.4329 35.0781 5.80573C34.282 4.6902 33.0855 3.90068 31.6021 3.5122C30.8719 3.32101 29.6006 3.3399 28.8311 3.55356C28.0599 3.7676 27.2436 4.15783 26.7484 4.54928C26.5365 4.7167 26.3273 4.86288 26.2834 4.87408C26.2395 4.88527 26.0855 4.62522 25.9412 4.29616C25.5645 3.43702 25.2419 2.93078 24.6883 2.33009C23.1687 0.6815 20.9754 -0.187088 18.8906 0.0339631ZM20.6267 1.47285C22.654 1.88882 24.3407 3.47366 24.9205 5.50722C25.1417 6.28303 25.1574 7.67568 24.9536 8.43641C24.427 10.4016 22.8605 11.9626 20.893 12.4828C20.0711 12.7001 18.8416 12.7007 18.0309 12.4843C16.8274 12.163 15.6577 11.3941 14.9567 10.4633C14.1432 9.38315 13.7778 8.30806 13.776 6.98914C13.771 3.39276 17.0633 0.741752 20.6267 1.47285ZM9.48066 4.74123C10.3797 4.90142 11.1081 5.29089 11.8257 5.9954L12.416 6.57484V7.03865C12.416 7.70935 12.6095 8.71801 12.8773 9.44355C13.1613 10.2127 13.1421 10.4278 12.7097 11.3232C12.1333 12.5167 10.9265 13.4668 9.59766 13.7733C8.96573 13.919 7.89971 13.8848 7.3125 13.6999C5.90972 13.2581 4.73949 12.1089 4.25382 10.6962C4.0298 10.0442 3.97716 8.86853 4.14253 8.20743C4.5499 6.5785 5.86569 5.22523 7.42676 4.82967C8.2923 4.61029 8.6577 4.5946 9.48066 4.74123ZM31.3478 4.81992C33.305 5.31961 34.6737 6.9835 34.7869 9.00069C34.8799 10.6592 34.1632 12.1397 32.8295 13.0443C32.0716 13.5584 31.3977 13.7778 30.4302 13.8254C28.3686 13.9269 26.6292 12.7661 25.9211 10.8162C25.7146 10.2476 25.7192 10.1686 26.0065 9.35732C26.2312 8.72304 26.4309 7.61459 26.4313 6.99958C26.4316 6.59366 26.4351 6.58764 26.9839 6.0443C27.5972 5.43706 28.3442 5.00052 29.0706 4.82464C29.6713 4.67923 30.7877 4.67687 31.3478 4.81992ZM15.4895 12.7291L15.9321 13.0229L15.1999 13.3176C14.4181 13.6322 13.7007 14.027 13.0291 14.5123L12.6139 14.8124L12.1912 14.6229C11.6239 14.3684 11.5986 14.3343 11.8725 14.1927C12.4623 13.8877 13.5196 12.7008 13.9343 11.8782L14.0999 11.5496L14.5734 11.9925C14.8339 12.2361 15.2461 12.5676 15.4895 12.7291ZM25.1367 12.2541C25.4692 12.8403 26.2139 13.6524 26.7704 14.0356C27.003 14.1958 27.1934 14.3495 27.1934 14.377C27.1934 14.4045 26.9804 14.5145 26.72 14.6213L26.2467 14.8154L25.6727 14.417C24.8468 13.844 24.4586 13.6327 23.6383 13.31L22.9108 13.0239L23.3573 12.7189C23.6028 12.5512 24.0094 12.2241 24.2607 11.9921C24.7738 11.5185 24.7083 11.499 25.1367 12.2541ZM22.2274 14.2524C24.7741 14.9742 26.8765 16.8689 27.8113 19.285C28.2349 20.3795 28.3362 21.0656 28.3883 23.1947L28.4354 25.118H19.4355H10.4355V23.2999C10.4355 21.3107 10.5209 20.5722 10.8674 19.5616C11.6974 17.1406 13.6749 15.1777 16.0818 14.3854C17.1215 14.0433 17.5198 14.0025 19.5762 14.0277C21.4064 14.0501 21.5595 14.0631 22.2274 14.2524ZM10.1309 15.3345C10.6955 15.4636 11.5781 15.7446 11.5781 15.7952C11.5781 15.8139 11.3971 16.0486 11.1759 16.3168C10.4046 17.2519 9.77483 18.551 9.39176 19.997C9.21809 20.6525 9.19006 20.9405 9.149 22.4901L9.10254 24.2421H5.17969H1.25684L1.26163 22.9852C1.26689 21.5976 1.35845 20.9638 1.68386 20.0626C2.34518 18.231 3.62936 16.7884 5.37012 15.9216C6.10221 15.5571 6.87733 15.3365 7.95996 15.1845C8.35377 15.1293 9.61396 15.2164 10.1309 15.3345ZM31.7637 15.3411C33.9014 15.7773 35.836 17.2802 36.8478 19.2909C37.4006 20.3894 37.6289 21.5521 37.6289 23.2689V24.2802H33.7173H29.8058L29.7598 22.6996C29.7102 20.9943 29.576 20.1262 29.2009 19.0819C28.819 18.0191 28.2064 16.9317 27.5416 16.1362L27.2605 15.7999L27.5126 15.6933C28.7345 15.1767 30.3158 15.0457 31.7637 15.3411Z" fill="black"/>
<path d="M21.0001 13.5001C11.4001 12.3001 9.66677 21.0001 10.0001 25.5001H29C28.5 22 29 14.5001 21.0001 13.5001Z" fill="#CBFA0C" stroke="black"/>
</svg>
