<svg width="36" height="39" viewBox="0 0 36 39" fill="none" xmlns="http://www.w3.org/2000/svg">
<path d="M15.5 4C15.5 5.38071 13.8807 7 12.5 7C11.1193 7 10 5.88071 10 4.5C10 3.11929 11.1193 2 12.5 2C13.8807 2 15.5 2.61929 15.5 4Z" fill="#CBFA0C"/>
<path d="M15.3943 14.6137C18.0272 13.5735 22.3473 15.4725 23.3981 18.1319C24.0002 21 22.1331 23.4597 19.5002 24.5C16.8674 25.5403 14.9144 24.5585 13.8636 21.899C12.8129 19.2396 12.7615 15.654 15.3943 14.6137Z" fill="#FA0C54"/>
<path d="M33.5 30.5C34.7193 32.0985 32.6508 33.0456 31 33C29.6193 33 28.5 31.8807 28.5 30.5C28.5 29.1193 29.6193 28 31 28C32.3807 28 33.5 29.1193 33.5 30.5Z" fill="#3B0CFA"/>
<path d="M9 30.5C10.2193 32.0985 8.1508 33.0456 6.5 33C5.11929 33 4 31.8807 4 30.5C4 29.1193 5.11929 28 6.5 28C7.88071 28 9 29.1193 9 30.5Z" fill="#0CFAB2"/>
<path fill-rule="evenodd" clip-rule="evenodd" d="M17.0014 0.103072C16.3841 0.237439 15.6585 0.57907 15.0844 1.00548L14.6119 1.35648L14.2465 1.19256C13.6858 0.940886 12.6407 0.91255 11.9835 1.13124C10.0594 1.77154 9.18278 3.95744 10.1155 5.78892C10.1927 5.9405 10.4289 6.2538 10.6403 6.48513C10.8518 6.71647 11.0248 6.94254 11.0248 6.98749C11.0248 7.03235 10.9561 7.25279 10.872 7.47727L10.7193 7.8854L10.2055 7.81273C9.92294 7.77282 8.90338 7.7377 7.9398 7.73481C6.04427 7.72902 5.38576 7.80618 4.05504 8.18994C2.07366 8.76138 0.660134 10.0187 0.179718 11.637C-0.406958 13.6131 0.452947 16.1968 2.60968 18.9382L3.04378 19.4899L2.47493 20.2331C0.0544918 23.3954 -0.58063 26.0031 0.531785 28.2126C0.854753 28.8541 1.83425 29.8104 2.54623 30.1794C3.08964 30.461 3.09451 30.4662 3.14037 30.8233C3.27024 31.834 3.52123 32.3942 4.1063 32.9792C4.5631 33.436 5.23045 33.777 5.91797 33.9048C6.76683 34.0627 7.77025 33.784 8.54202 33.1761C8.92021 32.8782 9.39598 32.1449 9.54604 31.6289C9.66144 31.2317 9.66418 31.2291 10.0198 31.1841C10.2164 31.1592 10.4527 31.1282 10.5449 31.1152C10.6443 31.1011 10.7322 31.1412 10.7611 31.2136C10.7878 31.2807 10.8957 31.5755 11.0009 31.8688C11.2924 32.6815 12.0702 34.2978 12.5589 35.1061C15.0498 39.2267 18.4896 40.1374 21.4777 37.4673C22.6994 36.3755 23.9671 34.3215 24.8573 31.9914C25.0397 31.5141 25.1983 31.1157 25.2099 31.1059C25.2214 31.0963 25.4536 31.1149 25.7259 31.1474C25.9983 31.1799 26.5675 31.2303 26.9908 31.2594L27.7607 31.3124L27.9333 31.7289C28.5897 33.3125 30.418 34.1307 32.0094 33.553C32.9125 33.2252 33.4857 32.7068 33.8932 31.8491C34.144 31.3215 34.2627 30.6035 34.1859 30.0788C34.136 29.7374 34.138 29.7336 34.6515 29.1857C36.685 27.0156 36.2667 23.9288 33.4383 20.2335L32.8698 19.4909L33.4383 18.7482C34.8172 16.9467 35.5614 15.4378 35.8288 13.9015C36.25 11.4813 35.0655 9.46475 32.6292 8.45402C31.8646 8.13684 30.6041 7.84777 29.725 7.78798C29.0908 7.74479 29.0285 7.75347 28.8945 7.903C28.71 8.10881 28.7181 8.50133 28.9108 8.69404C29.0172 8.80045 29.2343 8.86124 29.6892 8.91212C30.8813 9.0455 32.049 9.37502 32.8445 9.80249C33.3907 10.096 34.1924 10.9131 34.4283 11.4167C35.1008 12.8526 34.7061 14.7914 33.2922 16.9972C32.8954 17.6162 32.1469 18.5768 32.0614 18.5768C32.0303 18.5768 31.8176 18.3853 31.5886 18.1512C30.5983 17.1389 28.8274 15.6788 27.3466 14.654L26.5763 14.1208L26.4868 13.4733C26.364 12.5844 25.914 10.3512 25.7272 9.70301C25.6428 9.4099 25.5736 9.13058 25.5736 9.08237C25.5736 9.02866 25.788 8.9758 26.1258 8.94625C27.5154 8.82445 27.7064 8.74203 27.7064 8.26435C27.7064 7.83855 27.4931 7.71836 26.7838 7.74433C26.4531 7.75644 25.961 7.793 25.6904 7.82561C25.2778 7.87527 25.1906 7.8656 25.1507 7.76551C25.1246 7.69985 25.0171 7.4062 24.9119 7.11294C24.6263 6.31679 23.8468 4.69052 23.3784 3.91372C21.5968 0.959168 19.3197 -0.401567 17.0014 0.103072ZM19.1481 1.3772C21.0054 2.12742 22.7489 4.45553 23.9394 7.7751L24.0403 8.05633L23.6072 8.14042C22.5239 8.35073 20.5436 8.8796 19.3085 9.28841L17.9564 9.73592L16.6044 9.28841C15.3696 8.87975 13.3887 8.35066 12.3067 8.14065L11.8747 8.05679L11.991 7.71561C12.0769 7.46333 12.1399 7.3835 12.2325 7.40948C13.1719 7.67273 14.4176 7.34999 15.2142 6.63702C16.0749 5.86669 16.4712 4.55768 16.1771 3.45669C16.0641 3.03371 15.795 2.46455 15.6072 2.25112C15.4935 2.12193 15.4981 2.10152 15.6732 1.96448C15.9832 1.7218 16.9039 1.28808 17.2709 1.21175C17.8097 1.09978 18.6429 1.17321 19.1481 1.3772ZM13.8812 2.30314C14.9859 2.81936 15.4401 4.08473 14.9051 5.15532C14.5117 5.94256 13.8731 6.34117 13.0052 6.34117C12.1373 6.34117 11.4988 5.94256 11.1054 5.15532C10.4034 3.75064 11.4225 2.12521 13.0052 2.12521C13.3647 2.12521 13.6047 2.17396 13.8812 2.30314ZM9.45989 8.9061C9.91898 8.9496 10.3088 8.99949 10.3263 9.01701C10.3438 9.03445 10.2524 9.47016 10.1232 9.98515C9.84852 11.0804 9.55404 12.5572 9.42759 13.4733L9.33824 14.1208L8.72072 14.5397C7.32715 15.4852 5.31652 17.1369 4.32423 18.1512C4.09526 18.3853 3.88251 18.5768 3.85143 18.5768C3.76589 18.5768 3.01743 17.6162 2.62065 16.9972C0.934734 14.3671 0.704847 12.1374 1.9712 10.6987C3.22286 9.27683 6.10178 8.58763 9.45989 8.9061ZM13.6527 9.62372C14.3649 9.80287 15.2536 10.0456 15.6275 10.163L16.3074 10.3765L15.8941 10.5676C14.5393 11.1936 12.4563 12.2455 11.6456 12.7128C11.1283 13.011 10.6867 13.2368 10.6645 13.2145C10.6063 13.1563 10.8366 11.9622 11.1927 10.4759L11.5002 9.19243L11.929 9.24514C12.1648 9.27417 12.9405 9.44449 13.6527 9.62372ZM24.7249 10.4835C25.0698 11.9097 25.3071 13.1557 25.2456 13.2173C25.2233 13.2396 24.9187 13.0889 24.5689 12.8822C23.6137 12.318 21.8507 11.4141 20.7367 10.9174C20.1921 10.6747 19.7186 10.4524 19.6845 10.4236C19.5365 10.2982 23.4994 9.24088 24.2142 9.21498C24.4134 9.20774 24.4206 9.22557 24.7249 10.4835ZM19.0777 11.428C20.4257 11.9802 22.9477 13.2521 24.3311 14.0775L25.4881 14.7678L25.5296 15.0917C25.8094 17.2734 25.8094 21.7084 25.5296 23.89L25.4881 24.2139L24.3311 24.9043C22.9248 25.7434 20.4241 27.0016 19.0042 27.5844L17.9572 28.0143L17.0237 27.6339C15.6591 27.078 12.912 25.7006 11.5817 24.9055L10.4248 24.2139L10.3832 23.89C10.1034 21.7084 10.1034 17.2734 10.3832 15.0917L10.4248 14.7678L11.5817 14.0773C13.5152 12.9233 17.7242 10.9085 18.0112 10.9998C18.0624 11.016 18.5422 11.2087 19.0777 11.428ZM16.9477 13.6991C14.8034 14.091 13.061 15.6344 12.3438 17.777C12.16 18.326 12.1398 18.4957 12.1398 19.4909C12.1398 20.4861 12.16 20.6557 12.3438 21.2047C12.9838 23.1167 14.3332 24.4658 16.2425 25.1028C16.7814 25.2826 16.9753 25.3067 17.9183 25.3121C19.1466 25.3189 19.6725 25.195 20.7367 24.6477C21.6459 24.1802 22.6838 23.1243 23.1477 22.195C23.3359 21.8179 23.5529 21.2765 23.6299 20.9918C23.7682 20.4807 23.768 20.4714 23.6169 20.2681C23.4484 20.0414 23.0907 19.9615 22.8414 20.0949C22.7513 20.1431 22.6253 20.3791 22.5237 20.6898C22.1538 21.8223 21.4941 22.7784 20.7109 23.3171C19.5768 24.0974 18.2376 24.3753 16.9379 24.1C15.214 23.7348 13.7125 22.2333 13.3472 20.5094C13.0022 18.8806 13.4561 17.3594 14.6405 16.175C15.8282 14.9874 17.2841 14.5494 18.9207 14.8874C20.6553 15.2457 21.9184 16.4392 22.5237 18.2919C22.6253 18.6026 22.7513 18.8386 22.8414 18.8868C23.0907 19.0203 23.4484 18.9404 23.6169 18.7136C23.768 18.5103 23.7682 18.501 23.6299 17.99C23.5529 17.7052 23.3359 17.1638 23.1477 16.7868C22.8631 16.2166 22.6826 15.9788 22.0758 15.3743C21.2796 14.5812 20.6109 14.1721 19.5941 13.8559C18.9962 13.67 17.5696 13.5855 16.9477 13.6991ZM9.10165 16.463C9.06905 16.8924 9.04232 18.255 9.04232 19.4909C9.04232 20.7268 9.06905 22.0893 9.10165 22.5187C9.13433 22.9481 9.14088 23.2995 9.11613 23.2995C8.90825 23.2995 6.4006 21.2537 5.31919 20.2019L4.58824 19.4909L5.31919 18.7799C6.4006 17.728 8.90825 15.6823 9.11613 15.6823C9.14088 15.6823 9.13433 16.0337 9.10165 16.463ZM27.7553 16.3574C28.7088 17.0701 30.3043 18.4464 30.9437 19.1079L31.3246 19.5019L30.5936 20.2073C29.4907 21.2718 27.0008 23.2995 26.7967 23.2995C26.7719 23.2995 26.7785 22.9481 26.8112 22.5187C26.8438 22.0893 26.8705 20.7268 26.8705 19.4909C26.8705 18.255 26.8438 16.8924 26.8112 16.463C26.7785 16.0337 26.7744 15.6823 26.8019 15.6823C26.8295 15.6823 27.2586 15.9861 27.7553 16.3574ZM4.32423 20.8305C5.3134 21.8418 7.08249 23.3005 8.56556 24.3278L9.33527 24.861L9.42218 25.4704C9.57666 26.5544 9.80701 27.731 10.0831 28.8467C10.2317 29.4468 10.3414 29.9493 10.3271 29.9633C10.3129 29.9772 10.1512 30.0004 9.96811 30.0147C9.63867 30.0404 9.63402 30.0373 9.54261 29.736C8.84579 27.4379 5.98881 26.6548 4.20144 28.2721C3.98869 28.4646 3.73161 28.7784 3.63023 28.9695C3.52884 29.1607 3.42449 29.317 3.39828 29.317C3.22956 29.317 2.53571 28.8341 2.14526 28.445C0.892763 27.1966 0.830607 25.394 1.96252 23.1427C2.46526 22.1429 3.66428 20.4049 3.85143 20.4049C3.88251 20.4049 4.09526 20.5964 4.32423 20.8305ZM32.5294 20.9206C33.0583 21.5836 33.5639 22.3742 33.9503 23.1427C35.0124 25.2552 35.0164 27.0708 33.9616 28.2594L33.6699 28.5882L33.2818 28.1898C32.82 27.7156 31.9969 27.2935 31.3851 27.2171C30.8132 27.1456 29.9978 27.2928 29.4593 27.5646C28.6262 27.9852 27.865 28.982 27.7399 29.8162C27.698 30.0958 27.6607 30.1549 27.5263 30.1542C27.2222 30.153 25.6214 29.9995 25.5904 29.9686C25.5735 29.9517 25.6811 29.4468 25.8297 28.8467C26.1058 27.731 26.3362 26.5544 26.4906 25.4704L26.5775 24.861L27.3473 24.3278C28.8303 23.3005 30.5994 21.8418 31.5886 20.8305C31.8176 20.5964 32.0303 20.4049 32.0614 20.4049C32.0925 20.4049 32.3031 20.637 32.5294 20.9206ZM11.6546 26.2756C12.4518 26.7365 14.4587 27.7486 15.8941 28.4137L16.3074 28.6052L15.6373 28.8142C14.3457 29.2168 12.0225 29.7741 11.6352 29.7741C11.5264 29.7741 11.454 29.5884 11.2567 28.8029C11.0256 27.8827 10.6452 26.0375 10.6443 25.8322C10.6441 25.7798 10.6617 25.737 10.6834 25.737C10.705 25.737 11.1421 25.9793 11.6546 26.2756ZM25.2689 25.8262C25.2689 26.0435 25.0076 27.3258 24.7244 28.4982C24.468 29.5597 24.3933 29.7741 24.2797 29.7741C23.8696 29.7741 21.1968 29.1217 20.1373 28.7631L19.614 28.586L20.5181 28.1813C21.6145 27.6906 23.6595 26.6391 24.5228 26.122C25.2015 25.7156 25.2689 25.6889 25.2689 25.8262ZM31.6362 28.4658C32.6108 28.8027 33.197 29.7947 33.0333 30.8303C32.9578 31.3077 32.7996 31.6125 32.4416 31.9706C31.9913 32.4208 31.6487 32.5543 30.9437 32.5543C30.2387 32.5543 29.8961 32.4208 29.4459 31.9706C29.0878 31.6125 28.9296 31.3077 28.8542 30.8303C28.7358 30.0816 29.0495 29.2569 29.6315 28.7871C29.9273 28.5483 30.5513 28.3318 30.9437 28.3318C31.1113 28.3318 31.4229 28.3921 31.6362 28.4658ZM7.35359 28.7884C8.01407 29.1185 8.39653 29.6253 8.50553 30.3152C8.66633 31.3322 8.10464 32.312 7.15615 32.6692C5.92087 33.1345 4.56646 32.3668 4.33314 31.069C4.09061 29.7198 5.04184 28.5784 6.42322 28.5611C6.7957 28.5565 6.97905 28.6013 7.35359 28.7884ZM18.9776 29.5798C20.4069 30.0655 21.6878 30.4237 22.8083 30.6511C23.3447 30.76 23.8418 30.8729 23.913 30.902C24.0288 30.9491 24.0071 31.0448 23.711 31.7989C22.5164 34.8402 20.918 36.8728 19.1377 37.6145C18.4808 37.8881 17.432 37.8881 16.7751 37.6145C14.9946 36.8728 13.3907 34.8329 12.2033 31.7999C12.0218 31.3362 11.8803 30.9499 11.8889 30.9413C11.8974 30.9326 12.4692 30.8006 13.1594 30.6476C14.4536 30.3609 16.4767 29.7776 17.347 29.4402C17.6193 29.3346 17.8732 29.2467 17.9112 29.2446C17.9492 29.2425 18.4291 29.3934 18.9776 29.5798Z" fill="black"/>
</svg>
