<svg width="39" height="39" viewBox="0 0 39 39" fill="none" xmlns="http://www.w3.org/2000/svg">
<path d="M10 21.9992L8 23.4992L7 23.9995L15 31.4995L16.5 28.9995L18.5 30.4995L34.5 14.4995L36.5 9.99954C38.5 4.79954 38 1.83262 37.5 0.999165C33.1 -0.200835 26 3 23.5 4.99917L8.5 19.9992L10 21.9992Z" fill="#0CFAB2"/>
<path d="M19.5 35.5L19 30L27 22.5L26.5 29.5L19.5 35.5Z" fill="#3B0CFA"/>
<path d="M9.5 12.5L16 11.5L8 20L4 19L9.5 12.5Z" fill="#3B0CFA"/>
<path d="M7.5 24L10 22L16.5 29L15 31.5L7.5 24Z" fill="#3B0CFA"/>
<path d="M28 13.5C28.2711 15.7112 26.7649 17.3366 24.5 17C22.567 17 21 15.433 21 13.5C21 11.567 22.567 10 24.5 10C26.433 10 28 11.567 28 13.5Z" fill="#FA0C54"/>
<path d="M37.9997 0.999588C38.3997 4.99959 37.4998 7.66625 36.9998 8.49959C30.5999 6.8996 29.9999 3.4996 30.4998 1.99959C31.6998 0.799588 35.9997 0.832921 37.9997 0.999588Z" fill="#CBFA0C"/>
<path fill-rule="evenodd" clip-rule="evenodd" d="M34.0899 0.0171861C33.2137 0.0883306 31.5098 0.379688 30.5856 0.61643C27.6022 1.38036 24.7279 2.8881 22.3975 4.91146C22.0833 5.18431 20.6094 6.61634 19.1222 8.09377L16.4181 10.78L12.8491 11.2423C10.8298 11.504 9.19269 11.7509 9.07859 11.8113C8.96776 11.8698 7.30888 13.4901 5.39217 15.4118C1.91812 18.8949 1.90731 18.9067 1.90731 19.2217C1.90731 19.4396 1.96055 19.5995 2.07877 19.737C2.2385 19.9226 2.43366 19.9706 4.91617 20.4333L7.58211 20.9303L8.09536 21.435C8.37765 21.7126 8.58332 21.9637 8.55239 21.9929C8.52146 22.0222 8.00357 22.3138 7.40151 22.6411C6.21445 23.2862 6.01914 23.4851 6.12921 23.937C6.16608 24.0883 7.4629 25.4373 10.3861 28.3651C14.9044 32.8907 14.8825 32.8719 15.3707 32.6194C15.5515 32.526 15.7383 32.2508 16.1909 31.4114C16.5133 30.8136 16.8004 30.2992 16.829 30.2682C16.8576 30.2373 17.1089 30.443 17.3876 30.7253L17.8943 31.2385L18.3903 33.9045C18.8511 36.3822 18.9002 36.5827 19.0846 36.7419C19.2219 36.8605 19.3808 36.9133 19.6005 36.9133C19.9175 36.9133 19.9236 36.9078 23.372 33.4665C25.2717 31.5709 26.8906 29.931 26.9696 29.8225C27.0855 29.6632 27.2026 28.9306 27.5784 26.0139L28.0436 22.4026L30.7706 19.6604C32.2705 18.1522 33.7509 16.6233 34.0604 16.2629C36.4909 13.4327 38.0982 9.82165 38.6765 5.89225C38.8159 4.94566 38.8604 1.99697 38.7491 1.0903C38.669 0.438264 38.4994 0.226126 37.9747 0.121465C37.5713 0.041104 34.734 -0.0350678 34.0899 0.0171861ZM37.2799 1.57376C37.3978 1.68131 37.354 4.57988 37.2195 5.56859C37.1149 6.33823 36.8574 7.69775 36.7554 8.01942C36.6867 8.23598 35.1721 7.72098 34.1671 7.13941C33.3824 6.68527 32.1608 5.48008 31.724 4.72918C31.1463 3.73582 30.6115 2.20202 30.8042 2.09097C31.1182 1.90998 33.7224 1.51419 34.8897 1.47009C35.6751 1.44038 37.2065 1.5068 37.2799 1.57376ZM29.4071 2.95971C29.8488 4.85715 31.0956 6.72854 32.7188 7.93045C33.6713 8.63565 35.0507 9.27778 35.9752 9.44627C36.1323 9.47491 36.2608 9.52785 36.2608 9.56396C36.2608 9.7061 35.5484 11.3192 35.1831 12.004C34.37 13.5289 33.5359 14.6765 32.1653 16.1565C31.6609 16.7011 28.3998 19.9917 24.9185 23.4688L18.5889 29.791L13.8275 25.0297L9.06625 20.2684L16.2841 13.0629C20.8062 8.54859 23.7346 5.68293 24.1247 5.3902C25.1477 4.62261 26.3209 3.88976 27.3056 3.40318C28.1145 3.00343 29.1145 2.57481 29.2644 2.56354C29.2917 2.56148 29.3559 2.73972 29.4071 2.95971ZM24.1876 9.56754C22.487 9.80375 20.9658 11.1659 20.5297 12.843C20.3643 13.479 20.3643 14.4922 20.5297 15.1282C20.9018 16.5592 22.0918 17.7978 23.5401 18.2614C24.1949 18.471 25.3667 18.4876 26.0117 18.2964C28.4362 17.5775 29.8256 15.1052 29.1275 12.7523C28.492 10.6103 26.3982 9.26049 24.1876 9.56754ZM25.7757 11.1571C26.5656 11.4177 27.1925 11.9808 27.5677 12.7668C27.7443 13.1367 27.7677 13.2795 27.7677 13.9856C27.7677 14.6917 27.7443 14.8344 27.5677 15.2043C27.0436 16.3023 26.024 16.9574 24.8423 16.9554C24.2072 16.9544 23.7263 16.8089 23.1973 16.4578C22.7031 16.1297 22.3943 15.7592 22.1107 15.1538C21.9296 14.7672 21.9024 14.6148 21.9024 13.9856C21.9024 13.3564 21.9296 13.204 22.1107 12.8174C22.2252 12.5729 22.4228 12.2417 22.5498 12.0814C22.8287 11.7293 23.5019 11.2698 23.9421 11.1313C24.4254 10.9791 25.2722 10.991 25.7757 11.1571ZM11.2383 15.964L7.73446 19.4658L6.00726 19.1435C5.05732 18.9662 4.2617 18.8028 4.23923 18.7804C4.21676 18.758 5.46332 17.475 7.0093 15.9295L9.8202 13.1194L12.2431 12.7989C13.5758 12.6226 14.6832 12.4747 14.7041 12.4703C14.725 12.4658 13.1654 14.038 11.2383 15.964ZM15.3291 29.9189L14.8946 30.7399L11.5239 27.3713C9.67006 25.5185 8.16231 23.9755 8.17336 23.9423C8.1844 23.9091 8.53578 23.697 8.9542 23.471L9.71493 23.0602L12.7393 26.0791L15.7636 29.0979L15.3291 29.9189ZM26.0243 26.5728L25.7107 28.991L22.8959 31.8066C21.3477 33.3552 20.0646 34.6058 20.0444 34.5857C20.0243 34.5655 19.8619 33.7699 19.6835 32.8176L19.3591 31.0862L22.8364 27.6044C24.749 25.6893 26.3192 24.1297 26.3258 24.1385C26.3325 24.1473 26.1968 25.2427 26.0243 26.5728ZM6.35178 27.5707C6.00505 27.9173 5.94442 28.0203 5.94442 28.2621C5.94442 28.658 6.2779 28.9914 6.67376 28.9914C6.91553 28.9914 7.01852 28.9308 7.36518 28.5841C7.71191 28.2374 7.77254 28.1344 7.77254 27.8927C7.77254 27.4968 7.43906 27.1633 7.0432 27.1633C6.80143 27.1633 6.69844 27.224 6.35178 27.5707ZM4.69946 29.2301C4.51056 29.3399 4.34237 29.7624 4.39737 29.9887C4.50599 30.4352 4.9957 30.6882 5.38943 30.5012C5.85301 30.2811 5.94602 29.5982 5.55617 29.2771C5.37618 29.1288 4.91701 29.1036 4.69946 29.2301ZM8.80086 29.2157C8.54698 29.3291 2.14877 35.7929 2.06369 36.022C2.00443 36.1814 2.01151 36.2998 2.0918 36.4919C2.22068 36.8004 2.4092 36.9133 2.79524 36.9133C3.0738 36.9133 3.19728 36.8002 6.35019 33.657C8.14662 31.866 9.66122 30.2978 9.71592 30.1721C9.84129 29.8839 9.78584 29.582 9.5702 29.3795C9.37413 29.1953 9.01689 29.1193 8.80086 29.2157ZM3.31649 30.7C3.1908 30.7567 2.39389 31.5028 1.54549 32.358C-0.10142 34.0183 -0.133488 34.0671 0.111556 34.5409C0.171275 34.6564 0.309984 34.7918 0.419824 34.8418C0.885006 35.0538 0.934441 35.0205 2.57793 33.3904C3.43326 32.542 4.18119 31.7365 4.23992 31.6003C4.39196 31.2483 4.224 30.8568 3.85487 30.7026C3.5418 30.5718 3.60038 30.5721 3.31649 30.7ZM9.23481 32.7429C8.37956 33.5912 7.63741 34.3826 7.58562 34.5013C7.37934 34.9741 7.7225 35.4661 8.25852 35.4661C8.5645 35.4661 8.60716 35.4302 10.1905 33.8422C11.7233 32.3048 11.8097 32.2031 11.8097 31.9321C11.8097 31.5322 11.4774 31.2004 11.0771 31.2004C10.8055 31.2004 10.7049 31.2846 9.23481 32.7429ZM6.24324 35.7649C5.924 36.0841 5.92896 36.518 6.25497 36.7923C6.84218 37.2864 7.63178 36.7647 7.39275 36.0405C7.22471 35.5313 6.62143 35.3867 6.24324 35.7649ZM4.44749 37.5492C3.96829 38.0284 3.90606 38.346 4.22408 38.6892C4.6057 39.101 5.04521 39.0284 5.56165 38.4681C5.80997 38.1986 5.86825 38.0792 5.86825 37.8395C5.86825 37.4258 5.58024 37.1418 5.16069 37.1418C4.89256 37.1418 4.80458 37.1921 4.44749 37.5492Z" fill="black"/>
</svg>
