<svg width="27" height="27" viewBox="0 0 27 27" fill="none" xmlns="http://www.w3.org/2000/svg">
                    <path fill-rule="evenodd" clip-rule="evenodd"
                        d="M3.8314 0.121152C3.67395 0.194481 2.98098 0.84697 1.83294 2.00276C-0.0633833 3.91197 -0.0662155 3.91582 0.0334515 4.44702C0.0890699 4.74359 0.449534 5.10403 0.746125 5.15964C1.28098 5.25997 1.27531 5.26425 3.24569 3.30069C5.17317 1.37998 5.24844 1.28357 5.16468 0.840523C5.10315 0.51467 4.90496 0.250035 4.62856 0.124586C4.30949 -0.0202645 4.13667 -0.0209875 3.8314 0.121152ZM9.28477 0.101207C9.00656 0.220209 0.286536 8.92087 0.11486 9.25076C-0.196976 9.84993 0.270748 10.6109 0.950943 10.6109C1.09683 10.6109 1.28935 10.5721 1.3789 10.5246C1.46838 10.4771 3.56693 8.40962 6.04234 5.93023C9.15347 2.81408 10.5558 1.36991 10.5842 1.2529C10.6436 1.00827 10.5769 0.613667 10.4456 0.433267C10.3084 0.244672 9.85927 0.00534351 9.64861 0.00859722C9.56449 0.00992281 9.40077 0.0515582 9.28477 0.101207ZM14.6779 0.12085C14.5785 0.183695 11.2517 3.48477 7.28504 7.45658C0.857543 13.8925 0.068582 14.7027 0.0323066 14.904C-0.0608526 15.4211 0.220613 15.8889 0.713827 16.0366C1.28291 16.2071 0.768842 16.6761 8.69749 8.75355C12.8158 4.63833 15.9553 1.45517 16.0107 1.33846C16.1318 1.08323 16.0935 0.657833 15.9293 0.436219C15.6204 0.0190814 15.0618 -0.121672 14.6779 0.12085ZM20.1915 0.0727676C19.9455 0.168993 0.253334 19.8785 0.120705 20.1612C-0.0254208 20.4727 -0.0239143 20.6975 0.12643 21.0008C0.312206 21.3758 0.505273 21.4868 0.971551 21.4868C1.32442 21.4868 1.39071 21.4667 1.60426 21.2949C1.7355 21.1894 6.25402 16.6884 11.6454 11.2928C20.4786 2.45268 21.4547 1.45716 21.5151 1.22639C21.7206 0.4411 20.9553 -0.225851 20.1915 0.0727676ZM25.6449 0.0931335C25.3976 0.205567 0.147761 25.4784 0.0679794 25.6934C-0.0360865 25.9738 -0.00680105 26.3019 0.142037 26.5227C0.435494 26.9581 0.90129 27.1099 1.34768 26.9156C1.46253 26.8656 6.71862 21.6506 14.2372 14.1267C25.6009 2.75509 26.9371 1.39853 26.9735 1.19626C27.1176 0.394102 26.3624 -0.233021 25.6449 0.0931335ZM25.7353 5.49689C25.5685 5.54485 23.4549 7.62535 15.6242 15.4502C10.1791 20.8913 5.66578 25.436 5.59468 25.5496C5.43704 25.8015 5.42481 26.226 5.56738 26.4981C5.78962 26.9224 6.39581 27.1221 6.81925 26.9106C7.10716 26.7668 26.7346 7.14953 26.8908 6.84953C27.281 6.10003 26.5625 5.259 25.7353 5.49689ZM25.7082 11.0003C25.5202 11.0688 23.9608 12.5963 18.2811 18.2753C14.1903 22.3656 11.0503 25.5516 10.995 25.6679C10.7181 26.2511 11.203 27 11.8577 27C12.0036 27 12.1961 26.9611 12.2856 26.9136C12.3751 26.8661 15.7072 23.5649 19.6902 19.5777C26.8978 12.3626 26.9323 12.3268 26.9729 12.0443C27.0758 11.3275 26.3819 10.7548 25.7082 11.0003ZM25.6449 16.4644C25.4572 16.5661 16.5791 25.443 16.4818 25.6262C16.4342 25.7157 16.3952 25.9083 16.3952 26.0541C16.3952 26.7122 17.1505 27.1982 17.726 26.9106C18.0129 26.7672 26.7355 18.0538 26.8908 17.7555C27.2062 17.1497 26.7334 16.3926 26.0427 16.3971C25.8902 16.3981 25.7112 16.4284 25.6449 16.4644ZM25.675 21.8847C25.4933 21.9557 22.0277 25.3951 21.9049 25.6262C21.8573 25.7157 21.8185 25.9018 21.8185 26.0398C21.8185 26.7258 22.5293 27.1897 23.1611 26.916C23.2683 26.8697 24.1409 26.0403 25.1106 25.0632C26.9586 23.2012 27.0576 23.0727 26.9763 22.6427C26.8635 22.0455 26.221 21.6713 25.675 21.8847Z"
                        fill="#3B0CFA" />
                </svg>