<svg width="27" height="27" viewBox="0 0 27 27" fill="none" xmlns="http://www.w3.org/2000/svg">
                    <path fill-rule="evenodd" clip-rule="evenodd"
                        d="M1.20473 0.113803C1.02638 0.176724 0.787639 0.346605 0.566259 0.568191C-0.0287978 1.16376 0.000229351 0.893632 0.000229351 5.83398V10.1214L0.193343 10.5078C0.410096 10.9415 0.710888 11.2365 1.1378 11.4339C1.42218 11.5654 1.48721 11.5673 5.76764 11.5673H10.109L10.4395 11.4179C10.8511 11.2319 11.2856 10.7755 11.4452 10.3616C11.5607 10.0622 11.5667 9.83299 11.5667 5.7378C11.5667 1.49046 11.5648 1.42488 11.4333 1.14063C11.2358 0.713803 10.9408 0.413074 10.5069 0.196367L10.1205 0.00329484L5.80503 0.00830056C2.03568 0.0126727 1.45355 0.0260427 1.20473 0.113803ZM16.4959 0.194719C16.059 0.413011 15.7641 0.712979 15.5663 1.14063L15.4328 1.429V13.5V25.5709L15.6096 25.931C15.816 26.3511 16.1199 26.6388 16.5801 26.8493L16.9092 27L21.3047 26.9824L25.7001 26.965L25.9948 26.7917C26.1569 26.6964 26.4044 26.4881 26.5446 26.3288C27.0376 25.7689 26.9993 26.8489 26.9993 13.5C26.9993 0.150998 27.0376 1.23105 26.5446 0.671158C26.4044 0.511796 26.1569 0.303517 25.9948 0.208216L25.7001 0.0349772L21.2929 0.0174885L16.8856 0L16.4959 0.194719ZM9.92264 1.61396C10.0419 1.70109 10.0462 1.82826 10.0629 5.73418L10.0801 9.76443L9.92176 9.92272L9.76344 10.081L5.73234 10.0638C1.82558 10.0471 1.69838 10.0428 1.61124 9.9236C1.53582 9.82045 1.5213 9.1517 1.5213 5.77822C1.5213 2.12424 1.53094 1.74519 1.62619 1.63994C1.7257 1.53 1.93751 1.52405 5.76536 1.52405C9.14905 1.52405 9.81946 1.53856 9.92264 1.61396ZM25.3623 1.62892C25.4738 1.72979 25.4782 2.1812 25.4782 13.4889C25.4782 24.3384 25.4701 25.253 25.3733 25.36C25.2738 25.4699 25.062 25.4759 21.2342 25.4759C17.85 25.4759 17.1801 25.4614 17.0769 25.386C16.9559 25.2975 16.9539 25.1036 16.9539 13.5C16.9539 1.89631 16.9559 1.70248 17.0769 1.61396C17.1801 1.53856 17.8485 1.52405 21.2232 1.52405C24.8779 1.52405 25.257 1.53368 25.3623 1.62892ZM1.39144 15.4863C0.815842 15.6433 0.423405 15.9867 0.149485 16.5732L0.00149694 16.89L0.000863026 21.1717C0.000165866 26.106 -0.0288612 25.8361 0.566576 26.4321C1.16512 27.0311 0.890755 27.0028 5.90003 26.9825L10.2358 26.965L10.5034 26.822C10.9231 26.5978 11.1982 26.3212 11.3899 25.931L11.5667 25.5709V21.2621C11.5667 17.1669 11.5607 16.9377 11.4452 16.6383C11.2856 16.2244 10.8511 15.768 10.4395 15.582L10.109 15.4326L5.89439 15.4202C2.70337 15.4107 1.60972 15.4268 1.39144 15.4863ZM9.92315 17.0786L10.0801 17.2355L10.0629 21.2658C10.0462 25.1717 10.0419 25.2988 9.92264 25.386C9.81946 25.4614 9.15057 25.4759 5.77638 25.4759C2.12162 25.4759 1.74249 25.4663 1.63722 25.371C1.52726 25.2715 1.5213 25.0598 1.5213 21.2327C1.5213 17.052 1.52105 17.0563 1.77482 16.9656C1.8271 16.9469 3.64656 16.9294 5.81802 16.9267L9.76623 16.9217L9.92315 17.0786Z"
                        fill="#303030" />
                </svg>