<svg width="27" height="27" viewBox="0 0 27 27" fill="none" xmlns="http://www.w3.org/2000/svg">
                    <path fill-rule="evenodd" clip-rule="evenodd"
                        d="M1.26539 0.0870851C0.720708 0.254778 0.250798 0.732228 0.0868148 1.28456C-0.0310317 1.68143 -0.028079 4.19076 0.0906639 4.5908C0.244207 5.10774 0.578975 5.49834 1.05901 5.72046C1.29127 5.82793 1.39119 5.83236 4.17263 5.85788L7.0463 5.88425L7.07266 14.638L7.09902 23.3918L7.23084 23.6509C7.39952 23.9825 7.73982 24.323 8.06025 24.4808C8.30485 24.6013 8.35531 24.6051 9.89902 24.62C11.4018 24.6345 11.502 24.6294 11.7815 24.5249C12.1913 24.3715 12.5566 24.0282 12.7457 23.6185L12.8991 23.2863L12.9146 20.7195C12.9278 18.5406 12.9182 18.1242 12.8516 17.9647C12.6988 17.5989 12.1945 17.5137 11.9189 17.807L11.7918 17.9423L11.7654 20.5088C11.7414 22.8477 11.7308 23.0875 11.6461 23.2123C11.4813 23.4547 11.3748 23.4709 9.94469 23.4709H8.60345L8.43124 23.317L8.25903 23.1631L8.23267 14.1282C8.20367 4.18986 8.23188 4.94264 7.88245 4.77684C7.7404 4.70939 7.27123 4.69774 4.69991 4.69774C2.12859 4.69774 1.65942 4.68609 1.51737 4.61864C1.2038 4.46988 1.19494 4.4278 1.17865 3.01027C1.16178 1.54733 1.18582 1.43031 1.53899 1.25751C1.71436 1.17171 2.24944 1.16575 9.95455 1.16396C14.4801 1.16285 18.2278 1.17661 18.2828 1.19444C18.7688 1.35216 18.7782 1.38533 18.7782 2.93116C18.7782 3.98752 18.7633 4.2571 18.6982 4.38308C18.5321 4.70433 18.6037 4.69774 15.2718 4.69774C12.6805 4.69774 12.2124 4.70929 12.0824 4.77652C11.7571 4.94474 11.7654 4.87898 11.7654 7.29613V9.50187L11.5754 9.58129C11.2708 9.70859 10.8994 10.0949 10.7309 10.4597L10.5791 10.7885V12.3177C10.5791 13.7963 10.5831 13.8571 10.7017 14.1509C10.8505 14.5196 11.2165 14.91 11.5809 15.0887C11.8434 15.2175 11.8534 15.2182 13.8482 15.2445L15.8518 15.2708L15.8782 20.5178L15.9046 25.7648L16.0449 26.0306C16.1924 26.3102 16.5534 26.6783 16.8081 26.8088C17.1447 26.9814 17.5172 27.0136 18.9628 26.9956C20.3677 26.9779 20.3902 26.9759 20.6764 26.8409C21.0016 26.6875 21.3752 26.3397 21.5178 26.0575C21.7241 25.6496 21.731 25.4634 21.731 20.2779V15.2445H23.6535C25.4576 15.2445 25.5938 15.2379 25.8627 15.1372C26.2029 15.0099 26.5743 14.6979 26.7553 14.3874C26.9827 13.9975 27.0146 13.701 26.9953 12.1595C26.9775 10.7472 26.9763 10.7333 26.8378 10.4379C26.66 10.0586 26.3362 9.73485 25.957 9.55703L25.6592 9.41739L19.2923 9.40316L12.9254 9.38897V7.62472V5.86052L15.7859 5.84601L18.6464 5.83151L18.9364 5.69372C19.2855 5.52787 19.5831 5.23889 19.7721 4.88231L19.9119 4.61864L19.9278 3.03289C19.9432 1.51311 19.9391 1.43443 19.8292 1.14081C19.6359 0.624018 19.1878 0.220132 18.6484 0.0764329C18.2409 -0.0320928 1.6194 -0.0219152 1.26539 0.0870851ZM25.417 10.62C25.5158 10.6547 25.6463 10.75 25.707 10.8319C25.8122 10.9738 25.8174 11.0434 25.8174 12.3136C25.8174 13.3832 25.8021 13.675 25.7401 13.7908C25.5846 14.0814 25.5597 14.0843 23.2347 14.0843C20.9386 14.0843 20.8386 14.0948 20.657 14.3542C20.5789 14.4656 20.5707 14.9715 20.568 19.8572C20.5657 23.8836 20.5492 25.2827 20.5021 25.4171C20.4675 25.5159 20.3721 25.6464 20.2902 25.7071C20.1481 25.8125 20.0789 25.8175 18.7875 25.8175C17.568 25.8175 17.4197 25.808 17.2931 25.7221C17.2158 25.6696 17.1327 25.5866 17.1085 25.5375C17.0843 25.4885 17.0527 22.9805 17.0382 19.9641C17.0162 15.3873 16.9997 14.4615 16.9381 14.369C16.7662 14.1104 16.7831 14.1123 14.3579 14.0843L12.073 14.058L11.9192 13.8857L11.7654 13.7135V12.321V10.9284L11.924 10.7697C12.0113 10.6825 12.1359 10.6008 12.2009 10.5883C12.2659 10.5758 15.2257 10.5636 18.7782 10.5613C23.6564 10.5581 25.2813 10.5725 25.417 10.62Z"
                        fill="#3B0CFA" />
                </svg>