<svg width="29" height="29" viewBox="0 0 29 29" fill="none" xmlns="http://www.w3.org/2000/svg">
                    <mask id="path-1-inside-1_2302_2816" fill="white">
                        <path
                            d="M27 15.5C27 18.17 26.2082 20.7801 24.7248 23.0002C23.2414 25.2203 21.133 26.9506 18.6662 27.9724C16.1994 28.9942 13.485 29.2615 10.8663 28.7406C8.24754 28.2197 5.84207 26.934 3.95406 25.0459C2.06605 23.1579 0.780299 20.7525 0.259399 18.1337C-0.261502 15.515 0.00584329 12.8006 1.02763 10.3338C2.04941 7.86697 3.77974 5.75856 5.9998 4.27516C8.21987 2.79176 10.83 2 13.5 2L13.5 15.5H27Z" />
                    </mask>
                    <path
                        d="M27 15.5C27 18.17 26.2082 20.7801 24.7248 23.0002C23.2414 25.2203 21.133 26.9506 18.6662 27.9724C16.1994 28.9942 13.485 29.2615 10.8663 28.7406C8.24754 28.2197 5.84207 26.934 3.95406 25.0459C2.06605 23.1579 0.780299 20.7525 0.259399 18.1337C-0.261502 15.515 0.00584329 12.8006 1.02763 10.3338C2.04941 7.86697 3.77974 5.75856 5.9998 4.27516C8.21987 2.79176 10.83 2 13.5 2L13.5 15.5H27Z"
                        stroke="#303030" stroke-width="2.7" mask="url(#path-1-inside-1_2302_2816)" />
                    <mask id="path-2-inside-2_2302_2816" fill="white">
                        <path
                            d="M15.5 -5.90104e-07C17.2728 -6.67597e-07 19.0283 0.349187 20.6662 1.02763C22.3041 1.70606 23.7923 2.70047 25.0459 3.95406C26.2995 5.20765 27.2939 6.69588 27.9724 8.33377C28.6508 9.97167 29 11.7272 29 13.5L15.5 13.5L15.5 -5.90104e-07Z" />
                    </mask>
                    <path
                        d="M15.5 -5.90104e-07C17.2728 -6.67597e-07 19.0283 0.349187 20.6662 1.02763C22.3041 1.70606 23.7923 2.70047 25.0459 3.95406C26.2995 5.20765 27.2939 6.69588 27.9724 8.33377C28.6508 9.97167 29 11.7272 29 13.5L15.5 13.5L15.5 -5.90104e-07Z"
                        stroke="#303030" stroke-width="2.7" mask="url(#path-2-inside-2_2302_2816)" />
                </svg>