<svg width="29" height="26" viewBox="0 0 29 26" fill="none" xmlns="http://www.w3.org/2000/svg">
                    <path fill-rule="evenodd" clip-rule="evenodd"
                        d="M6.50743 0.102698C6.09507 0.232356 5.8011 0.421075 5.46916 0.769343C5.14357 1.11096 4.94969 1.50426 4.8649 1.99516C4.82127 2.24782 4.80761 4.54472 4.81911 9.67591L4.83555 16.9962L4.95972 17.3178C5.20665 17.957 5.74522 18.5026 6.37459 18.751L6.70579 18.8817L16.7088 18.8982C24.0217 18.9102 26.8027 18.8976 27.0499 18.8514C27.9845 18.6768 28.7716 17.9074 28.9481 16.9962C28.9948 16.7552 29.0079 14.6148 28.9957 9.23226L28.9787 1.80106L28.8553 1.50636C28.6706 1.06565 28.305 0.628261 27.9149 0.381534C27.2619 -0.0314519 28.1264 -0.00161613 16.911 0.00171127C7.42227 0.00448411 6.8005 0.0105288 6.50743 0.102698ZM27.1322 1.3101C27.5043 1.4915 27.7381 1.82191 27.7877 2.23656C27.8065 2.39356 27.8144 4.91462 27.8052 7.83891L27.7886 13.1558L25.1104 10.0989C23.6374 8.4176 22.3256 6.96641 22.1953 6.87402C21.5923 6.44661 20.7169 6.4531 20.0889 6.88977C19.962 6.97794 18.2262 8.99108 15.0833 12.695C15.0719 12.7084 14.6228 12.2915 14.0853 11.7686C12.9399 10.6546 12.7968 10.5683 12.0898 10.5671C11.2643 10.5657 11.308 10.5328 8.50639 13.2675L6.05404 15.6612V8.85366C6.05404 2.26396 6.0575 2.03963 6.16217 1.84043C6.22168 1.7273 6.34285 1.56742 6.43138 1.48523C6.79783 1.14517 6.05506 1.16786 16.9102 1.16547L26.8312 1.16331L27.1322 1.3101ZM10.1346 3.64877C9.7191 3.78364 9.42609 3.97263 9.09631 4.31857C8.21678 5.24132 8.25266 6.64825 9.17888 7.55658C10.5686 8.91948 12.9115 8.17237 13.2523 6.25762C13.3865 5.50291 13.1053 4.73261 12.4897 4.16912C12.0189 3.73816 11.6508 3.59364 10.9564 3.56713C10.5723 3.55244 10.3693 3.57262 10.1346 3.64877ZM11.3536 4.81596C12.2479 5.21353 12.2996 6.46142 11.4409 6.92587C10.9106 7.21275 10.2422 7.05359 9.88465 6.55531C9.65721 6.23826 9.61227 5.72673 9.78337 5.4012C10.0953 4.80748 10.7693 4.55626 11.3536 4.81596ZM21.5143 7.8622C21.5858 7.91422 23.0324 9.54143 24.729 11.4783L27.8138 14.9998L27.8154 15.7932C27.8162 16.2296 27.7869 16.7031 27.7503 16.8453C27.6589 17.2006 27.2607 17.5903 26.8976 17.6797C26.5511 17.7651 7.26721 17.7736 6.95414 17.6885C6.84141 17.6579 6.66527 17.5769 6.56275 17.5086C6.15985 17.2401 5.99629 17.4414 9.02762 14.4747C10.8538 12.6874 11.8529 11.7483 11.9504 11.7273C12.0319 11.7098 12.173 11.7227 12.2642 11.7559C12.3553 11.7891 12.9527 12.3255 13.5917 12.9479C14.2307 13.5702 14.8273 14.1063 14.9175 14.1392C15.2991 14.2783 15.2805 14.2967 18.1315 10.9499C19.8844 8.89198 20.8447 7.80724 20.9465 7.77003C21.1337 7.70171 21.3397 7.73515 21.5143 7.8622ZM2.70109 9.17824C2.61075 9.22627 2.514 9.35327 2.45994 9.4949C2.24775 10.0504 0.0354181 18.2426 0.00713773 18.5776C-0.0713559 19.5061 0.50502 20.4766 1.36754 20.8681C1.5294 20.9416 3.11549 21.3817 4.89222 21.8462C6.66896 22.3107 10.928 23.4274 14.3568 24.3277C17.7856 25.2281 20.7474 25.9776 20.9386 25.9934C21.8304 26.0669 22.8229 25.5195 23.2246 24.7324C23.4068 24.3755 24.3598 20.9662 24.3598 20.6715C24.3598 20.4258 24.1444 20.1529 23.9108 20.1027C23.7055 20.0586 23.3707 20.1911 23.2832 20.3509C23.231 20.4463 22.2062 24.0677 22.2062 24.1567C22.2062 24.1697 22.1006 24.2924 21.9716 24.4293C21.7966 24.6151 21.6597 24.7004 21.4323 24.765C21.0776 24.866 21.1257 24.8736 19.6275 24.48C19.0041 24.3163 14.7705 23.2077 10.2196 22.0165C1.27664 19.6756 1.63062 19.7832 1.36981 19.3282C1.10888 18.873 1.0797 19.0184 2.39748 14.2087C3.06828 11.7606 3.61705 9.69299 3.61705 9.61413C3.61705 9.52496 3.54417 9.39941 3.42436 9.28217C3.20928 9.07171 2.96706 9.03689 2.70109 9.17824Z"
                        fill="#3B0CFA" />
                </svg>