<svg width="27" height="27" viewBox="0 0 27 27" fill="none" xmlns="http://www.w3.org/2000/svg">
<path fill-rule="evenodd" clip-rule="evenodd" d="M13.2831 0.0474914C12.7968 0.198936 0.492128 5.2917 0.334501 5.40681C0.0507833 5.61397 -0.0866988 6.15624 0.0584827 6.49553C0.226604 6.88839 0.321634 6.94151 2.34727 7.77522C3.43336 8.22221 4.31425 8.59721 4.30487 8.60854C4.29543 8.61981 3.42371 8.98551 2.36762 9.42123C1.31159 9.85688 0.388239 10.2647 0.315728 10.3274C-0.129678 10.7131 -0.0739367 11.559 0.416084 11.8507C0.520395 11.9128 1.4304 12.303 2.43829 12.7177C3.44612 13.1323 4.2708 13.4876 4.27085 13.507C4.27085 13.5265 3.44628 13.8799 2.43834 14.2924C1.43046 14.7049 0.520395 15.0933 0.416084 15.1555C-0.0740422 15.448 -0.129626 16.2925 0.315728 16.6795C0.388239 16.7425 1.31264 17.1516 2.36994 17.5886C3.42729 18.0255 4.29996 18.3921 4.30919 18.4032C4.31847 18.4144 3.44153 18.7857 2.36045 19.2283C0.38112 20.0388 0.228608 20.1223 0.0734069 20.4804C-0.0865405 20.8494 0.0379685 21.3831 0.334501 21.5999C0.619222 21.8081 13.2789 27.0041 13.4916 27C13.6922 26.9962 26.3794 21.8062 26.6483 21.6179C26.8204 21.4975 27 21.1204 27 20.8797C27 20.6526 26.8787 20.3349 26.7299 20.1723C26.6542 20.0896 25.8631 19.729 24.7324 19.2617C23.7027 18.8362 22.8156 18.4685 22.7609 18.4445C22.6932 18.4148 23.163 18.1946 24.2375 17.7521C26.5418 16.8033 26.5789 16.7866 26.7399 16.624C27.1343 16.2255 27.05 15.4352 26.5832 15.1548C26.4789 15.0921 25.5691 14.702 24.5614 14.2879C23.5538 13.8738 22.7292 13.5207 22.7289 13.5033C22.7287 13.4859 23.5531 13.1326 24.561 12.7182C25.5689 12.3039 26.4789 11.9137 26.5832 11.8513C27.0887 11.5489 27.1286 10.6839 26.6545 10.3072C26.5659 10.2369 25.634 9.82618 24.5835 9.39451C23.533 8.9629 22.6799 8.60265 22.6877 8.59398C22.6956 8.58537 23.5801 8.21695 24.6533 7.77534C25.8519 7.28213 26.6529 6.91935 26.7299 6.83476C26.8797 6.67047 27 6.35333 27 6.12306C27 5.86614 26.848 5.54077 26.6648 5.40529C26.5039 5.28632 13.9278 0.0684479 13.6523 0.00633786C13.5767 -0.0106933 13.4106 0.00779416 13.2831 0.0474914ZM19.9195 4.51283C22.0704 5.40079 23.8136 6.14478 23.7935 6.16612C23.7733 6.18739 21.4453 7.15481 18.6203 8.31578L13.4838 10.4267L12.2129 9.90202C10.3936 9.15094 8.11882 8.21347 5.5102 7.13968C4.263 6.62634 3.22595 6.18853 3.20564 6.16681C3.18534 6.1451 3.93287 5.81505 4.86682 5.4334C5.80077 5.05181 8.13079 4.09458 10.0446 3.30634L13.5243 1.87312L14.7666 2.38576C15.4499 2.6677 17.7687 3.62486 19.9195 4.51283ZM10.0671 10.9619C11.8483 11.698 13.3831 12.3003 13.4779 12.3003C13.5726 12.3003 15.145 11.6862 16.9719 10.9355L20.2935 9.57071L22.0251 10.2808C22.9775 10.6713 23.774 11.0085 23.7951 11.03C23.8162 11.0515 21.5052 12.0277 18.6595 13.1992L13.4855 15.3292L8.57498 13.3008C5.87418 12.1852 3.54727 11.2237 3.40404 11.1644L3.14363 11.0563L3.69408 10.8232C5.59942 10.0166 6.68066 9.58464 6.74949 9.60268C6.79299 9.61408 8.28594 10.2257 10.0671 10.9619ZM23.6474 15.8616C23.8223 15.9365 23.8387 15.9578 23.7529 15.9982C23.697 16.0244 21.3631 16.9878 18.5664 18.1388L13.4815 20.2317L13.2401 20.1351C13.1073 20.082 12.3461 19.7675 11.5484 19.4363C10.7508 19.1049 8.57124 18.2042 6.70492 17.4346C4.83861 16.665 3.27932 16.0136 3.23976 15.987C3.1692 15.9396 6.52747 14.5163 6.70993 14.5163C6.75761 14.5163 8.28699 15.1309 10.1086 15.8821C12.6026 16.9107 13.4586 17.2389 13.5746 17.2111C13.6593 17.1909 14.6204 16.8064 15.7104 16.3568C16.8004 15.9072 18.2736 15.2999 18.9842 15.0072L20.2762 14.475L21.8583 15.1239C22.7284 15.4808 23.5335 15.8127 23.6474 15.8616ZM10.0339 20.7526C11.8475 21.5013 13.4004 22.1138 13.4847 22.1138C13.5691 22.1138 13.8383 22.0311 14.083 21.9301C16.7823 20.8157 18.2934 20.1944 19.2101 19.8222L20.3061 19.3771L22.0315 20.0885C22.9804 20.4798 23.773 20.8177 23.7929 20.8395C23.8273 20.8773 13.5977 25.1118 13.4778 25.1095C13.4463 25.109 11.439 24.2896 9.01712 23.2889C6.59523 22.2882 4.28878 21.3373 3.89163 21.1758C3.49453 21.0145 3.18186 20.8674 3.19684 20.8491C3.22837 20.8107 6.58806 19.4109 6.67703 19.3992C6.70967 19.3948 8.22023 20.0039 10.0339 20.7526Z" fill="#3B0CFA"/>
</svg>
