<svg width="27" height="27" viewBox="0 0 27 27" fill="none" xmlns="http://www.w3.org/2000/svg">
                    <path fill-rule="evenodd" clip-rule="evenodd"
                        d="M3.50477 0.0349946C3.06632 0.109791 2.65086 0.250509 2.24163 0.462696C1.18969 1.00824 0.45937 1.90876 0.120575 3.07803L0 3.49411V13.5039V23.5137L0.120575 23.9298C0.542642 25.3864 1.61303 26.4575 3.06759 26.8785L3.48728 27H13.5H23.5127L23.9324 26.8785C25.387 26.4575 26.4574 25.3864 26.8794 23.9298L27 23.5137V13.5039V3.49411L26.8794 3.07803C26.4613 1.63509 25.4167 0.580226 23.9604 0.130497L23.5656 0.00858352L13.6585 0.000713014C8.20964 -0.00356559 3.64046 0.0118585 3.50477 0.0349946ZM23.6108 1.28001C23.7893 1.32602 24.0781 1.43822 24.2524 1.52934C24.6635 1.74406 25.2638 2.34486 25.4809 2.75888C25.8338 3.43183 25.8112 2.6956 25.8112 13.5039C25.8112 24.3122 25.8338 23.576 25.4809 24.249C25.2638 24.663 24.6635 25.2638 24.2524 25.4785C23.5714 25.8343 24.3086 25.8115 13.5 25.8115C2.69144 25.8115 3.42863 25.8343 2.74755 25.4785C2.33648 25.2638 1.73624 24.663 1.51913 24.249C1.16623 23.576 1.18885 24.3122 1.18885 13.5039C1.18885 2.6956 1.16623 3.43183 1.51913 2.75888C1.72832 2.35996 2.33088 1.74955 2.72113 1.54117C3.40063 1.17838 2.58413 1.20427 13.466 1.20009C22.2631 1.19671 23.3199 1.20506 23.6108 1.28001ZM6.3375 9.34618C6.32313 9.38363 6.31795 9.80557 6.32593 10.2838L6.34051 11.1533L6.93493 11.1683L7.52935 11.1832V10.8381V10.4931H8.26908H9.00881V13.5039V16.5148H8.53327H8.05773V17.0958V17.6769H9.61644H11.1751V17.0958V16.5148H10.6996H10.2241V13.5039V10.4931H10.9638H11.7035V10.8364V11.1797H12.3112H12.9188V10.2289V9.27814H9.64122C7.01577 9.27814 6.35842 9.29167 6.3375 9.34618ZM14.1165 9.31338C14.0971 9.33271 14.0812 9.76057 14.0812 10.2642V11.1797H14.6888H15.2965V10.8364V10.4931H16.0362H16.7759V13.5039V16.5148H16.3004H15.8249V17.0958V17.6769H17.3836H18.9423V17.0958V16.5148H18.4667H17.9912V13.5039V10.4931H18.7309H19.4706V10.8364V11.1797H20.0783H20.6859V10.2289V9.27814H17.4188C15.6219 9.27814 14.1358 9.29399 14.1165 9.31338Z"
                        fill="#303030" />
                </svg>