<svg width="20" height="20" viewBox="0 0 20 20" fill="none" xmlns="http://www.w3.org/2000/svg">
<path d="M6.8901 13.4028C6.3419 13.4698 5.95185 13.9686 6.01889 14.5168C6.08593 15.065 6.58469 15.455 7.13289 15.388C7.68109 15.3209 8.07114 14.8222 8.0041 14.274C7.93706 13.7258 7.4383 13.3357 6.8901 13.4028Z" fill="#303030"/>
<path d="M3.54813 10.7891C3.48108 10.2409 3.87114 9.74218 4.41934 9.67514C4.96754 9.6081 5.46629 9.99815 5.53334 10.5464C5.60038 11.0946 5.21032 11.5933 4.66212 11.6603C4.11392 11.7274 3.61517 11.3373 3.54813 10.7891Z" fill="#303030"/>
<path d="M5.91897 5.46194C5.37077 5.52899 4.98072 6.02774 5.04776 6.57594C5.1148 7.12414 5.61356 7.51419 6.16176 7.44715C6.70996 7.38011 7.10001 6.88136 7.03297 6.33316C6.96593 5.78496 6.46717 5.3949 5.91897 5.46194Z" fill="#303030"/>
<path d="M13.6973 7.28117C13.6303 6.73297 14.0203 6.23422 14.5685 6.16717C15.1167 6.10013 15.6155 6.49019 15.6825 7.03839C15.7496 7.58659 15.3595 8.08534 14.8113 8.15238C14.2631 8.21943 13.7644 7.82937 13.6973 7.28117Z" fill="#303030"/>
<path d="M9.99264 8.87869C9.44444 8.94573 9.05439 9.44449 9.12143 9.99269C9.18847 10.5409 9.68723 10.9309 10.2354 10.8639C10.7836 10.7969 11.1737 10.2981 11.1066 9.7499C11.0396 9.2017 10.5408 8.81165 9.99264 8.87869Z" fill="#303030"/>
<path d="M9.3931 5.03706C9.32605 4.48886 9.71611 3.99011 10.2643 3.92306C10.8125 3.85602 11.3113 4.24608 11.3783 4.79428C11.4453 5.34248 11.0553 5.84123 10.5071 5.90827C9.95889 5.97532 9.46014 5.58526 9.3931 5.03706Z" fill="#303030"/>
<path fill-rule="evenodd" clip-rule="evenodd" d="M0.252921 9.76377C0.383417 4.38058 4.85315 0.122425 10.2363 0.252921C15.6195 0.383417 19.8777 4.85315 19.7472 10.2363C19.7389 10.5773 19.6243 10.8887 19.4132 11.1452C19.2113 11.3905 18.9499 11.5513 18.6919 11.659C18.1899 11.8685 17.5606 11.9343 16.9379 11.9385C14.2493 11.9567 11.9139 14.2693 11.7613 16.9968C11.7257 17.6331 11.6172 18.2804 11.3433 18.7889C11.2015 19.0523 11.0023 19.3028 10.7234 19.4842C10.4378 19.6699 10.1102 19.7556 9.76377 19.7472C4.38058 19.6167 0.122425 15.147 0.252921 9.76377ZM10.2 1.75248C5.64498 1.64206 1.8629 5.24511 1.75248 9.80013C1.64206 14.3551 5.24511 18.1372 9.80013 18.2476C9.86822 18.2493 9.89341 18.2346 9.90576 18.2266C9.92476 18.2142 9.9688 18.1777 10.0226 18.0778C10.14 17.8599 10.2321 17.4758 10.2636 16.913C10.4581 13.4381 13.4045 10.4623 16.9278 10.4385C17.4899 10.4347 17.8843 10.3707 18.114 10.2747C18.1952 10.2409 18.2331 10.2122 18.2477 10.1992C18.3576 5.64455 14.7547 1.86289 10.2 1.75248Z" fill="#303030"/>
</svg>
