<svg width="22" height="16" viewBox="0 0 22 16" fill="none" xmlns="http://www.w3.org/2000/svg">
<path fill-rule="evenodd" clip-rule="evenodd" d="M18.1833 0.912245L10.9996 0.749756L3.8159 0.912245C2.48474 0.942354 1.35764 1.90297 1.11696 3.21254C0.535233 6.37764 0.535233 9.62226 1.11696 12.7874C1.35764 14.0969 2.48474 15.0575 3.8159 15.0876L10.9996 15.2501L18.1833 15.0876C19.5145 15.0575 20.6416 14.0969 20.8823 12.7874C21.464 9.62226 21.464 6.37764 20.8823 3.21254C20.6416 1.90297 19.5145 0.942354 18.1833 0.912245ZM3.84982 2.41186L10.9996 2.25014L18.1494 2.41186C18.7697 2.42589 19.2949 2.87349 19.407 3.48369C19.5603 4.31767 19.6708 5.15752 19.7384 5.99994H2.26084C2.3285 5.15752 2.43896 4.31767 2.59225 3.48369C2.70439 2.87349 3.22957 2.42589 3.84982 2.41186ZM2.18066 7.99994C2.18066 9.51161 2.31786 11.0233 2.59225 12.5162C2.70439 13.1264 3.22957 13.574 3.84982 13.588L10.9996 13.7498L18.1494 13.588C18.7697 13.574 19.2949 13.1264 19.407 12.5162C19.6814 11.0233 19.8186 9.51161 19.8186 7.99994H2.18066Z" fill="#FA0C54"/>
</svg>
