<svg width="39" height="37" viewBox="0 0 39 37" fill="none" xmlns="http://www.w3.org/2000/svg">
<path fill-rule="evenodd" clip-rule="evenodd" d="M19.0811 0.142214C18.9554 0.220367 18.4133 0.733232 17.8766 1.28205C16.9469 2.23268 16.9018 2.29323 16.9245 2.56044C16.955 2.92134 17.2529 3.16791 17.5639 3.08984C17.6795 3.06089 18.0252 2.79353 18.3323 2.49577L18.8906 1.95442L18.8883 4.50001L18.886 7.0456L12.0899 10.4995C8.35217 12.3992 5.21678 14.0379 5.12256 14.141L4.95117 14.3285L4.94713 21.6558L4.9431 28.9831L3.04284 30.4144L1.14258 31.8459V30.9633C1.14258 30.1277 1.1326 30.0707 0.955576 29.8937C0.717311 29.6554 0.425268 29.6554 0.187002 29.8937C0.000228517 30.0804 0 30.0829 0 31.6896V33.2985L0.22265 33.5212L0.445301 33.7438H2.05428C3.6609 33.7438 3.66341 33.7436 3.85011 33.5568C4.08845 33.3186 4.08845 33.0265 3.85011 32.7883C3.67628 32.6144 3.6091 32.6013 2.89346 32.6013C2.47018 32.6013 2.14089 32.5737 2.16168 32.54C2.22148 32.4433 5.45657 30.0114 5.52551 30.0114C5.55956 30.0114 6.0987 30.2698 6.72362 30.5856C7.89514 31.1776 8.02204 31.2059 8.32178 30.9428C8.4045 30.8701 8.45508 30.7166 8.45508 30.5384C8.45508 30.1734 8.37373 30.1101 7.0948 29.4806L6.09375 28.9877V22.2252C6.09375 18.5057 6.10914 15.4626 6.12795 15.4626C6.14677 15.4626 9.02401 16.922 12.5218 18.7058L18.8815 21.949L18.9051 23.9597C18.928 25.9125 18.9335 25.9751 19.0958 26.1374C19.3148 26.3562 19.6852 26.3562 19.9042 26.1374C20.0665 25.9751 20.072 25.9125 20.0949 23.9597L20.1185 21.949L26.4782 18.7058C29.976 16.922 32.8532 15.4626 32.872 15.4626C32.8909 15.4626 32.9053 18.5047 32.9042 22.2228L32.9021 28.9831L26.5248 32.2332L20.1475 35.4833L20.1094 31.7123L20.0713 27.9412L19.8914 27.7957C19.6618 27.6097 19.3382 27.6097 19.1086 27.7957L18.9287 27.9412L18.9069 31.7228L18.8851 35.5045L16.6979 34.3859C15.495 33.7707 13.5813 32.7918 12.4452 32.2106C11.1197 31.5326 10.2962 31.154 10.1466 31.154C9.70795 31.154 9.43396 31.752 9.73477 32.0528C9.81025 32.1283 12.0092 33.2798 14.6213 34.6118C18.53 36.6049 19.4091 37.026 19.5874 36.9903C19.7067 36.9664 22.8598 35.3865 26.5943 33.4792C30.3289 31.5719 33.4225 30.0121 33.4691 30.013C33.5156 30.0139 34.3203 30.5966 35.2573 31.3079L36.9608 32.6013H36.1488C35.3882 32.6013 35.325 32.6131 35.1499 32.7883C34.9115 33.0265 34.9115 33.3186 35.1499 33.5568C35.3366 33.7436 35.3391 33.7438 36.9457 33.7438H38.5547L38.7773 33.5212L39 33.2985V31.6896C39 30.0829 38.9998 30.0804 38.813 29.8937C38.5747 29.6554 38.2827 29.6554 38.0444 29.8937C37.8675 30.0707 37.8574 30.1279 37.8574 30.9613V31.842L35.9575 30.4125L34.0577 28.9831L34.0522 21.7087C34.0478 16.0983 34.0251 14.3907 33.9525 14.2438C33.8841 14.1056 33.4413 13.8394 32.335 13.272C28.2563 11.1798 26.1539 10.1303 26.042 10.1304C25.9744 10.1305 25.8287 10.2016 25.7183 10.2885C25.458 10.4931 25.4442 10.8751 25.689 11.0979C25.7833 11.1837 27.2215 11.9476 28.8852 12.7954C30.5488 13.6432 31.9673 14.3788 32.0374 14.43C32.1455 14.5091 31.219 15.0053 25.8655 17.735C22.4009 19.5016 19.5357 20.947 19.4985 20.947C19.4613 20.947 16.5992 19.5027 13.1383 17.7374C9.17224 15.7145 6.87246 14.5011 6.91793 14.4556C6.95769 14.4158 9.80492 12.9482 13.2451 11.1941L19.5 8.00475L21.6619 9.1049C23.698 10.141 23.8378 10.2003 24.0629 10.1217C24.4566 9.98446 24.5826 9.53862 24.3103 9.24635C24.2328 9.16317 23.2564 8.63393 22.1406 8.07034L20.1117 7.0456L20.1106 4.57222L20.1094 2.09884L20.5856 2.5708C21.1446 3.12488 21.4137 3.21895 21.7292 2.97086C21.8859 2.84761 21.9375 2.74036 21.9375 2.5382C21.9375 2.2959 21.8382 2.16839 20.9282 1.24168C19.9778 0.273763 19.6418 -0.000684267 19.4086 1.28032e-06C19.3541 0.000153624 19.2067 0.064138 19.0811 0.142214Z" fill="#303030"/>
</svg>
