<svg width="39" height="35" viewBox="0 0 39 35" fill="none" xmlns="http://www.w3.org/2000/svg">
<path d="M28.4998 3.99997C29.2724 10.639 24.5156 28.8207 18.9998 25.5C10 33 10.9998 6.43308 10.9998 4.50008C10.9998 2.56709 15.0293 1.00008 19.9998 1.00008C23.9465 -0.0135679 27.8275 1.40539 28.4998 3.99997Z" fill="#3B0CFA"/>
<path d="M18.5 16L28.5 12L38 16L38.5 28.5L28.5 33L21.5 30L18.5 26.5V25.5V16Z" fill="#CBFA0C"/>
<path d="M11 18L21 30L11 34L0.5 30L11 18Z" fill="#FA0C54"/>
<path fill-rule="evenodd" clip-rule="evenodd" d="M17.2435 0.050794C13.9705 0.444526 11.4059 1.59472 10.6143 3.02386L10.388 3.43244L10.3675 10.5557L10.3469 17.6789L8.52029 19.8461C6.96478 21.6916 6.69369 22.0495 6.69369 22.2579C6.69369 22.5414 6.98269 22.8182 7.27869 22.8182C7.50774 22.8182 7.5395 22.7856 9.00078 21.0507C9.66081 20.2671 10.2344 19.6052 10.2754 19.5799C10.3238 19.55 10.3499 21.9791 10.3499 26.5074V33.481L10.0262 33.3524C9.84812 33.2816 7.85919 32.4817 5.60626 31.5749L1.51012 29.9262L3.68292 27.3507C5.87918 24.7476 5.968 24.6174 5.78252 24.2709C5.6608 24.0435 5.29555 23.9296 5.0729 24.0497C4.91987 24.1322 1.82577 27.7311 0.349105 29.5441C-0.0353345 30.0161 -0.0894165 30.2462 0.123865 30.5026C0.284892 30.696 10.5852 34.8525 10.9049 34.853C11.0215 34.8532 13.3756 33.945 16.1362 32.8348C18.8967 31.7246 21.1911 30.8162 21.2347 30.8162C21.2785 30.8162 22.8541 31.4507 24.736 32.2262C26.9796 33.1506 28.2065 33.6191 28.2992 33.5866C28.3771 33.5593 30.7373 32.5951 33.5443 31.4437C37.0173 30.0192 38.7026 29.2912 38.8192 29.1651L38.9906 28.9796V22.3535V15.7273L38.8192 15.5594C38.7228 15.4649 36.5067 14.5116 33.7563 13.3813L28.865 11.3712L28.8433 7.47793L28.8216 3.58479L28.6213 3.15762C28.2661 2.40016 27.2805 1.57667 26.2067 1.14028C25.7066 0.936978 25.4199 0.998981 25.2782 1.34115C25.1061 1.75659 25.2175 1.90809 25.9848 2.30198C26.8462 2.74423 27.6001 3.44204 27.6807 3.87158C27.887 4.97119 26.1285 6.12817 23.3785 6.70189C21.9517 6.99957 20.9663 7.07422 19.0539 7.02951C16.7635 6.97588 15.183 6.69801 13.7168 6.09115C11.7069 5.25927 11.0158 4.22006 11.8354 3.26243C12.5628 2.41273 14.1925 1.7284 16.4668 1.31768C17.2754 1.17166 17.6674 1.14973 19.4906 1.14858C20.904 1.14774 21.8151 1.18195 22.2919 1.25385C22.9954 1.35988 22.9994 1.35958 23.187 1.18347C23.3995 0.983823 23.4388 0.615761 23.272 0.387702C23.0874 0.135116 22.2136 0.0345694 19.9476 0.00493854C18.7955 -0.0101435 17.5787 0.010499 17.2435 0.050794ZM27.7171 8.7094V11.2823L22.6474 13.3724C19.8589 14.522 17.5367 15.5118 17.4867 15.572C17.4196 15.6528 17.3859 16.8522 17.3578 20.1582L17.3197 24.635L14.4097 21.1938L11.4997 17.7528L11.4961 11.9827C11.4941 8.80919 11.5081 6.21272 11.5273 6.21272C11.5463 6.21272 11.692 6.30169 11.851 6.41046C13.0172 7.20828 15.1785 7.87448 17.3738 8.11283C19.196 8.31072 22.2794 8.17194 23.8954 7.81926C25.1948 7.53567 26.6413 6.93467 27.3744 6.3739C27.5419 6.2457 27.6876 6.13982 27.6981 6.13868C27.7085 6.13754 27.7171 7.29436 27.7171 8.7094ZM32.4779 14.0969C34.7821 15.0477 36.7139 15.8445 36.7708 15.8675C36.8532 15.9007 36.8492 15.9233 36.7516 15.978C36.472 16.1344 28.2902 19.4666 28.1857 19.4666C28.0881 19.4666 19.8605 16.1212 19.5804 15.9677C19.5203 15.9348 21.2392 15.1878 23.8434 14.1152C26.2435 13.1267 28.2254 12.3292 28.2478 12.343C28.2701 12.3567 30.1737 13.146 32.4779 14.0969ZM23.1849 18.7015L27.6029 20.5253L27.6224 26.3182C27.6379 30.9281 27.6224 32.1109 27.5462 32.1099C27.4936 32.1092 26.1334 31.5671 24.5238 30.9052L21.5969 29.7018L20.0516 27.8786L18.5063 26.0555L18.5034 21.4229C18.5005 17.0444 18.5076 16.7928 18.6336 16.834C18.707 16.858 20.755 17.6984 23.1849 18.7015ZM37.848 22.6166V28.4326L33.4491 30.2452C31.0297 31.2422 28.99 32.0739 28.9164 32.0936C28.7895 32.1273 28.7836 31.8284 28.8021 26.3161L28.8216 20.5029L33.2777 18.6584C35.7285 17.6439 37.7594 16.8109 37.7909 16.8072C37.8223 16.8036 37.848 19.4178 37.848 22.6166ZM15.9867 24.8262C18.3118 27.5811 20.2233 29.8605 20.2345 29.8915C20.2457 29.9225 18.2833 30.7408 15.8737 31.71L11.4925 33.4722L11.495 26.4885C11.4975 19.8788 11.5046 19.5131 11.6283 19.6609C11.7002 19.7468 13.6615 22.0712 15.9867 24.8262Z" fill="#303030"/>
</svg>
