<svg width="33" height="33" viewBox="0 0 33 33" fill="none" xmlns="http://www.w3.org/2000/svg">
<path fill-rule="evenodd" clip-rule="evenodd" d="M14.7217 0.119694C14.2279 0.424624 14.1092 0.738191 14.1092 1.73793V2.51344H8.25088C4.61024 2.51344 2.26372 2.53787 2.05225 2.57796C0.965739 2.78395 0.18477 3.65343 0.0455712 4.81205C0.00946596 5.11259 -0.00768404 8.9976 0.00327649 14.4051L0.021716 23.4931L0.171488 23.8638C0.453109 24.5611 0.95523 25.057 1.67366 25.3474C2.00319 25.4806 2.14516 25.4892 4.53765 25.5216L7.05489 25.5556L5.15324 28.8427C3.03773 32.4995 3.05662 32.4552 3.45745 32.8132L3.66654 33H5.73512H7.80369L8.00749 32.7905C8.11961 32.6753 9.12495 30.9936 10.2415 29.0533L12.2717 25.5256L16.5592 25.5255L20.8467 25.5254L21.5882 26.8158C21.996 27.5255 22.3393 28.1341 22.3511 28.1683C22.3647 28.2077 21.0939 28.2304 18.8825 28.2304C15.0959 28.2304 15.1217 28.2281 14.9599 28.5831C14.8373 28.8523 14.869 29.0508 15.071 29.2768L15.2591 29.4873L19.2105 29.5195L23.1619 29.5517L24.0716 31.1239C24.5719 31.9885 25.0608 32.7644 25.1581 32.848L25.3349 33H27.3934H29.4519L29.661 32.8132C30.0618 32.4552 30.0807 32.4995 27.9652 28.8427L26.0635 25.5556L28.5808 25.5212C30.9985 25.4881 31.1125 25.481 31.4625 25.3417C32.1077 25.0847 32.6004 24.6248 32.8726 24.0252C32.9939 23.7581 32.9972 23.4974 32.9986 14.0126L33 4.27425L32.8028 3.87992C32.4742 3.22243 31.8002 2.71711 31.0662 2.57796C30.8547 2.53787 28.5082 2.51344 24.8675 2.51344H19.0092V1.73793C19.0092 0.911507 18.9393 0.623657 18.6676 0.332907C18.3684 0.0125076 18.2869 -0.000254232 16.5463 3.58245e-06C15.071 0.000196943 14.8966 0.0116697 14.7217 0.119694ZM17.7197 1.8689V2.51344H16.5592H15.3987V1.8689V1.22436H16.5592H17.7197V1.8689ZM31.0217 3.8959C31.3299 4.00573 31.4971 4.15539 31.6529 4.46058C31.7697 4.68939 31.775 4.92439 31.775 9.90672V15.1137L28.3095 11.6562C26.4036 9.75461 24.7807 8.16673 24.7033 8.12761C24.6258 8.08848 24.4669 8.05645 24.3501 8.05645C24.1558 8.05645 23.8601 8.33392 20.8651 11.3259L17.5923 14.5953L16.4431 13.4528C15.3456 12.3618 15.2824 12.3104 15.0409 12.3104C14.7913 12.3104 14.7062 12.392 8.81302 18.282L2.83825 24.2536L2.51433 24.2153C2.04245 24.1595 1.70016 23.9613 1.50738 23.6326L1.34343 23.3528V14.0263C1.34343 5.0016 1.34736 4.69197 1.46554 4.46058C1.62131 4.15539 1.78855 4.00573 2.09674 3.8959C2.46346 3.76513 30.655 3.76513 31.0217 3.8959ZM5.92106 7.58336C5.24092 7.68868 4.73874 7.94127 4.28272 8.40733C3.44907 9.25928 3.29156 10.5891 3.89981 11.6407C4.36531 12.4456 5.26046 12.9557 6.20519 12.9542C6.96863 12.9531 7.56739 12.7129 8.10014 12.1942C9.69032 10.6457 8.82714 7.95216 6.63027 7.60753C6.39977 7.57137 6.18218 7.54552 6.14672 7.5501C6.11125 7.55461 6.00971 7.56963 5.92106 7.58336ZM6.85509 9.00482C7.88306 9.52328 7.89079 10.9932 6.86824 11.5026C5.62751 12.1207 4.36834 10.8671 4.98574 9.62841C5.32854 8.94075 6.17089 8.65973 6.85509 9.00482ZM31.775 20.1679V23.3528L31.611 23.6326C31.5087 23.8071 31.3452 23.9667 31.1758 24.0572L30.9046 24.2021L17.7842 24.2186L4.66382 24.2352L9.85298 19.0471L15.0421 13.8589L17.6254 16.4363L20.2087 19.0136H20.4843C20.8575 19.0136 21.1368 18.7482 21.1368 18.3937C21.1368 18.1638 21.0668 18.0803 19.8474 16.8559C19.1382 16.1439 18.5579 15.5333 18.5579 15.4991C18.5579 15.4649 19.8706 14.1244 21.4751 12.5201L24.3923 9.60327L28.0836 13.293L31.775 16.9828V20.1679ZM22.0573 19.8368C21.8604 19.9898 21.7598 20.3013 21.8396 20.5112C22.0159 20.9748 22.5417 21.0995 22.8826 20.7588C23.1296 20.5119 23.1377 20.1983 22.9041 19.9209C22.7664 19.7572 22.6903 19.7228 22.4689 19.724C22.315 19.7248 22.1395 19.7729 22.0573 19.8368ZM10.7566 25.5495C10.7566 25.5638 9.96407 26.9488 8.99548 28.6271L7.23439 31.6787L6.12641 31.6964C5.517 31.706 5.01843 31.7024 5.01843 31.6882C5.01843 31.6625 8.20323 26.13 8.44662 25.7329L8.57499 25.5234H9.66582C10.2657 25.5234 10.7566 25.5351 10.7566 25.5495ZM26.337 28.6086C27.3067 30.2877 28.1 31.6734 28.1 31.6878C28.1 31.7022 27.6014 31.706 26.992 31.6964L25.884 31.6787L24.1229 28.6271C23.1544 26.9488 22.3618 25.5632 22.3618 25.5479C22.3618 25.5328 22.8596 25.5283 23.468 25.5379L24.5741 25.5556L26.337 28.6086ZM12.5689 28.3204C12.2087 28.52 12.1432 28.9586 12.4263 29.2753C12.9121 29.8189 13.7468 29.2567 13.4336 28.5969C13.2725 28.2576 12.8983 28.1379 12.5689 28.3204Z" fill="#303030"/>
</svg>
