<svg width="36" height="39" viewBox="0 0 36 39" fill="none" xmlns="http://www.w3.org/2000/svg">
<path d="M5.99999 18.4996C5.54249 19.4291 4.37917 20.5038 3.49999 20.9996C2.11928 20.9996 0.999991 19.8803 0.999991 18.4996C0.825628 16.8851 2.00916 15.8506 3.49999 15.9996C4.8807 15.9996 5.99999 17.1189 5.99999 18.4996Z" fill="#0CFAB2"/>
<path d="M35.0171 3.51423C34.5596 4.44379 33.3963 5.51841 32.5171 6.01422C31.1364 6.01422 30.0171 4.89494 30.0171 3.51423C29.8427 1.89975 31.0263 0.865212 32.5171 1.01423C33.8978 1.01423 35.0171 2.13351 35.0171 3.51423Z" fill="#0CFAB2"/>
<path d="M15.0171 8.51423C15.4503 9.74002 14.1241 10.7708 12.5171 11.0142C11.1364 11.0142 10.0171 9.89494 10.0171 8.51423C9.84272 6.89975 11.0263 5.86521 12.5171 6.01423C13.8978 6.01423 15.0171 7.13351 15.0171 8.51423Z" fill="#3B0CFA"/>
<rect x="1" y="28" width="5" height="10" fill="#FA0C54"/>
<rect x="20" y="21" width="5" height="17" fill="#FA0C54"/>
<rect x="10" y="17" width="5" height="21" fill="#CBFA0C"/>
<rect x="30" y="11" width="5" height="27" fill="#CBFA0C"/>
<path d="M25.0171 12.5142C25.4503 13.74 24.1241 14.7708 22.5171 15.0142C21.1364 15.0142 20.0171 13.8949 20.0171 12.5142C19.8427 10.8998 21.0263 9.86521 22.5171 10.0142C23.8978 10.0142 25.0171 11.1335 25.0171 12.5142Z" fill="#3B0CFA"/>
<path fill-rule="evenodd" clip-rule="evenodd" d="M31.5732 0.11179C29.7043 0.611859 28.7129 2.75442 29.5456 4.49426L29.7166 4.85143L27.129 7.16226C25.7059 8.43319 24.5131 9.48436 24.4783 9.49815C24.4436 9.51193 24.2314 9.43629 24.0069 9.33011C23.1254 8.91307 22.1276 8.92236 21.2467 9.35578C20.8327 9.55954 20.152 10.1477 19.9851 10.4458C19.9329 10.5391 19.5923 10.4303 17.9972 9.81083L16.0723 9.06328L16.0221 8.36372C15.9798 7.77453 15.929 7.57747 15.7002 7.1145C15.366 6.43832 14.8489 5.93498 14.1469 5.60241C13.6769 5.37976 13.5718 5.3598 12.8691 5.3598C12.1375 5.3598 12.0777 5.37252 11.524 5.64613C9.93441 6.43177 9.28139 8.23057 10.016 9.80032L10.2515 10.3037L9.50564 11.0366C9.09538 11.4397 7.88257 12.6331 6.81045 13.6885L4.86114 15.6076L4.43549 15.4127C2.85264 14.688 1.05711 15.3243 0.286863 16.8829C0.00997857 17.4431 0 17.4912 0 18.267C0 19.0137 0.0173672 19.1074 0.244436 19.5867C1.19727 21.5983 3.84973 22.0423 5.36204 20.4433C6.33879 19.4105 6.5344 17.9947 5.86843 16.778L5.61417 16.3135L8.30228 13.6839L10.9903 11.0543L11.546 11.3301C12.0742 11.5923 12.1398 11.6059 12.8721 11.6059C13.6081 11.6059 13.6684 11.5932 14.2169 11.3221C14.7528 11.0572 15.3371 10.5521 15.5522 10.1678C15.6262 10.0357 15.7606 10.0761 17.5825 10.778L19.5336 11.5297L19.4891 11.914C19.3935 12.74 19.7786 13.7666 20.4251 14.4094C21.9678 15.943 24.5624 15.4761 25.5002 13.4961C25.729 13.0131 25.7461 12.921 25.7461 12.1724C25.7461 11.4047 25.7338 11.3428 25.4775 10.8267L25.2089 10.2856L27.8251 7.94896C30.2355 5.79604 30.4514 5.62161 30.5713 5.73008C30.8621 5.99325 31.577 6.24782 32.1462 6.29085C33.5093 6.39399 34.6998 5.68772 35.2916 4.42487C35.4747 4.03434 35.4961 3.90088 35.4961 3.14922C35.4961 2.35802 35.482 2.28117 35.2514 1.81256C34.558 0.404138 33.0635 -0.286893 31.5732 0.11179ZM33.1123 1.17446C34.2241 1.55334 34.8069 2.90608 34.3246 3.98871C33.9819 4.75782 33.3806 5.17402 32.5333 5.22841C31.8156 5.27449 31.3279 5.07591 30.8481 4.54225C30.0712 3.67808 30.0985 2.52088 30.9151 1.70432C31.5241 1.09525 32.318 0.903825 33.1123 1.17446ZM13.8141 6.62311C15.0941 7.26273 15.3659 8.94895 14.3525 9.96234C13.0368 11.2781 10.769 10.3374 10.7858 8.48285C10.7935 7.62797 11.1791 6.99933 11.9242 6.627C12.5883 6.29512 13.1554 6.29398 13.8141 6.62311ZM23.4581 10.2287C23.8499 10.3924 24.3428 10.8816 24.5385 11.3012C24.917 12.1121 24.7078 13.1213 24.0357 13.7271C23.5985 14.1213 23.2518 14.257 22.6611 14.2651C22.2636 14.2705 22.0801 14.2297 21.73 14.0578C19.9397 13.1787 20.2222 10.6221 22.166 10.1117C22.4632 10.0337 23.1375 10.0947 23.4581 10.2287ZM29.446 10.7021L29.2881 10.9028V24.3647V37.8265L29.446 38.0273L29.6038 38.228H32.4548C35.2041 38.228 35.3111 38.2226 35.458 38.0756C35.6092 37.9244 35.6104 37.8217 35.6104 24.3384C35.6104 11.2743 35.605 10.7487 35.471 10.6275C35.3466 10.5149 35.0258 10.5014 32.4678 10.5014H29.6038L29.446 10.7021ZM34.5439 24.3647V37.1616H32.4492H30.3545V24.3647V11.5678H32.4492H34.5439V24.3647ZM3.99445 16.3644C4.45049 16.597 4.75191 16.8884 4.97204 17.3096C5.24497 17.8319 5.26249 18.6791 5.01021 19.1557C4.58722 19.9549 3.93732 20.3611 3.09022 20.3558C2.496 20.3522 2.15163 20.2187 1.71036 19.8208C1.1051 19.2752 0.872244 18.3907 1.1179 17.5707C1.22043 17.2284 1.67624 16.6779 2.04659 16.449C2.58741 16.1147 3.43322 16.078 3.99445 16.3644ZM9.91415 16.8868C9.79814 17.015 9.78809 17.8772 9.78809 27.7357V38.4454L9.9888 38.6033C10.1835 38.7564 10.2725 38.7612 12.9629 38.7612H15.7364L15.9233 38.5742L16.1104 38.3872V27.7197C16.1104 17.1537 16.1089 17.0507 15.958 16.8998C15.811 16.7528 15.7041 16.7475 12.9229 16.7475C10.2269 16.7475 10.0321 16.7565 9.91415 16.8868ZM15.0439 27.7162V37.6948H12.9492H10.8545V27.7162V17.7377H12.9492H15.0439V27.7162ZM19.8668 20.2519C19.7753 20.2888 19.6638 20.3872 19.6192 20.4706C19.5631 20.5754 19.5381 23.326 19.5381 29.3701C19.5381 37.1642 19.551 38.1363 19.6567 38.2872L19.7752 38.4565H22.6992H25.6232L25.7418 38.2872C25.8474 38.1363 25.8604 37.1581 25.8604 29.3044V20.491L25.6596 20.3331C25.4649 20.1799 25.379 20.1754 22.7461 20.18C21.254 20.1827 19.9583 20.2151 19.8668 20.2519ZM24.7939 29.3539V37.4662H22.6992H20.6045V29.3539V21.2416H22.6992H24.7939V29.3539ZM0.342773 27.0074C0.0357246 27.1172 0.0380859 27.0705 0.0380859 33.0204V38.7526L0.207416 38.8711C0.353133 38.9732 0.766213 38.9897 3.18155 38.9897H5.98642L6.1748 38.8013L6.36325 38.6129L6.34276 32.9293L6.32227 27.2457L6.14242 27.1001C5.97248 26.9625 5.81153 26.9548 3.20981 26.9605C1.69581 26.9638 0.405615 26.9849 0.342773 27.0074ZM5.29395 32.9721V37.9233H3.16113H1.02832V32.9721V28.0209H3.16113H5.29395V32.9721Z" fill="#303030"/>
</svg>
