<svg width="37" height="39" viewBox="0 0 37 39" fill="none" xmlns="http://www.w3.org/2000/svg">
<path d="M5.5 17.5L3.5 12L33 11.5L31 17.5H5.5Z" fill="#FA0C54"/>
<path d="M0.5 5V1L36 0.5V5L34 9H2.5L0.5 5Z" fill="#3B0CFA"/>
<path d="M13.5 38L10 29H26.5L23 38H13.5Z" fill="#0CFAB2"/>
<path d="M9 26L6.5 20H30L27.5 26H9Z" fill="#CBFA0C"/>
<path fill-rule="evenodd" clip-rule="evenodd" d="M0.187002 0.187002L0 0.373928V2.68224V4.99063L0.8401 7.19893C1.44224 8.7817 1.73474 9.45575 1.87269 9.57861L2.06517 9.75H18.2812H34.4973L34.6898 9.57861C34.8278 9.45575 35.1203 8.7817 35.7224 7.19893L36.5625 4.99063V2.68224V0.373928L36.3755 0.187002L36.1886 0H18.2812H0.373928L0.187002 0.187002ZM35.3438 2.99203V4.76531L34.6301 6.62924L33.9164 8.49316H18.2792H2.64202L1.93042 6.62794L1.21875 4.76272V2.99074V1.21875H18.2812H35.3438V2.99203ZM2.79056 11.1267C2.64857 11.2383 2.58984 11.3557 2.58984 11.5278C2.58984 11.7355 4.70917 17.4467 4.96336 17.924C5.01226 18.0158 5.10664 18.1326 5.17306 18.1836C5.3494 18.319 31.2131 18.319 31.3894 18.1836C31.4559 18.1326 31.5502 18.0158 31.5991 17.924C31.8533 17.4467 33.9727 11.7355 33.9727 11.5278C33.9727 11.3557 33.9139 11.2383 33.7719 11.1267L33.5712 10.9688H18.2812H2.99127L2.79056 11.1267ZM32.0212 13.4634C31.7523 14.1652 31.3359 15.2614 31.0958 15.8996L30.6592 17.0599H18.2812H5.90332L5.4667 15.8996C5.22661 15.2614 4.81018 14.1652 4.54129 13.4634L4.0525 12.1875H18.2812H32.51L32.0212 13.4634ZM6.04721 19.6784C5.9088 19.7975 5.84033 19.9304 5.84132 20.0783C5.8436 20.42 8.19716 26.5205 8.38789 26.6792C8.53864 26.8047 9.12341 26.8125 18.2812 26.8125C27.4392 26.8125 28.0239 26.8047 28.1745 26.6792C28.3647 26.5207 30.7181 20.4202 30.7209 20.0783C30.7221 19.9301 30.6539 19.7976 30.5153 19.6784L30.3079 19.5H18.2812H6.25462L6.04721 19.6784ZM29.1116 21.0806C29.0358 21.2796 28.6179 22.3764 28.1828 23.5181L27.3917 25.5938H18.2797H9.16759L8.37822 23.5181C7.94412 22.3764 7.52685 21.2796 7.45106 21.0806L7.31311 20.7188H18.2812H29.2494L29.1116 21.0806ZM9.30927 28.1847C9.21756 28.2702 9.12234 28.4205 9.09766 28.5187C9.03665 28.7617 12.8104 38.6765 13.0363 38.8667C13.1836 38.9907 13.5479 39 18.2812 39C23.0146 39 23.3789 38.9907 23.5262 38.8667C23.7382 38.6882 27.5262 28.763 27.4691 28.5356C27.4468 28.4468 27.3784 28.3055 27.3171 28.2217C27.2069 28.071 27.1061 28.0691 18.3408 28.0494C9.50976 28.0295 9.4754 28.03 9.30927 28.1847ZM25.955 29.3452C25.9352 29.3976 25.2034 31.3171 24.3285 33.6108L22.7381 37.7812H18.2811H13.8241L12.2335 33.6108C11.3587 31.3171 10.6268 29.3976 10.6072 29.3452C10.5789 29.2694 12.1453 29.25 18.2812 29.25C24.4174 29.25 25.9836 29.2694 25.955 29.3452ZM17.6719 30.231C17.6719 30.573 17.6534 30.6102 17.4408 30.6983C16.9287 30.9104 16.4531 31.6803 16.4531 32.2969C16.4531 33.2374 17.3375 34.125 18.2745 34.125C18.5946 34.125 18.8906 34.4178 18.8906 34.7344C18.8906 35.0475 18.5944 35.3438 18.2812 35.3438C18.0271 35.3438 17.6719 35.0572 17.6719 34.8521C17.6719 34.7557 17.5613 34.7344 17.0625 34.7344C16.3823 34.7344 16.3795 34.7373 16.5427 35.2823C16.6521 35.6474 17.1269 36.2029 17.4408 36.3329C17.6534 36.421 17.6719 36.4582 17.6719 36.8002V37.1719H18.2812H18.8906V36.8002C18.8906 36.4582 18.9091 36.421 19.1217 36.3329C19.6338 36.1209 20.1094 35.351 20.1094 34.7344C20.1094 33.7939 19.225 32.9062 18.288 32.9062C17.9679 32.9062 17.6719 32.6134 17.6719 32.2969C17.6719 31.9837 17.9681 31.6875 18.2812 31.6875C18.5354 31.6875 18.8906 31.9741 18.8906 32.1792C18.8906 32.2755 19.0012 32.2969 19.5 32.2969C20.1802 32.2969 20.183 32.2939 20.0198 31.749C19.9104 31.3839 19.4356 30.8284 19.1217 30.6983C18.9091 30.6102 18.8906 30.573 18.8906 30.231V29.8594H18.2812H17.6719V30.231Z" fill="#303030"/>
</svg>
