<svg width="39" height="32" viewBox="0 0 39 32" fill="none" xmlns="http://www.w3.org/2000/svg">
<path d="M6.01708 3.51423C5.55958 4.44379 4.39626 5.51841 3.51708 6.01422C2.13637 6.01422 1.01708 4.89494 1.01708 3.51423C0.842718 1.89975 2.02625 0.865212 3.51708 1.01423C4.89779 1.01423 6.01708 2.13351 6.01708 3.51423Z" fill="#0CFAB2"/>
<path d="M32.5 23V19H38L37 21L37.6382 22.2764C37.8044 22.6088 37.5627 23 37.191 23H32.5Z" fill="#FA0C54"/>
<path d="M24.0171 3.51423C23.5596 4.44379 22.3792 5.00418 21.5 5.5C20.6285 4.87958 19.3944 4.43468 19.0171 3.51423C18.8427 1.89975 20.0263 0.865212 21.5171 1.01423C22.8978 1.01423 24.0171 2.13351 24.0171 3.51423Z" fill="#0CFAB2"/>
<path d="M20.0171 16.5142C19.5596 17.4438 18.3792 18.0042 17.5 18.5C16.6285 17.8796 15.3944 17.4347 15.0171 16.5142C14.8427 14.8998 16.0263 13.8652 17.5171 14.0142C18.8978 14.0142 20.0171 15.1335 20.0171 16.5142Z" fill="#FA0C54"/>
<path d="M15.0171 28.5142C14.5596 29.4438 13.3792 30.0042 12.5 30.5C11.6285 29.8796 10.3944 29.4347 10.0171 28.5142C9.84272 26.8998 11.0263 25.8652 12.5171 26.0142C13.8978 26.0142 15.0171 27.1335 15.0171 28.5142Z" fill="#0CFAB2"/>
<path d="M33.5 29C33.0425 29.9296 33.3793 30.0044 32.5001 30.5002C31.6286 29.8798 31.3776 30.4205 31.0003 29.5C30.8259 27.8855 31.0263 26.8654 32.5172 27.0144C33.8979 27.0144 33.5 27.6193 33.5 29Z" fill="#0CFAB2"/>
<path fill-rule="evenodd" clip-rule="evenodd" d="M2.37339 0.057594C1.48652 0.233399 0.5215 1.03221 0.213613 1.84527C-0.619479 4.04572 1.0966 6.22515 3.41298 5.90836C4.31775 5.78458 5.22648 5.12142 5.63042 4.29001L5.80052 3.94H12.323H18.8456L19.0209 4.31423C19.2411 4.78436 19.8565 5.39412 20.368 5.64899C21.126 6.02665 22.1993 6.02299 22.982 5.64C23.5034 5.3849 24.0524 4.84484 24.3129 4.33084L24.511 3.94H26.5227C27.6292 3.94 28.8005 3.97702 29.1257 4.02226C30.6031 4.2277 31.9536 5.01341 32.8466 6.18707C33.3316 6.8244 33.5732 7.29126 33.813 8.05518C33.9637 8.53499 33.9918 8.78636 33.9918 9.65289C33.9918 10.7774 33.8614 11.3694 33.4216 12.2405C32.7262 13.6182 31.3698 14.7215 29.8023 15.1847C29.3912 15.3062 28.874 15.3224 24.6508 15.3461L19.9563 15.3723L19.9039 15.0834C19.7487 14.2275 19.0925 13.3854 18.2691 12.985C17.8077 12.7607 17.7056 12.7409 17.0055 12.7394C16.3071 12.738 16.2026 12.7577 15.7486 12.9759C14.9286 13.3702 14.3384 14.0731 14.1242 14.9106L14.0176 15.3277L10.5603 15.3693L7.10313 15.4109L6.45567 15.6112C5.53132 15.8972 5.13119 16.0824 4.42889 16.5497C2.8794 17.5807 1.75091 19.301 1.42756 21.1251C1.27057 22.011 1.36198 23.56 1.6183 24.3541C2.43745 26.8926 4.36574 28.6477 6.9367 29.1948C7.25167 29.2618 7.88237 29.3052 8.54019 29.3052H9.6245L9.79459 29.6552C10.0369 30.1539 10.6482 30.7681 11.1437 31.0108C12.3329 31.5931 13.6543 31.3755 14.5799 30.4451C14.7918 30.232 15.0445 29.8883 15.1415 29.6814L15.3177 29.3052H22.8342H30.3509L30.5845 29.6811C31.0262 30.3916 31.7002 30.7241 32.5605 30.6558C34.5947 30.4942 35.0895 27.7208 33.2516 26.7831L32.9603 26.6345L32.9809 25.1325L33.0016 23.6304L35.8457 23.5923L38.69 23.5543L38.8355 23.3744C39.092 23.0575 39.0217 22.8404 38.3419 21.8481L37.7027 20.9151L38.3419 19.9959C39.0471 18.9817 39.1107 18.7639 38.7941 18.4473L38.6071 18.2603H35.821C33.6586 18.2603 33.0283 18.239 33.0055 18.1651C32.9894 18.1128 32.9553 17.9747 32.9297 17.8582C32.8619 17.5492 32.4505 17.3641 32.1281 17.4975C31.9978 17.5515 31.8546 17.6641 31.8099 17.7478C31.7546 17.8511 31.731 19.2994 31.7366 22.268L31.7447 26.6361L31.4591 26.7833C31.0877 26.9746 30.7037 27.3573 30.5183 27.7206L30.3705 28.0103H22.9163H15.462L15.3711 27.6485C14.921 25.8588 12.9114 24.9013 11.2252 25.6733C10.4329 26.036 9.86611 26.7055 9.61741 27.5723L9.49173 28.0103H8.481C7.2701 28.0103 6.58699 27.861 5.71018 27.4047C3.7863 26.4033 2.64471 24.5344 2.63702 22.3736C2.63344 21.3665 2.78228 20.7103 3.21806 19.8122C3.78455 18.6447 4.92705 17.571 6.11777 17.0872C7.07937 16.6964 7.48605 16.6607 10.9694 16.6607H14.1946L14.2916 16.9289C14.4485 17.3629 15.1638 18.073 15.7198 18.3467C17.136 19.044 18.962 18.4187 19.6509 17.0007L19.8161 16.6607H24.3232C29.212 16.6607 29.5584 16.6375 30.6907 16.2351C32.8115 15.4811 34.5034 13.6463 35.1094 11.4429C35.3457 10.5839 35.3484 8.74736 35.1147 7.89385C34.4388 5.42558 32.5499 3.55137 30.0741 2.89225C29.3853 2.70891 29.2147 2.69634 26.9649 2.66374L24.5846 2.62916V2.41885C24.5846 2.0843 24.0848 1.17184 23.7147 0.830739C22.6213 -0.177168 21.0533 -0.262632 19.8541 0.6202C19.397 0.956651 18.9079 1.69438 18.7887 2.22689L18.6951 2.64508H12.3179H5.94052L5.85186 2.29293C5.45614 0.721356 3.93994 -0.253035 2.37339 0.057594ZM3.81829 1.53099C4.31242 1.82059 4.57689 2.26932 4.61338 2.88022C4.64971 3.48929 4.48823 3.86268 4.0123 4.27005C2.92137 5.20392 1.27202 4.38454 1.27812 2.91168C1.28063 2.29453 1.78748 1.61721 2.429 1.37377C2.80026 1.23285 3.43142 1.3043 3.81829 1.53099ZM22.4392 1.4961C23.5279 2.05155 23.6574 3.60431 22.6743 4.31636C21.4318 5.21649 19.7434 4.17347 20.0227 2.67829C20.2338 1.54843 21.412 0.972037 22.4392 1.4961ZM17.6363 14.113C18.2657 14.3759 18.6499 14.9627 18.6533 15.6663C18.6605 17.1689 16.8566 17.9135 15.7987 16.8446C15.4441 16.4863 15.335 16.2104 15.3323 15.6645C15.3301 15.2375 15.3637 15.1085 15.5594 14.7919C15.9807 14.1104 16.9061 13.8079 17.6363 14.113ZM36.6839 20.1223C36.1731 20.8572 36.1733 20.9919 36.6872 21.728L37.0848 22.2974H35.0242H32.9635V20.9263V19.5552H35.0208H37.0781L36.6839 20.1223ZM13.235 26.8699C14.6649 27.6006 14.3139 29.7968 12.7292 30.0344C11.7496 30.1814 10.8037 29.3654 10.7991 28.3697C10.7934 27.1078 12.1119 26.296 13.235 26.8699ZM32.7357 27.9848C33.4061 28.3808 33.1327 29.3814 32.3541 29.3814C32.1059 29.3814 31.9897 29.3333 31.815 29.1588C31.1884 28.5321 31.9716 27.5334 32.7357 27.9848Z" fill="#303030"/>
</svg>
