<svg width="39" height="35" viewBox="0 0 39 35" fill="none" xmlns="http://www.w3.org/2000/svg">
<path d="M1.5 1H37L38 2V5V8V9H1L0 3L1.5 1Z" fill="#FA0C54"/>
<path d="M13.5132 17H25.6579L26 17.9412V20.7647V23.5882L25.8289 25H13.1711L13 18.8824L13.5132 17Z" fill="#0CFAB2"/>
<path d="M1 25.5H13V26.5V29L13.5 32V33.5L1.17105 33L1 26.8824V25.5Z" fill="#3B0CFA"/>
<path d="M26.5132 9H38.6579L39 9.94118V12.7647V15.5882L38.8289 17H26.1711L26 10.8824L26.5132 9Z" fill="#0CFAB2"/>
<path d="M26 26L38.6579 26.0001L38.5 27.5V30L38 32L36.5 33.5L26.1711 34.0001L26 27.8824V26Z" fill="#0CFAB2"/>
<path fill-rule="evenodd" clip-rule="evenodd" d="M1.69182 0.145793C1.22389 0.30743 0.825362 0.607547 0.478475 1.0594C-0.0322572 1.72468 0.00042057 0.656373 0.00042057 16.6932C0.00042057 27.1692 0.0243385 31.3371 0.0861139 31.6282C0.277762 32.5305 0.927051 33.4065 1.72442 33.8384C2.5652 34.2937 2.2446 34.2789 11.2101 34.2789C17.182 34.2789 19.4689 34.2553 19.6073 34.1922C19.8659 34.0743 19.9673 33.7619 19.8429 33.466C19.7896 33.3391 19.6879 33.213 19.6169 33.1858C19.546 33.1585 18.2053 33.1363 16.6377 33.1363H13.7875V29.5562V25.9761H19.5004H25.2133V29.5562V33.1363H23.309C21.5063 33.1363 21.3966 33.1444 21.2524 33.2886C21.0255 33.5155 21.0492 33.9231 21.3007 34.121C21.5006 34.2782 21.5322 34.2789 28.7496 34.2789C36.6635 34.2789 36.442 34.2903 37.2764 33.8384C38.0832 33.4014 38.7296 32.5146 38.9229 31.5797C38.9773 31.3168 38.9962 26.5244 38.9824 16.5308L38.9623 1.86773L38.7513 1.43797C38.5051 0.93661 37.9948 0.437303 37.4904 0.204217L37.1342 0.0396094L22.768 0.0198047L8.40187 0L8.20017 0.15859C7.93684 0.365777 7.92511 0.743971 8.17473 0.978504L8.35107 1.1441L22.5522 1.14578C36.1694 1.14738 36.7658 1.15317 37.058 1.28738C37.4205 1.45382 37.5829 1.62368 37.7407 2.00134C37.8394 2.2377 37.8578 2.75552 37.8578 5.29303V8.30426H19.5004H1.143V5.25434C1.143 2.41183 1.15282 2.18522 1.28727 1.92182C1.46543 1.57272 1.63842 1.41245 2.00024 1.26125C2.22936 1.16551 2.66118 1.1441 4.36088 1.1441C6.61549 1.1441 6.70987 1.12803 6.81072 0.726299C6.8664 0.50441 6.6957 0.120199 6.50969 0.0488262C6.4419 0.0228516 5.42089 0.00266612 4.24076 0.00403722C2.36403 0.00617003 2.04457 0.0239943 1.69182 0.145793ZM12.6267 13.0079L12.6069 16.5689L6.87493 16.5884L1.143 16.608V13.0274V9.44684H6.89474H12.6465L12.6267 13.0079ZM25.2133 13.0269V16.607H19.5004H13.7875V13.0269V9.44684H19.5004H25.2133V13.0269ZM37.8578 13.0274V16.608L32.1259 16.5884L26.394 16.5689L26.3742 13.0079L26.3544 9.44684H32.1061H37.8578V13.0274ZM12.645 21.2916V24.8336H6.89398H1.143V21.2916V17.7496H6.89398H12.645V21.2916ZM25.2133 21.2916V24.8336H19.5004H13.7875V21.2916V17.7496H19.5004H25.2133V21.2916ZM37.8578 21.2916V24.8336H32.1069H26.3559V21.2916V17.7496H32.1069H37.8578V21.2916ZM12.645 29.5562V33.1363H7.85999C2.28664 33.1363 2.52917 33.1636 1.82245 32.4568C1.15404 31.7884 1.143 31.7254 1.143 28.5902V25.9761H6.89398H12.645V29.5562ZM37.8578 28.5902C37.8578 31.7254 37.8468 31.7884 37.1784 32.4568C36.4717 33.1636 36.7142 33.1363 31.1409 33.1363H26.3559V29.5562V25.9761H32.1069H37.8578V28.5902Z" fill="#303030"/>
</svg>
