<svg width="21" height="16" viewBox="0 0 21 16" fill="none" xmlns="http://www.w3.org/2000/svg">
<path fill-rule="evenodd" clip-rule="evenodd" d="M20.6667 7.99967C20.6667 7.44739 20.219 6.99967 19.6667 6.99967H1C0.447715 6.99967 0 7.44739 0 7.99967C0 8.55196 0.447715 8.99967 1 8.99967H19.6667C20.219 8.99967 20.6667 8.55196 20.6667 7.99967Z" fill="#303030"/>
<path fill-rule="evenodd" clip-rule="evenodd" d="M20.6667 1.33301C20.6667 0.780723 20.219 0.333008 19.6667 0.333008H1C0.447715 0.333008 0 0.780723 0 1.33301C0 1.88529 0.447715 2.33301 1 2.33301H19.6667C20.219 2.33301 20.6667 1.88529 20.6667 1.33301Z" fill="#303030"/>
<path fill-rule="evenodd" clip-rule="evenodd" d="M20.6667 14.6663C20.6667 14.1141 20.219 13.6663 19.6667 13.6663H1C0.447715 13.6663 0 14.1141 0 14.6663C0 15.2186 0.447715 15.6663 1 15.6663H19.6667C20.219 15.6663 20.6667 15.2186 20.6667 14.6663Z" fill="#303030"/>
</svg>
