<svg width="22" height="15" viewBox="0 0 22 15" fill="none" xmlns="http://www.w3.org/2000/svg">
<path fill-rule="evenodd" clip-rule="evenodd" d="M14.0302 6.46985C14.3231 6.76275 14.3231 7.23762 14.0302 7.53051L10.5302 11.0305C10.2373 11.3234 9.76239 11.3234 9.4695 11.0305L7.4695 9.03051C7.17661 8.73762 7.17661 8.26275 7.4695 7.96985C7.76239 7.67696 8.23727 7.67696 8.53016 7.96985L9.99983 9.43952L12.9695 6.46985C13.2624 6.17696 13.7373 6.17696 14.0302 6.46985Z" fill="#878D94"/>
<path fill-rule="evenodd" clip-rule="evenodd" d="M11.9317 2.2085C10.3814 2.2085 9.04041 3.11083 8.40794 4.4223C8.2379 4.77491 7.82525 4.93743 7.46042 4.79546C6.96969 4.60451 6.43523 4.49938 5.87443 4.49938C3.45796 4.49938 1.49902 6.45831 1.49902 8.87478C1.49902 11.2912 3.45796 13.2502 5.87443 13.2502H17.5231C19.1675 13.2502 20.5006 11.9171 20.5006 10.2726C20.5006 8.62815 19.1675 7.29505 17.5231 7.29505C17.2555 7.29505 16.9973 7.33016 16.7522 7.3956C16.512 7.45976 16.2556 7.40071 16.0677 7.23793C15.8797 7.07516 15.7847 6.82983 15.8139 6.58292C15.8319 6.43073 15.8412 6.27558 15.8412 6.11795C15.8412 3.95882 14.0909 2.2085 11.9317 2.2085ZM7.37984 3.19421C8.34158 1.69991 10.0203 0.708496 11.9317 0.708496C14.8122 0.708496 17.1669 2.95994 17.3319 5.79907C17.3953 5.7964 17.4591 5.79505 17.5231 5.79505C19.996 5.79505 22.0006 7.79973 22.0006 10.2726C22.0006 12.7455 19.996 14.7502 17.5231 14.7502H5.87443C2.62953 14.7502 -0.000976562 12.1197 -0.000976562 8.87478C-0.000976562 5.62988 2.62953 2.99938 5.87443 2.99938C6.39409 2.99938 6.89881 3.06702 7.37984 3.19421Z" fill="#878D94"/>
</svg>
