<svg width="19" height="19" viewBox="0 0 19 19" fill="none" xmlns="http://www.w3.org/2000/svg">
<path fill-rule="evenodd" clip-rule="evenodd" d="M15.7852 0.0725714C15.496 0.14874 15.362 0.209638 15.1043 0.381876C14.9392 0.49232 6.47397 8.95678 6.33036 9.15512C6.25222 9.26302 5.10897 13.3433 5.10923 13.5134C5.10953 13.7235 5.3515 13.9625 5.56396 13.9625C5.726 13.9625 9.79228 12.8091 9.89505 12.734C9.95016 12.6937 11.9124 10.7316 14.2555 8.37375C17.3668 5.24293 18.557 4.02195 18.6685 3.84669C18.9433 3.41454 19.0585 2.83783 18.9715 2.32884C18.9462 2.18102 18.8625 1.93467 18.7758 1.7531C18.6399 1.46825 18.5706 1.38174 18.0998 0.908634C17.6282 0.434783 17.5434 0.366194 17.2594 0.2298C16.7577 -0.0112514 16.292 -0.0609103 15.7852 0.0725714ZM16.8636 1.08681C17.0665 1.18971 17.8203 1.94938 17.9324 2.16381C18.0066 2.30592 18.0202 2.38653 18.0207 2.68654C18.0212 3.13683 17.953 3.28214 17.5315 3.72777L17.2273 4.04936L16.1008 2.91736L14.9743 1.78536L15.3016 1.47277C15.4816 1.30086 15.7029 1.12426 15.7932 1.08027C16.115 0.923756 16.5474 0.926407 16.8636 1.08681ZM1.76496 1.92515C0.987298 2.13495 0.390186 2.69322 0.1137 3.46898L0 3.78799V10.4154C0 16.7377 0.00312119 17.0531 0.0681459 17.2648C0.205144 17.7109 0.354701 17.9601 0.686958 18.2961C0.920416 18.5321 1.07376 18.6513 1.27248 18.7509C1.81508 19.0229 1.28192 19.0063 9.12204 18.9948L16.1633 18.9844L16.4138 18.8864C17.1438 18.601 17.6594 18.072 17.9012 17.3602C17.9825 17.1209 17.9838 17.0833 17.9954 14.7092C18.0059 12.5461 18.0009 12.2893 17.9468 12.1863C17.8673 12.035 17.7105 11.9462 17.5225 11.9462C17.4005 11.9462 17.3419 11.9719 17.231 12.074L17.0922 12.2018L17.0736 14.5663C17.0551 16.922 17.0547 16.9316 16.9701 17.142C16.8166 17.5234 16.5302 17.8113 16.1507 17.9655L15.9403 18.0509L9.12431 18.0609C4.62541 18.0674 2.23886 18.0579 2.10405 18.0329C1.65642 17.9497 1.2594 17.6436 1.07287 17.2378L0.966082 17.0055V10.4341V3.86267L1.07387 3.62811C1.21076 3.3302 1.52745 3.02657 1.82868 2.9044L2.04363 2.81722L4.38452 2.79855C6.99926 2.77771 6.85305 2.79377 6.98577 2.51269C7.07131 2.33157 7.03274 2.15776 6.87103 1.99523L6.7415 1.86511L4.35543 1.86757C2.374 1.86959 1.93465 1.87937 1.76496 1.92515ZM15.4388 3.60142L16.5346 4.70299L13.0699 8.18445L9.6053 11.666L8.50906 10.5649C7.90612 9.95926 7.41282 9.44691 7.41282 9.42626C7.41282 9.37716 14.2567 2.49985 14.3056 2.49985C14.3262 2.49985 14.8362 2.99554 15.4388 3.60142ZM8.66709 12.1298C8.53266 12.175 6.27972 12.799 6.27351 12.7927C6.2695 12.7887 6.38234 12.3656 6.52425 11.8524C6.66619 11.3393 6.81779 10.7875 6.86115 10.6262L6.94003 10.3329L7.8269 11.2235C8.31603 11.7147 8.69284 12.1211 8.66709 12.1298Z" fill="black"/>
</svg>
