<svg width="19" height="19" viewBox="0 0 19 19" fill="none" xmlns="http://www.w3.org/2000/svg">
<path fill-rule="evenodd" clip-rule="evenodd" d="M5.05218 0.0724214C4.64575 0.182788 4.35798 0.357381 4.04089 0.68598C3.71926 1.01931 3.55444 1.31455 3.44713 1.74924C3.37826 2.02847 3.3738 2.1817 3.3738 4.28086V6.51525L1.83689 8.11329C0.210645 9.80419 0.171287 9.85314 0.0503151 10.3345C-0.0486008 10.7281 -0.000442383 11.1662 0.183948 11.55C0.292852 11.7767 6.92122 18.6541 7.16142 18.7896C7.64991 19.0651 8.21997 19.0703 8.73917 18.8038C8.93273 18.7045 9.38565 18.2514 12.1923 15.3496L15.4227 12.0096L16.959 11.481L18.4952 10.9524L13.6453 5.92593L8.79535 0.899478L8.30159 1.41017L7.80783 1.92087L7.72744 1.6408C7.39115 0.469364 6.188 -0.235974 5.05218 0.0724214ZM6.09893 1.28007C6.33099 1.39774 6.50618 1.58669 6.61794 1.83979C6.68136 1.9834 6.69751 2.10839 6.70772 2.53443L6.72016 3.05394L5.60286 4.2084L4.48553 5.36286L4.49592 3.68889L4.50628 2.01492L4.61066 1.79465C4.88216 1.22165 5.5371 0.995183 6.09893 1.28007ZM12.6147 6.51255L16.4158 10.4522L15.6037 10.7307L14.7915 11.0092L11.5054 14.408C8.55278 17.4618 8.20486 17.8094 8.07654 17.8334C7.76338 17.8922 7.88353 18.0047 4.40659 14.3975C1.47958 11.3608 1.14819 11.0048 1.12502 10.8717C1.06884 10.5493 0.994694 10.6359 3.94847 7.5757L6.71555 4.70886V7.54683V10.3848H7.27251H7.82947V6.97003V3.55528L8.30237 3.0641C8.56243 2.79395 8.78384 2.57291 8.79438 2.57291C8.80493 2.57291 10.5241 4.34574 12.6147 6.51255ZM16.5696 13.4922C16.1602 14.2277 15.7964 14.9056 15.7613 14.9987C15.4771 15.7511 15.8359 16.7055 16.5489 17.0938C17.1939 17.4451 17.934 17.3477 18.4693 16.8411C18.9359 16.3994 19.1301 15.5853 18.9085 14.9987C18.8374 14.8103 17.368 12.1549 17.3349 12.1549C17.3234 12.1549 16.979 12.7567 16.5696 13.4922ZM17.5834 14.8776C17.7082 15.1051 17.8286 15.3291 17.8511 15.3753C18.0068 15.6963 17.6999 16.1571 17.3304 16.1571C17.0268 16.1571 16.7459 15.8244 16.7872 15.5139C16.8046 15.3825 17.2846 14.4639 17.3358 14.4639C17.3472 14.4639 17.4587 14.65 17.5834 14.8776Z" fill="black"/>
</svg>
