<svg width="18" height="21" viewBox="0 0 18 21" fill="none" xmlns="http://www.w3.org/2000/svg">
<path d="M1.61032 21C0.596092 21 0.226132 19.6643 1.09582 19.1425L16.4855 9.9087C17.152 9.50878 18 9.9889 18 10.7662L18 20C18 20.5523 17.5523 21 17 21L1.61032 21Z" fill="#3B0CFA"/>
<path d="M15.079 5.19139C15.2872 5.00998 15.3089 4.69414 15.1275 4.48595L12.1712 1.09325C11.9898 0.885054 11.674 0.863344 11.4658 1.04476C11.2576 1.22617 11.2359 1.542 11.4173 1.7502L14.0451 4.76593L11.0294 7.39373C10.8212 7.57515 10.7995 7.89098 10.9809 8.09918C11.1623 8.30737 11.4781 8.32908 11.6863 8.14767L15.079 5.19139ZM1.23459 12.9397C2.09843 9.60192 3.32921 7.60442 5.33059 6.4737C7.36543 5.32406 10.2961 5.00941 14.7163 5.31325L14.7848 4.3156C10.3378 4.00991 7.14752 4.29862 4.83869 5.60304C2.4964 6.92638 1.16079 9.23364 0.266489 12.6891L1.23459 12.9397Z" fill="black"/>
</svg>
