<svg width="18" height="14" viewBox="0 0 18 14" fill="none" xmlns="http://www.w3.org/2000/svg">
<path fill-rule="evenodd" clip-rule="evenodd" d="M0.460145 11.8193C0.238562 11.5895 0.186703 11.2447 0.330908 10.9599L1.03241 9.57451C2.69268 6.29569 6.05563 4.22905 9.73084 4.22905H10.0757C10.1009 3.68267 10.1334 3.13654 10.1731 2.59081L10.241 1.66018C10.2961 0.903355 11.14 0.480287 11.7795 0.888869C13.8771 2.22923 15.7007 3.95632 17.153 5.97808L17.6091 6.61302C17.797 6.87449 17.797 7.22667 17.6091 7.48814L17.153 8.12308C15.7007 10.1448 13.8771 11.8719 11.7795 13.2123C11.14 13.6209 10.2961 13.1978 10.241 12.441L10.1731 11.5103C10.1256 10.8586 10.0886 10.2063 10.0619 9.55373C7.91207 9.49166 5.76486 9.92558 3.7915 10.8364L1.31431 11.9797C1.02447 12.1134 0.681728 12.0491 0.460145 11.8193ZM2.67839 9.69804L3.16291 9.47442C5.57405 8.36159 8.21958 7.89178 10.8447 8.09341C11.227 8.12277 11.5256 8.43577 11.5369 8.81904C11.5624 9.6804 11.6065 10.5414 11.6692 11.4013L11.6746 11.4757C13.3181 10.3141 14.7583 8.8857 15.9348 7.24795L16.0766 7.05058L15.9348 6.85321C14.7583 5.21546 13.3181 3.78707 11.6746 2.62541L11.6692 2.69987C11.6132 3.46747 11.5721 4.23589 11.5458 5.00469C11.532 5.40869 11.2005 5.72905 10.7962 5.72905L9.73084 5.72905C6.83352 5.72905 4.16555 7.24695 2.67839 9.69804Z" fill="#3B0CFA"/>
</svg>
