<svg width="16" height="18" viewBox="0 0 16 18" fill="none" xmlns="http://www.w3.org/2000/svg">
<path fill-rule="evenodd" clip-rule="evenodd" d="M6.73788 13.6274C5.96427 13.6274 5.31895 13.0362 5.2514 12.2655C5.11015 10.6542 5.07441 9.03578 5.14427 7.42048C5.05994 7.41483 4.97563 7.40894 4.89133 7.40279L3.40178 7.29421C2.44973 7.22481 1.91752 6.16324 2.43151 5.35886C3.5277 3.64335 5.53693 1.7233 7.19038 0.53556C7.67419 0.188016 8.32584 0.188017 8.80966 0.53556C10.4631 1.7233 12.4723 3.64335 13.5685 5.35886C14.0825 6.16324 13.5503 7.22481 12.5983 7.29421L11.1087 7.40279C11.0244 7.40894 10.9401 7.41483 10.8558 7.42048C10.9256 9.03578 10.8899 10.6542 10.7486 12.2655C10.6811 13.0362 10.0358 13.6274 9.26215 13.6274H6.73788ZM6.68148 6.76268C6.56777 8.54991 6.589 10.3432 6.74504 12.1274H9.25499C9.41103 10.3432 9.43226 8.54991 9.31855 6.76268C9.3058 6.56232 9.37392 6.3652 9.50766 6.21546C9.64141 6.06572 9.8296 5.97585 10.0301 5.96597C10.3535 5.95004 10.6767 5.93031 10.9997 5.90676L12.0815 5.8279C11.1219 4.41461 9.92042 3.18036 8.5313 2.1825L8.00002 1.80086L7.46873 2.1825C6.07962 3.18036 4.87813 4.41461 3.91858 5.82791L5.00038 5.90676C5.32337 5.93031 5.64656 5.95004 5.9699 5.96597C6.17043 5.97585 6.35863 6.06572 6.49237 6.21546C6.62611 6.3652 6.69423 6.56232 6.68148 6.76268Z" fill="#3B0CFA"/>
<path d="M1.75 14.0002C1.75 13.5859 1.41421 13.2502 1 13.2502C0.585786 13.2502 0.25 13.5859 0.25 14.0002V16.0002C0.25 16.9667 1.0335 17.7502 2 17.7502H14C14.9665 17.7502 15.75 16.9667 15.75 16.0002V14.0002C15.75 13.5859 15.4142 13.2502 15 13.2502C14.5858 13.2502 14.25 13.5859 14.25 14.0002V16.0002C14.25 16.1382 14.1381 16.2502 14 16.2502H2C1.86193 16.2502 1.75 16.1382 1.75 16.0002V14.0002Z" fill="#3B0CFA"/>
</svg>
