<svg width="20" height="20" viewBox="0 0 20 20" fill="none" xmlns="http://www.w3.org/2000/svg">
<path d="M6.6401 13.1528C6.0919 13.2198 5.70185 13.7186 5.76889 14.2668C5.83593 14.815 6.33469 15.205 6.88289 15.138C7.43109 15.0709 7.82114 14.5722 7.7541 14.024C7.68706 13.4758 7.1883 13.0857 6.6401 13.1528Z" fill="#303030"/>
<path d="M3.29813 10.5391C3.23108 9.99093 3.62114 9.49218 4.16934 9.42514C4.71754 9.3581 5.21629 9.74815 5.28334 10.2964C5.35038 10.8446 4.96032 11.3433 4.41212 11.4103C3.86392 11.4774 3.36517 11.0873 3.29813 10.5391Z" fill="#303030"/>
<path d="M5.66897 5.21194C5.12077 5.27899 4.73072 5.77774 4.79776 6.32594C4.8648 6.87414 5.36356 7.26419 5.91176 7.19715C6.45996 7.13011 6.85001 6.63136 6.78297 6.08316C6.71593 5.53496 6.21717 5.1449 5.66897 5.21194Z" fill="#303030"/>
<path d="M13.4473 7.03117C13.3803 6.48297 13.7703 5.98422 14.3185 5.91717C14.8667 5.85013 15.3655 6.24019 15.4325 6.78839C15.4996 7.33659 15.1095 7.83534 14.5613 7.90238C14.0131 7.96943 13.5144 7.57937 13.4473 7.03117Z" fill="#303030"/>
<path d="M9.74264 8.62869C9.19444 8.69573 8.80439 9.19449 8.87143 9.74269C8.93847 10.2909 9.43723 10.6809 9.98543 10.6139C10.5336 10.5469 10.9237 10.0481 10.8566 9.4999C10.7896 8.9517 10.2908 8.56165 9.74264 8.62869Z" fill="#303030"/>
<path d="M9.1431 4.78706C9.07605 4.23886 9.46611 3.74011 10.0143 3.67306C10.5625 3.60602 11.0613 3.99608 11.1283 4.54428C11.1953 5.09248 10.8053 5.59123 10.2571 5.65827C9.70889 5.72532 9.21014 5.33526 9.1431 4.78706Z" fill="#303030"/>
<path fill-rule="evenodd" clip-rule="evenodd" d="M0.00292101 9.51377C0.133417 4.13058 4.60315 -0.127575 9.98634 0.00292101C15.3695 0.133417 19.6277 4.60315 19.4972 9.98634C19.4889 10.3273 19.3743 10.6387 19.1632 10.8952C18.9613 11.1405 18.6999 11.3013 18.4419 11.409C17.9399 11.6185 17.3106 11.6843 16.6879 11.6885C13.9993 11.7067 11.6639 14.0193 11.5113 16.7468C11.4757 17.3831 11.3672 18.0304 11.0933 18.5389C10.9515 18.8023 10.7523 19.0528 10.4734 19.2342C10.1878 19.4199 9.86024 19.5056 9.51377 19.4972C4.13058 19.3667 -0.127575 14.897 0.00292101 9.51377ZM9.94999 1.50248C5.39498 1.39206 1.6129 4.99511 1.50248 9.55013C1.39206 14.1051 4.99511 17.8872 9.55013 17.9976C9.61822 17.9993 9.64341 17.9846 9.65576 17.9766C9.67476 17.9642 9.7188 17.9277 9.77261 17.8278C9.88996 17.6099 9.98213 17.2258 10.0136 16.663C10.2081 13.1881 13.1545 10.2123 16.6778 10.1885C17.2399 10.1847 17.6343 10.1207 17.864 10.0247C17.9452 9.99088 17.9831 9.96223 17.9977 9.94922C18.1076 5.39455 14.5047 1.61289 9.94999 1.50248Z" fill="#303030"/>
</svg>
