<svg width="19" height="19" viewBox="0 0 19 19" fill="none" xmlns="http://www.w3.org/2000/svg">
<circle cx="9.5" cy="9.5" r="9.5" fill="#E1DAFF"/>
<path d="M8.91 7.7H9.87V13H8.91V7.7ZM9.39 6.68C9.20333 6.68 9.04667 6.62 8.92 6.5C8.8 6.38 8.74 6.23333 8.74 6.06C8.74 5.88667 8.8 5.74 8.92 5.62C9.04667 5.49333 9.20333 5.43 9.39 5.43C9.57667 5.43 9.73 5.49 9.85 5.61C9.97667 5.72333 10.04 5.86667 10.04 6.04C10.04 6.22 9.97667 6.37333 9.85 6.5C9.73 6.62 9.57667 6.68 9.39 6.68Z" fill="#3B0CFA"/>
</svg>
