<svg width="30" height="30" viewBox="0 0 30 30" fill="none" xmlns="http://www.w3.org/2000/svg">
<circle cx="15" cy="15" r="15" fill="#D9D9D9"/>
<path d="M13.5003 19.0001C13.5003 18.1717 14.1719 17.5001 15.0003 17.5001C15.8287 17.5001 16.5003 18.1717 16.5003 19.0001C16.5003 19.8285 15.8287 20.5001 15.0003 20.5001C14.1719 20.5001 13.5003 19.8285 13.5003 19.0001Z" fill="#3B0CFA"/>
<path fill-rule="evenodd" clip-rule="evenodd" d="M10.622 13.5973L10.3065 10.7583C10.2661 10.3943 10.2661 10.027 10.3065 9.66298L10.3293 9.45809C10.5708 7.2847 12.2794 5.56504 14.4512 5.30953C14.816 5.26661 15.1846 5.26661 15.5494 5.30953C17.7212 5.56504 19.4298 7.2847 19.6713 9.45809L19.694 9.66298C19.7345 10.027 19.7345 10.3943 19.694 10.7583L19.3786 13.5972L20.0652 13.6521C21.1479 13.7385 22.032 14.5524 22.2076 15.6243C22.5736 17.8599 22.5736 20.1403 22.2076 22.3759C22.032 23.4478 21.1479 24.2617 20.0652 24.3482L18.5691 24.4676C16.1937 24.6572 13.807 24.6572 11.4316 24.4676L9.93546 24.3482C8.85273 24.2617 7.96862 23.4478 7.79311 22.3759C7.42704 20.1403 7.42704 17.8599 7.79311 15.6243C7.96862 14.5524 8.85273 13.7385 9.93546 13.6521L10.622 13.5973ZM14.6264 6.79926C14.8748 6.77004 15.1258 6.77004 15.3741 6.79926C16.8528 6.97322 18.016 8.14402 18.1805 9.62373L18.2032 9.82863C18.2314 10.0825 18.2314 10.3387 18.2032 10.5926L17.8821 13.4831C15.9629 13.3595 14.0377 13.3595 12.1185 13.4831L11.7973 10.5926C11.7691 10.3387 11.7691 10.0825 11.7973 9.82863L11.8201 9.62373C11.9845 8.14402 13.1478 6.97322 14.6264 6.79926ZM18.4497 15.0279C16.1538 14.8446 13.8469 14.8446 11.551 15.0279L10.0548 15.1473C9.6599 15.1788 9.33742 15.4757 9.2734 15.8667C8.93361 17.9418 8.93361 20.0584 9.2734 22.1335C9.33742 22.5245 9.6599 22.8214 10.0548 22.8529L11.551 22.9723C13.8469 23.1556 16.1538 23.1556 18.4497 22.9723L19.9458 22.8529C20.3408 22.8214 20.6632 22.5245 20.7273 22.1335C21.0671 20.0584 21.0671 17.9418 20.7273 15.8667C20.6632 15.4757 20.3408 15.1788 19.9458 15.1473L18.4497 15.0279Z" fill="#3B0CFA"/>
</svg>
